<svg version="1.1" id="Layer_1" xmlns="http://www.w3.org/2000/svg" xmlns:xlink="http://www.w3.org/1999/xlink" x="0px" y="0px"
	 width="100%" viewBox="0 0 650 650" enable-background="new 0 0 650 650" xml:space="preserve">
<path fill="#1063FF" opacity="1.000000" stroke="none" 
	d="
M651.000000,195.000000 
	C651.000000,346.901459 651.000000,498.802887 651.000000,651.000000 
	C579.978271,651.000000 508.956116,651.000000 437.268066,650.734131 
	C416.505371,632.260254 396.412567,614.047791 376.310028,595.845947 
	C365.216095,585.800964 354.135376,575.741089 342.996277,565.746338 
	C324.918335,549.525574 306.772034,533.380981 288.703613,517.149658 
	C277.192596,506.808960 265.806458,496.329224 254.299545,485.983887 
	C235.744064,469.301605 217.113220,452.703094 198.556870,436.021759 
	C187.053787,425.680969 175.641663,415.239044 164.167374,404.866180 
	C143.312195,386.012878 122.441101,367.177216 101.950874,348.234253 
	C107.318672,348.125427 112.358047,348.535950 117.293808,347.997223 
	C122.965340,347.378235 126.295540,349.170959 127.939308,354.761230 
	C128.426941,356.419586 130.322449,358.475403 131.908264,358.824188 
	C134.871002,359.475830 138.079193,359.011505 141.734070,359.011505 
	C140.917984,356.828705 140.395645,355.278564 139.766739,353.772919 
	C132.908203,337.353638 126.004768,320.953033 119.171875,304.523102 
	C114.354675,292.939972 114.388901,293.154083 102.057304,292.845276 
	C97.889191,292.740906 96.353165,294.377747 94.939316,297.887238 
	C90.342705,309.296967 85.389854,320.563202 80.448959,331.495178 
	C79.041199,329.396515 77.980919,327.446686 76.436852,326.020630 
	C70.346542,320.395813 64.078423,314.964203 57.923698,309.408356 
	C43.523979,296.409882 29.193121,283.334747 14.743306,270.392334 
	C10.314172,266.425232 5.589396,262.788177 1.000000,259.000000 
	C1.000000,173.053833 1.000000,87.107658 1.000000,1.000000 
	C146.021973,1.000000 291.044006,1.000000 436.616760,1.330604 
	C437.591583,2.366717 437.877869,3.222996 438.460205,3.755417 
	C449.621155,13.959702 460.770905,24.177097 472.016846,34.287350 
	C486.837677,47.611538 501.819122,60.757767 516.585815,74.141289 
	C533.331848,89.318764 549.881531,104.712677 566.581482,119.941246 
	C584.008911,135.833130 601.522034,151.630920 618.980835,167.488373 
	C627.221069,174.972717 635.364075,182.565292 643.679443,189.964661 
	C645.874817,191.918198 648.546875,193.336136 651.000000,195.000000 
M165.993042,356.011810 
	C165.993042,356.011810 165.985962,355.910126 166.322556,356.342926 
	C166.623566,356.548920 166.924576,356.754883 167.033112,356.956512 
	C167.033112,356.956512 167.038452,356.764069 167.410568,357.423218 
	C168.522369,357.888306 169.634171,358.353424 170.637497,358.869690 
	C170.637497,358.869690 170.589127,358.759949 171.372513,359.247986 
	C172.324570,359.483612 173.275986,359.921509 174.228760,359.924469 
	C188.604797,359.969543 202.981171,359.986053 217.356918,359.907532 
	C218.580658,359.900848 219.800461,359.171204 220.945251,358.933319 
	C220.945251,358.933319 220.790009,358.855133 221.505844,358.889526 
	C222.246674,358.391907 222.987503,357.894287 223.717255,357.640045 
	C223.717255,357.640045 223.474380,357.620667 224.055466,357.471161 
	C224.373230,357.234924 224.690994,356.998688 224.969711,356.990814 
	C224.969711,356.990814 224.741440,356.951263 225.238525,356.683136 
	C225.491211,356.409515 225.743881,356.135925 225.981049,356.008209 
	C225.981049,356.008209 225.835190,355.992523 226.309143,355.679688 
	C226.526199,355.371643 226.743256,355.063599 226.997986,354.965057 
	C226.997986,354.965057 226.788422,355.002289 227.233139,354.608582 
	C227.422195,354.261627 227.611252,353.914642 227.825226,353.857056 
	C227.825226,353.857056 227.535553,353.877838 228.090500,353.508118 
	C228.339005,352.917511 228.587509,352.326904 228.922134,351.922638 
	C228.922134,351.922638 228.735062,352.007080 229.315933,351.486938 
	C231.524445,347.811707 231.937973,344.075836 229.177002,339.777405 
	C229.048492,339.581970 228.919983,339.386536 228.203720,338.666382 
	C225.247833,338.487000 222.272995,338.047913 219.345825,338.261688 
	C218.243286,338.342255 216.429413,339.866669 216.347122,340.850555 
	C215.928421,345.856445 212.585327,346.017487 208.868912,346.012238 
	C197.888321,345.996735 186.907654,346.039856 175.995514,346.069183 
	C175.995514,346.069183 175.933548,346.099884 175.996933,345.151611 
	C176.108444,331.909790 176.219971,318.667969 176.579742,305.235718 
	C176.579742,305.235718 176.780334,305.475830 177.725922,305.700958 
	C188.184982,305.797974 198.643967,305.951508 209.103119,305.961609 
	C212.801315,305.965179 215.610001,306.639069 216.285278,311.038757 
	C216.448532,312.102539 218.184265,313.691101 219.223404,313.711914 
	C222.448029,313.776306 225.685394,313.202637 229.228699,312.184967 
	C229.235901,308.799805 229.243103,305.414612 229.524414,301.449554 
	C228.598404,300.010559 227.672379,298.571594 226.903763,297.113770 
	C226.903763,297.113770 226.919937,297.271423 226.668793,296.761505 
	C226.383224,296.519531 226.097656,296.277557 225.966049,296.039856 
	C225.966049,296.039856 225.960846,296.193756 225.665771,295.709808 
	C225.354004,295.501801 225.042252,295.293793 224.913025,294.989136 
	C224.913025,294.989136 225.009415,295.171814 224.494095,294.759857 
	C224.082870,294.608032 223.671661,294.456177 223.074875,294.361023 
	C223.074875,294.361023 223.009354,294.178406 222.587158,293.807922 
	C222.225113,293.721741 221.863083,293.635559 221.612778,293.522156 
	C221.612778,293.522156 221.628281,293.636108 221.149368,292.971680 
	C220.233215,292.660553 219.318069,292.081635 218.400757,292.078217 
	C203.013550,292.020477 187.624542,291.934601 172.240753,292.170044 
	C170.489700,292.196838 168.767593,294.116058 167.042908,295.047607 
	C167.042908,295.047607 167.152954,295.059631 166.516754,295.174194 
	C166.018433,295.814606 165.520096,296.455048 165.000610,297.005524 
	C165.000610,297.005524 165.090576,296.984467 164.655563,297.323700 
	C164.448746,297.626740 164.241913,297.929749 164.024155,298.013580 
	C164.024155,298.013580 164.243393,298.003143 163.753738,298.400635 
	C163.513748,298.968353 163.273773,299.536102 162.999878,300.011322 
	C162.999878,300.011322 163.092407,299.977539 162.538422,300.528351 
	C162.008453,302.559174 161.041168,304.585327 161.019501,306.621582 
	C160.878784,319.840057 160.827087,333.062714 161.055786,346.278656 
	C161.094086,348.492126 162.640259,350.679474 163.198761,352.817230 
	C163.198761,352.817230 163.265167,352.527374 163.445099,353.098114 
	C163.696091,353.401398 163.947083,353.704712 164.014008,353.987549 
	C164.014008,353.987549 164.034805,353.803528 164.287857,354.284882 
	C164.554749,354.526001 164.821640,354.767120 164.994598,355.006042 
	C164.994598,355.006042 164.996658,354.912109 165.273499,355.359131 
	C165.547241,355.574402 165.820984,355.789703 165.993042,356.011810 
M317.333038,355.398193 
	C317.333038,355.398193 317.454224,355.383392 318.021515,355.252136 
	C318.316650,354.784668 318.611786,354.317230 318.915283,353.920502 
	C318.915283,353.920502 318.844208,353.924225 319.558350,353.702271 
	C323.458099,349.493774 322.209198,344.748718 321.002441,340.002594 
	C321.002441,340.002594 320.988495,340.016968 320.699188,339.305542 
	C312.331207,335.731232 307.901215,337.799225 308.113159,345.090515 
	C308.113159,345.090515 308.191376,345.114685 307.340332,345.228119 
	C296.223480,345.500305 285.107727,345.846161 273.989288,346.011871 
	C268.855499,346.088379 267.056274,344.360992 266.975342,339.160736 
	C266.835571,330.182373 266.916473,321.199768 266.979919,312.219482 
	C267.009552,308.031281 268.924774,305.823578 273.437012,305.910217 
	C281.583313,306.066681 289.755676,306.300140 297.877350,305.823486 
	C303.667114,305.483643 307.516754,307.069458 309.157440,312.897003 
	C309.157440,312.897003 309.131378,312.956909 309.181091,313.361755 
	C309.288727,313.631439 309.483490,313.800812 310.680725,313.808044 
	C314.025909,313.431793 317.371094,313.055542 321.268616,312.140533 
	C321.482849,309.066650 322.088226,305.949982 321.758514,302.935608 
	C321.573029,301.239655 319.844330,299.712524 318.882263,298.112915 
	C318.882263,298.112915 318.872070,298.183716 318.786560,297.551971 
	C318.169556,297.042358 317.552582,296.532776 316.993164,296.005524 
	C316.993164,296.005524 316.976776,296.063477 316.813385,295.354187 
	C314.043488,294.240265 311.293152,292.224182 308.500458,292.163757 
	C294.057709,291.851166 279.603241,291.968018 265.155518,292.147675 
	C263.473541,292.168610 261.807892,293.501801 260.131897,294.152496 
	C260.131897,294.152496 260.201385,294.178406 259.448090,294.129425 
	C258.148163,295.564514 256.848236,296.999603 255.113922,297.995911 
	C255.255951,298.142670 255.397995,298.289459 254.868240,298.713593 
	C253.969955,300.606964 252.319794,302.489716 252.292801,304.395416 
	C252.083801,319.143982 251.989426,333.901306 252.312683,348.645996 
	C252.414719,353.300079 254.487335,357.406921 260.121948,357.836151 
	C260.121948,357.836151 260.112762,357.764587 260.512970,358.435791 
	C261.862854,358.936401 263.209900,359.863464 264.563019,359.872345 
	C279.838348,359.972931 295.117035,360.061707 310.387726,359.774994 
	C312.408905,359.737030 314.390533,357.594269 316.416321,356.319794 
	C316.416321,356.319794 316.525513,356.329468 316.942078,356.239349 
	C317.213715,356.076385 317.343475,355.836670 317.333038,355.398193 
M487.583282,296.410461 
	C487.583282,296.410461 487.579285,296.505188 487.392334,295.935333 
	C486.909637,295.631561 486.426910,295.327820 485.994690,294.998291 
	C485.994690,294.998291 485.984589,295.054047 485.744843,294.345764 
	C483.357788,293.561371 480.979584,292.130554 478.582245,292.097748 
	C463.332031,291.889069 448.077393,291.955750 432.824677,292.028503 
	C430.892212,292.037720 428.962402,292.611694 426.655548,293.174438 
	C426.655548,293.174438 426.211914,293.259003 425.654755,293.820709 
	C425.427643,295.272919 425.005402,296.724823 425.002899,298.177429 
	C424.968445,318.139252 424.991821,338.101166 425.395294,358.384766 
	C425.705994,358.510498 426.016663,358.636200 426.695526,358.838318 
	C426.695526,358.838318 426.977478,359.087128 427.270569,359.651825 
	C431.157654,359.394287 435.044769,359.136719 438.943390,358.947021 
	C438.943390,358.947021 438.876617,358.930420 439.451538,358.745972 
	C439.701233,354.405396 440.145569,350.064087 440.128815,345.724548 
	C440.118500,343.048706 440.344788,340.807526 443.591492,341.038971 
	C450.447815,341.527679 457.285156,342.282166 464.059753,342.952362 
	C464.059753,342.952362 464.086700,342.882599 464.091431,343.599335 
	C464.918732,344.563263 465.746063,345.527191 466.498535,346.777008 
	C466.498535,346.777008 466.555603,346.497894 466.577209,347.132324 
	C467.106018,347.739471 467.634827,348.346649 468.082184,348.935028 
	C468.082184,348.935028 468.102844,348.854065 468.090607,349.547058 
	C468.757294,350.353088 469.424011,351.159149 470.024292,351.984497 
	C470.024292,351.984497 470.059082,351.924713 470.026001,352.668610 
	C471.541351,354.570526 473.056732,356.472443 474.084656,358.524658 
	C474.247162,358.480957 474.409698,358.437256 474.796082,359.018097 
	C479.181549,359.025970 483.567047,359.033844 488.002563,358.922241 
	C488.002563,358.922241 488.122528,358.971069 488.622223,358.822876 
	C488.229858,358.076050 487.837494,357.329193 487.378815,356.540039 
	C487.378815,356.540039 487.408905,356.467346 487.434052,355.795624 
	C486.761841,355.033783 486.089661,354.271973 485.794800,353.507599 
	C485.794800,353.507599 485.419952,353.482635 485.421295,352.853424 
	C484.912354,352.241486 484.403442,351.629547 483.960968,351.028046 
	C483.960968,351.028046 483.936829,351.090851 483.944763,350.404968 
	C483.249878,349.629120 482.554993,348.853241 481.931427,348.060333 
	C481.931427,348.060333 481.904785,348.128632 481.850250,347.476379 
	C481.208130,346.655731 480.566010,345.835083 479.986145,345.009460 
	C479.986145,345.009460 479.961060,345.066681 479.862976,344.458984 
	C479.451050,344.021759 479.039124,343.584503 478.715302,343.179443 
	C478.715302,343.179443 478.677551,343.265320 479.027374,342.596680 
	C481.184296,340.875122 483.341217,339.153564 485.545044,337.462189 
	C485.545044,337.462189 485.564606,337.409973 486.276123,337.520966 
	C487.069275,336.568420 487.862457,335.615875 488.672729,334.746490 
	C488.672729,334.746490 488.588379,334.756104 489.113373,334.440704 
	C489.365051,333.901886 489.616730,333.363068 489.890533,332.893066 
	C489.890533,332.893066 489.818481,332.887665 490.543091,332.604919 
	C490.972687,331.938080 491.770111,331.274841 491.776672,330.603851 
	C491.871460,320.893158 491.959503,311.179230 491.743927,301.472839 
	C491.717987,300.305634 489.908691,299.178101 488.987946,298.016632 
	C488.987946,298.016632 488.961212,298.074707 488.844788,297.486908 
	C488.392761,297.130341 487.940704,296.773743 487.583282,296.410461 
M554.109985,345.560242 
	C554.793579,346.342438 555.477112,347.124664 556.078003,347.941956 
	C556.078003,347.941956 556.123840,347.864685 556.095398,348.615784 
	C557.459595,350.369598 558.823853,352.123383 560.109192,353.893158 
	C560.109192,353.893158 560.146301,353.821747 560.087830,354.602325 
	C560.354492,359.291748 563.439270,360.687103 567.479187,360.736206 
	C571.084839,360.780060 574.700378,360.700653 578.295532,360.447937 
	C579.215576,360.383209 580.075134,359.457245 581.014038,358.953857 
	C581.014038,358.953857 580.973145,358.995148 581.649597,358.894226 
	C582.191284,358.045258 583.205444,357.196167 583.205261,356.347290 
	C583.201111,336.941589 583.136841,317.535278 582.904602,298.131226 
	C582.884094,296.414001 581.632629,294.711456 580.465149,292.952820 
	C580.465149,292.952820 580.013611,292.761810 579.312561,292.437378 
	C576.630127,291.933228 573.958191,291.172577 571.259644,291.062256 
	C570.298157,291.022949 569.272156,292.560699 568.311523,293.384155 
	C568.311523,293.384155 568.303467,293.419586 567.624512,293.501526 
	C567.209534,294.313232 566.427246,295.128326 566.434631,295.936157 
	C566.548096,308.239166 566.839355,320.540985 566.874390,332.843719 
	C566.879456,334.615479 565.767883,336.390381 564.877380,337.515747 
	C563.847534,336.232605 562.716003,335.017609 561.803772,333.655670 
	C553.500122,321.258484 545.281616,308.803741 536.895508,296.462769 
	C535.901855,295.000519 534.097778,293.209045 532.591003,293.133545 
	C527.153381,292.860992 521.682373,293.256958 515.690796,293.933350 
	C515.458862,295.713287 515.030640,297.492645 515.025269,299.273254 
	C514.970154,317.534180 514.983582,335.795319 514.658569,354.489777 
	C514.737671,355.320831 514.816833,356.151917 514.914062,357.551544 
	C514.932556,357.740265 514.950989,357.928986 515.252014,358.717163 
	C519.780945,362.011902 524.376099,360.670502 529.083069,358.461823 
	C529.083069,358.461823 529.289368,358.046661 529.898499,357.607300 
	C530.252319,352.392792 530.784485,347.182800 530.916138,341.962708 
	C531.092102,334.984375 530.917664,327.997925 530.977051,321.015656 
	C530.998718,318.469910 530.290710,315.416840 534.107788,314.908020 
	C534.107788,314.908020 534.158997,314.811127 534.123169,315.569397 
	C535.474304,317.337585 536.825378,319.105804 538.066772,320.973572 
	C538.066772,320.973572 538.150208,320.851166 538.072632,321.621155 
	C539.448730,323.371613 540.824890,325.122070 542.122375,326.889587 
	C542.122375,326.889587 542.156982,326.816986 542.084351,327.636658 
	C541.941345,330.553497 542.466980,332.950104 546.073669,332.958282 
	C546.073669,332.958282 546.130005,332.852692 546.121826,333.545135 
	C546.813965,334.325378 547.506104,335.105621 548.124878,335.893372 
	C548.124878,335.893372 548.149597,335.823853 548.088196,336.598358 
	C549.448120,338.358429 550.808044,340.118500 552.063293,341.971466 
	C552.063293,341.971466 552.140930,341.855011 552.123413,342.543518 
	C552.799622,343.332642 553.475769,344.121765 554.066772,344.949890 
	C554.066772,344.949890 554.118103,344.871582 554.109985,345.560242 
M345.378235,359.425446 
	C345.806061,359.639832 346.232635,360.039124 346.661926,360.042084 
	C364.793274,360.167542 382.924927,360.296539 401.056274,360.263580 
	C402.251038,360.261414 404.427277,359.045898 404.469818,358.299225 
	C404.673828,354.716766 405.017090,350.821167 403.772308,347.638550 
	C403.288605,346.401917 398.761505,346.468567 396.068237,346.423462 
	C385.618744,346.248413 375.165527,346.185059 364.714661,346.245422 
	C358.687714,346.280243 360.124939,341.994415 359.893219,338.535675 
	C359.629059,334.592743 361.875427,333.823273 365.203308,333.864624 
	C373.522461,333.968140 381.843597,333.926208 390.163910,333.911133 
	C396.169373,333.900238 396.916656,333.045105 396.976410,326.326874 
	C397.041931,318.961914 396.443420,318.148163 390.374512,318.102295 
	C382.054657,318.039429 373.729004,317.918518 365.415527,318.158234 
	C360.860748,318.289551 359.805420,316.215942 359.800018,312.121582 
	C359.794403,307.887512 360.727051,305.656891 365.624817,305.784119 
	C376.434052,306.064758 387.256744,305.946838 398.070862,305.784546 
	C399.675537,305.760498 401.263367,304.611450 403.192108,303.107849 
	C403.192108,299.866058 403.192108,296.624298 403.192108,293.301819 
	C383.549988,293.301819 364.513580,293.301819 345.134888,293.301819 
	C345.134888,315.374420 345.134888,337.125854 345.378235,359.425446 
z"/>
<path fill="#1191FE" opacity="1.000000" stroke="none" 
	d="
M101.576653,348.334198 
	C122.441101,367.177216 143.312195,386.012878 164.167374,404.866180 
	C175.641663,415.239044 187.053787,425.680969 198.556870,436.021759 
	C217.113220,452.703094 235.744064,469.301605 254.299545,485.983887 
	C265.806458,496.329224 277.192596,506.808960 288.703613,517.149658 
	C306.772034,533.380981 324.918335,549.525574 342.996277,565.746338 
	C354.135376,575.741089 365.216095,585.800964 376.310028,595.845947 
	C396.412567,614.047791 416.505371,632.260254 436.801086,650.734131 
	C358.979095,651.000000 280.958221,651.000000 202.291809,650.716553 
	C200.609787,649.356140 199.635880,648.209534 198.527420,647.212585 
	C179.488586,630.089294 160.408875,613.011414 141.389084,595.867004 
	C126.318230,582.282227 111.329315,568.606628 96.280685,554.997131 
	C76.052689,536.703613 55.861217,518.369019 35.538311,500.181396 
	C24.146141,489.986176 12.520457,480.051880 0.999996,470.000000 
	C1.000000,399.979095 1.000000,329.958221 1.000000,259.468658 
	C5.589396,262.788177 10.314172,266.425232 14.743306,270.392334 
	C29.193121,283.334747 43.523979,296.409882 57.923698,309.408356 
	C64.078423,314.964203 70.346542,320.395813 76.436852,326.020630 
	C77.980919,327.446686 79.041199,329.396515 80.421661,331.831726 
	C76.975365,341.186798 73.431198,349.815796 69.648849,359.024658 
	C73.437836,359.024658 76.292526,359.332764 79.030350,358.900543 
	C80.498520,358.668793 82.706764,357.375305 82.971077,356.199127 
	C84.707695,348.471649 89.825302,347.036011 96.631409,348.079803 
	C98.254646,348.328766 99.926926,348.257935 101.576653,348.334198 
z"/>
<path fill="#0D59EA" opacity="1.000000" stroke="none" 
	d="
M651.000000,194.531342 
	C648.546875,193.336136 645.874817,191.918198 643.679443,189.964661 
	C635.364075,182.565292 627.221069,174.972717 618.980835,167.488373 
	C601.522034,151.630920 584.008911,135.833130 566.581482,119.941246 
	C549.881531,104.712677 533.331848,89.318764 516.585815,74.141289 
	C501.819122,60.757767 486.837677,47.611538 472.016846,34.287350 
	C460.770905,24.177097 449.621155,13.959702 438.460205,3.755417 
	C437.877869,3.222996 437.591583,2.366717 437.083740,1.330604 
	C508.256775,1.000000 579.513550,1.000000 651.000000,1.000000 
	C651.000000,65.354042 651.000000,129.708359 651.000000,194.531342 
z"/>
<path fill="#0E5AEC" opacity="1.000000" stroke="none" 
	d="
M0.999996,470.468658 
	C12.520457,480.051880 24.146141,489.986176 35.538311,500.181396 
	C55.861217,518.369019 76.052689,536.703613 96.280685,554.997131 
	C111.329315,568.606628 126.318230,582.282227 141.389084,595.867004 
	C160.408875,613.011414 179.488586,630.089294 198.527420,647.212585 
	C199.635880,648.209534 200.609787,649.356140 201.823151,650.716553 
	C146.645767,651.000000 91.291542,651.000000 35.329247,650.700439 
	C26.427450,642.611206 18.184576,634.766357 9.811222,627.063354 
	C7.047304,624.520691 3.946665,622.343994 0.999998,620.000000 
	C1.000000,570.312439 1.000000,520.624878 0.999996,470.468658 
z"/>
<path fill="#4613EB" opacity="1.000000" stroke="none" 
	d="
M0.999998,620.468628 
	C3.946665,622.343994 7.047304,624.520691 9.811222,627.063354 
	C18.184576,634.766357 26.427450,642.611206 34.860588,650.700439 
	C23.743507,651.000000 12.487016,651.000000 1.000000,651.000000 
	C1.000000,640.980286 1.000000,630.958801 0.999998,620.468628 
z"/>
<path fill="#F4FAFE" opacity="1.000000" stroke="none" 
	d="
M529.289368,358.046661 
	C529.289368,358.046661 529.083069,358.461823 528.575012,358.706299 
	C524.092712,358.595947 520.118469,358.241119 516.229370,357.431519 
	C516.284241,335.784637 516.254089,314.592529 516.223877,293.400452 
	C521.682373,293.256958 527.153381,292.860992 532.591003,293.133545 
	C534.097778,293.209045 535.901855,295.000519 536.895508,296.462769 
	C545.281616,308.803741 553.500122,321.258484 561.803772,333.655670 
	C562.716003,335.017609 563.847534,336.232605 565.060425,338.182190 
	C566.023804,339.867828 566.804138,340.887085 568.303467,342.845367 
	C568.303467,325.430145 568.303467,309.424866 568.303467,293.419586 
	C568.303467,293.419586 568.311523,293.384155 568.720093,293.254761 
	C572.756958,293.004181 576.385315,292.882996 580.013611,292.761810 
	C580.013611,292.761810 580.465149,292.952820 580.772827,293.442810 
	C581.044739,315.620239 581.008911,337.307678 580.973145,358.995148 
	C580.973145,358.995148 581.014038,358.953857 580.523071,358.959778 
	C577.226318,358.966278 574.395569,358.729401 571.619995,359.019714 
	C566.693542,359.535004 562.560974,358.675140 560.146301,353.821747 
	C560.146301,353.821747 560.109192,353.893158 560.074341,353.554718 
	C558.734253,351.432404 557.429077,349.648560 556.123840,347.864685 
	C556.123840,347.864685 556.078003,347.941956 556.071594,347.609528 
	C555.416138,346.475281 554.767151,345.673431 554.118103,344.871582 
	C554.118103,344.871582 554.066772,344.949890 554.060913,344.616638 
	C553.417053,343.473938 552.778992,342.664459 552.140930,341.855011 
	C552.140930,341.855011 552.063293,341.971466 552.053345,341.591553 
	C550.745483,339.415710 549.447510,337.619781 548.149597,335.823853 
	C548.149597,335.823853 548.124878,335.893372 548.104492,335.576843 
	C547.432739,334.457764 546.781372,333.655212 546.130005,332.852692 
	C546.130005,332.852692 546.073669,332.958282 546.055603,332.586243 
	C544.744019,330.415131 543.450500,328.616058 542.156982,326.816986 
	C542.156982,326.816986 542.122375,326.889587 542.096313,326.547180 
	C540.763550,324.420227 539.456909,322.635681 538.150208,320.851166 
	C538.150208,320.851166 538.066772,320.973572 538.061279,320.589539 
	C536.756836,318.407349 535.457886,316.609253 534.158997,314.811127 
	C534.158997,314.811127 534.107788,314.908020 534.086731,314.544647 
	C532.749634,312.164368 531.433594,310.147430 530.117554,308.130524 
	C529.841492,308.249054 529.565430,308.367554 529.289368,308.486084 
	C529.289368,325.006256 529.289368,341.526459 529.289368,358.046661 
z"/>
<path fill="#F5FBFE" opacity="1.000000" stroke="none" 
	d="
M426.977478,359.087128 
	C426.977478,359.087128 426.695526,358.838318 426.509888,358.586365 
	C426.324219,358.334442 426.072266,357.986938 426.136566,357.522949 
	C426.204559,335.792297 426.208221,314.525635 426.211914,293.259003 
	C426.211914,293.259003 426.655548,293.174438 427.305389,293.107971 
	C443.926727,293.044373 459.899719,292.934387 475.868561,293.141052 
	C479.248260,293.184784 482.612976,294.386108 485.984589,295.054047 
	C485.984589,295.054047 485.994690,294.998291 486.091339,295.268799 
	C486.651764,295.861267 487.115540,296.183228 487.579285,296.505188 
	C487.579285,296.505188 487.583282,296.410461 487.640747,296.686005 
	C488.119202,297.332611 488.540192,297.703644 488.961212,298.074707 
	C488.961212,298.074707 488.987946,298.016632 489.038818,298.404877 
	C492.506134,310.090118 491.276611,321.486450 489.818481,332.887665 
	C489.818481,332.887665 489.890533,332.893066 489.623230,333.016632 
	C489.100098,333.678833 488.844238,334.217468 488.588379,334.756104 
	C488.588379,334.756104 488.672729,334.746490 488.395691,334.831818 
	C487.267303,335.748077 486.415955,336.579010 485.564606,337.409973 
	C485.564606,337.409973 485.545044,337.462189 485.161682,337.572021 
	C482.155426,338.449371 479.532501,339.216919 476.405762,340.131927 
	C477.262421,341.313446 477.969971,342.289368 478.677551,343.265320 
	C478.677551,343.265320 478.715302,343.179443 478.735504,343.468445 
	C479.157501,344.193848 479.559265,344.630249 479.961060,345.066681 
	C479.961060,345.066681 479.986145,345.009460 479.993103,345.328552 
	C480.634979,346.474670 481.269867,347.301636 481.904785,348.128632 
	C481.904785,348.128632 481.931427,348.060333 481.944489,348.382935 
	C482.617310,349.500641 483.277069,350.295746 483.936829,351.090851 
	C483.936829,351.090851 483.960968,351.028046 483.958557,351.320557 
	C484.444061,352.236267 484.932007,352.859467 485.419952,353.482635 
	C485.419952,353.482635 485.794800,353.507599 485.683777,353.803101 
	C486.184814,354.888184 486.796875,355.677765 487.408905,356.467346 
	C487.408905,356.467346 487.378815,356.540039 487.513123,356.860809 
	C487.805786,357.778076 487.964142,358.374573 488.122528,358.971069 
	C488.122528,358.971069 488.002563,358.922241 487.523315,358.941223 
	C482.886780,358.771332 478.729492,358.582428 474.572235,358.393524 
	C474.409698,358.437256 474.247162,358.480957 474.206268,358.141785 
	C472.904968,355.814178 471.482025,353.869446 470.059082,351.924713 
	C470.059082,351.924713 470.024292,351.984497 470.022430,351.657532 
	C469.381348,350.505066 468.742096,349.679565 468.102844,348.854065 
	C468.102844,348.854065 468.082184,348.935028 468.084747,348.643402 
	C467.576752,347.733826 467.066162,347.115845 466.555603,346.497894 
	C466.555603,346.497894 466.498535,346.777008 466.439880,346.324432 
	C465.616364,344.875427 464.851532,343.879028 464.086700,342.882599 
	C464.086700,342.882599 464.059753,342.952362 464.012512,342.571350 
	C462.940552,341.191742 461.945099,339.365540 460.886322,339.328064 
	C453.681549,339.072937 446.463440,339.194550 438.876617,339.194550 
	C438.876617,346.337891 438.876617,352.634155 438.876617,358.930420 
	C438.876617,358.930420 438.943390,358.947021 438.480957,358.937317 
	C434.338165,358.980804 430.657837,359.033966 426.977478,359.087128 
M473.003204,327.484161 
	C477.539642,327.967438 479.427795,325.921509 479.186768,321.395844 
	C478.983246,317.574463 479.077148,313.732483 479.157410,309.902130 
	C479.233215,306.285431 477.527039,304.833893 473.970459,304.872986 
	C465.474121,304.966492 456.976013,304.895721 448.478607,304.892151 
	C445.407532,304.890869 442.336426,304.891937 439.365784,304.891937 
	C439.365784,312.876862 439.365784,319.958740 439.365784,327.491699 
	C450.490448,327.491699 461.292664,327.491699 473.003204,327.484161 
z"/>
<path fill="#F5FCFE" opacity="1.000000" stroke="none" 
	d="
M345.134888,358.877258 
	C345.134888,337.125854 345.134888,315.374420 345.134888,293.301819 
	C364.513580,293.301819 383.549988,293.301819 403.192108,293.301819 
	C403.192108,296.624298 403.192108,299.866058 402.569855,303.501221 
	C387.391174,303.894623 372.834717,303.894623 358.340668,303.894623 
	C358.340668,309.702271 358.340668,314.627563 358.340668,320.029114 
	C370.713531,320.029114 382.790070,320.029114 395.070679,320.029114 
	C395.070679,324.221680 395.070679,327.924988 395.070679,332.143921 
	C382.603638,332.143921 370.531860,332.143921 358.420654,332.143921 
	C358.420654,337.726349 358.420654,342.780029 358.420654,348.391815 
	C373.509338,348.391815 388.234894,348.391815 402.940002,348.391815 
	C402.940002,352.192963 402.940002,355.410370 402.940002,358.877258 
	C383.371338,358.877258 364.253113,358.877258 345.134888,358.877258 
z"/>
<path fill="#F4FAFE" opacity="1.000000" stroke="none" 
	d="
M229.250290,302.029449 
	C229.243103,305.414612 229.235901,308.799805 228.627014,312.484375 
	C224.751556,312.783813 221.477753,312.783813 218.203964,312.783813 
	C218.493713,312.365417 218.783447,311.947052 219.073196,311.528656 
	C217.343475,309.324707 215.670807,305.270203 213.874832,305.214783 
	C201.524429,304.833954 189.148224,305.289490 176.780334,305.475830 
	C176.780334,305.475830 176.579742,305.235718 176.106415,305.497986 
	C175.097214,307.240265 174.116547,308.714355 174.096848,310.201202 
	C173.956528,320.792908 173.942276,331.388214 174.091354,341.979523 
	C174.110794,343.361328 175.290985,344.726837 175.933548,346.099884 
	C175.933548,346.099884 175.995514,346.069183 176.236282,346.399475 
	C187.034302,346.862427 197.591263,347.031799 208.148895,347.115845 
	C216.378326,347.181366 216.378708,347.134216 218.597260,339.191071 
	C221.894867,339.191071 225.343170,339.191071 228.791458,339.191071 
	C228.919983,339.386536 229.048492,339.581970 229.348297,340.364868 
	C229.258087,344.637238 228.996582,348.322174 228.735077,352.007080 
	C228.735062,352.007080 228.922134,351.922638 228.620743,352.021545 
	C228.058090,352.706268 227.796829,353.292053 227.535553,353.877838 
	C227.535553,353.877838 227.825226,353.857056 227.531784,353.859131 
	C227.088364,354.241577 226.938385,354.621918 226.788422,355.002289 
	C226.788422,355.002289 226.997986,354.965057 226.684387,354.952087 
	C226.192245,355.290222 226.013718,355.641388 225.835190,355.992523 
	C225.835190,355.992523 225.981049,356.008209 225.691223,355.993042 
	C225.181412,356.302338 224.961426,356.626801 224.741440,356.951263 
	C224.741440,356.951263 224.969711,356.990814 224.678986,356.908691 
	C224.083618,357.091248 223.778992,357.355957 223.474365,357.620667 
	C223.474380,357.620667 223.717255,357.640045 223.393555,357.597290 
	C222.309921,357.988068 221.549973,358.421600 220.790009,358.855133 
	C220.790009,358.855133 220.945251,358.933319 220.506424,358.857330 
	C203.574768,358.774200 187.081955,358.767059 170.589127,358.759949 
	C170.589127,358.759949 170.637497,358.869690 170.455902,358.570892 
	C169.195694,357.769440 168.117065,357.266754 167.038452,356.764069 
	C167.038452,356.764069 167.033112,356.956512 167.020294,356.685944 
	C166.666962,356.246979 166.326462,356.078552 165.985962,355.910126 
	C165.985962,355.910126 165.993042,356.011810 165.970703,355.733643 
	C165.631119,355.274323 165.313889,355.093201 164.996674,354.912109 
	C164.996658,354.912109 164.994598,355.006042 164.978302,354.720703 
	C164.652954,354.224731 164.343887,354.014130 164.034821,353.803528 
	C164.034805,353.803528 164.014008,353.987549 164.074463,353.684448 
	C163.844986,353.096680 163.555084,352.812042 163.265167,352.527374 
	C163.265167,352.527374 163.198761,352.817230 163.284363,352.415894 
	C162.977036,347.417419 162.223602,342.817383 162.260178,338.223663 
	C162.361725,325.473541 162.792007,312.726074 163.092407,299.977539 
	C163.092407,299.977539 162.999878,300.011322 163.266327,299.867249 
	C163.769653,299.149841 164.006516,298.576477 164.243393,298.003143 
	C164.243393,298.003143 164.024155,298.013580 164.307999,298.018280 
	C164.758087,297.676819 164.924332,297.330658 165.090576,296.984467 
	C165.090576,296.984467 165.000610,297.005524 165.296631,296.940857 
	C166.112762,296.270660 166.632858,295.665161 167.152954,295.059631 
	C167.152954,295.059631 167.042908,295.047607 167.423431,295.029297 
	C171.825287,294.349823 175.844498,293.142212 179.868332,293.126587 
	C193.787445,293.072418 207.708176,293.433258 221.628281,293.636108 
	C221.628281,293.636108 221.612778,293.522156 221.762711,293.735718 
	C222.278214,294.025665 222.643784,294.102020 223.009354,294.178406 
	C223.009354,294.178406 223.074875,294.361023 223.389923,294.597107 
	C224.139801,294.946045 224.574600,295.058929 225.009415,295.171814 
	C225.009415,295.171814 224.913025,294.989136 224.920700,295.323486 
	C225.272537,295.836487 225.616684,296.015137 225.960846,296.193756 
	C225.960846,296.193756 225.966049,296.039856 225.950684,296.334015 
	C226.263535,296.842590 226.591736,297.057007 226.919937,297.271423 
	C226.919937,297.271423 226.903763,297.113770 226.911591,297.459595 
	C227.696381,299.213440 228.473328,300.621429 229.250290,302.029449 
z"/>
<path fill="#F5FBFE" opacity="1.000000" stroke="none" 
	d="
M320.716248,312.679321 
	C317.371094,313.055542 314.025909,313.431793 310.132629,313.680420 
	C309.479187,313.319458 309.328156,313.120819 309.131378,312.956909 
	C309.131378,312.956909 309.157440,312.897003 309.167145,312.468018 
	C308.856262,305.099854 308.582153,304.828522 301.561218,304.819916 
	C291.593964,304.807709 281.624512,304.937561 271.660522,304.756256 
	C267.256287,304.676147 265.214203,306.277130 265.265839,310.812103 
	C265.381256,320.944061 265.352356,331.078796 265.265167,341.211395 
	C265.229492,345.358673 266.915680,347.270508 271.212677,347.217529 
	C282.008881,347.084442 292.809082,347.250793 303.604095,347.076233 
	C305.143341,347.051392 306.662781,345.798981 308.191376,345.114685 
	C308.191376,345.114685 308.113159,345.090515 308.442261,344.849731 
	C309.013550,343.030304 309.255737,341.451691 309.594330,339.244629 
	C313.553070,339.512970 317.270782,339.764954 320.988495,340.016968 
	C320.988495,340.016968 321.002441,340.002594 320.940460,340.447449 
	C320.200378,345.236298 319.522278,349.580261 318.844177,353.924225 
	C318.844208,353.924225 318.915283,353.920502 318.656311,353.982910 
	C318.082947,354.491364 317.768585,354.937378 317.454224,355.383392 
	C317.454224,355.383392 317.333038,355.398193 317.145081,355.536011 
	C316.723907,355.833618 316.580048,356.052155 316.525513,356.329468 
	C316.525513,356.329468 316.416321,356.319794 316.058105,356.527832 
	C312.695251,357.466156 309.701416,358.769745 306.683990,358.826904 
	C294.095886,359.065186 281.499969,359.000092 268.908600,358.876465 
	C265.973297,358.847687 263.044525,358.152924 260.112762,357.764587 
	C260.112762,357.764587 260.121948,357.836151 259.972778,357.538940 
	C255.400681,354.328888 253.705719,350.222412 253.773636,344.953674 
	C253.936172,332.345581 253.709488,319.732330 253.887146,307.124695 
	C253.928055,304.221344 254.962708,301.332001 255.540039,298.436218 
	C255.397995,298.289459 255.255951,298.142670 255.597900,298.045410 
	C257.455048,296.789398 258.828217,295.483887 260.201385,294.178406 
	C260.201385,294.178406 260.131897,294.152496 260.548340,294.138092 
	C263.409393,293.770386 265.851715,293.131836 268.299042,293.111847 
	C280.761353,293.010162 293.231689,292.840790 305.684082,293.208160 
	C309.473114,293.319946 313.213898,295.065948 316.976776,296.063477 
	C316.976776,296.063477 316.993164,296.005524 317.064209,296.296936 
	C317.714172,297.120148 318.293121,297.651947 318.872070,298.183716 
	C318.872070,298.183716 318.882263,298.112915 318.932861,298.491821 
	C319.561066,303.473602 320.138672,308.076477 320.716248,312.679321 
z"/>
<path fill="#F3FAFD" opacity="1.000000" stroke="none" 
	d="
M101.950867,348.234253 
	C99.926926,348.257935 98.254646,348.328766 96.631409,348.079803 
	C89.825302,347.036011 84.707695,348.471649 82.971077,356.199127 
	C82.706764,357.375305 80.498520,358.668793 79.030350,358.900543 
	C76.292526,359.332764 73.437836,359.024658 69.648849,359.024658 
	C73.431198,349.815796 76.975365,341.186798 80.546829,332.221252 
	C85.389854,320.563202 90.342705,309.296967 94.939316,297.887238 
	C96.353165,294.377747 97.889191,292.740906 102.057304,292.845276 
	C114.388901,293.154083 114.354675,292.939972 119.171875,304.523102 
	C126.004768,320.953033 132.908203,337.353638 139.766739,353.772919 
	C140.395645,355.278564 140.917984,356.828705 141.734070,359.011505 
	C138.079193,359.011505 134.871002,359.475830 131.908264,358.824188 
	C130.322449,358.475403 128.426941,356.419586 127.939308,354.761230 
	C126.295540,349.170959 122.965340,347.378235 117.293808,347.997223 
	C112.358047,348.535950 107.318672,348.125427 101.950867,348.234253 
M113.287415,320.909088 
	C112.695213,319.445618 112.103012,317.982147 111.354393,315.843414 
	C110.631302,314.175995 109.908211,312.508545 109.148155,310.149780 
	C108.500755,308.698120 107.853363,307.246429 107.163872,305.132294 
	C106.708687,304.229126 106.253502,303.325928 105.475197,301.781586 
	C104.396149,304.953644 103.575539,307.365967 102.281906,310.278229 
	C101.661400,312.016998 101.040901,313.755768 100.032433,316.086456 
	C97.948799,321.662109 95.865166,327.237762 93.300896,333.269226 
	C92.880714,334.464691 92.460533,335.660156 91.976158,337.038269 
	C101.308769,337.038269 110.243843,337.038269 119.756165,337.038269 
	C117.752884,332.257751 115.984451,328.037689 114.189857,323.209259 
	C113.937698,322.664825 113.685539,322.120392 113.287415,320.909088 
z"/>
<path fill="#2C65CD" opacity="1.000000" stroke="none" 
	d="
M345.256561,359.151367 
	C364.253113,358.877258 383.371338,358.877258 402.940002,358.877258 
	C402.940002,355.410370 402.940002,352.192963 402.940002,348.391815 
	C388.234894,348.391815 373.509338,348.391815 358.420654,348.391815 
	C358.420654,342.780029 358.420654,337.726349 358.420654,332.143921 
	C370.531860,332.143921 382.603638,332.143921 395.070679,332.143921 
	C395.070679,327.924988 395.070679,324.221680 395.070679,320.029114 
	C382.790070,320.029114 370.713531,320.029114 358.340668,320.029114 
	C358.340668,314.627563 358.340668,309.702271 358.340668,303.894623 
	C372.834717,303.894623 387.391174,303.894623 402.403290,303.938721 
	C401.263367,304.611450 399.675537,305.760498 398.070862,305.784546 
	C387.256744,305.946838 376.434052,306.064758 365.624817,305.784119 
	C360.727051,305.656891 359.794403,307.887512 359.800018,312.121582 
	C359.805420,316.215942 360.860748,318.289551 365.415527,318.158234 
	C373.729004,317.918518 382.054657,318.039429 390.374512,318.102295 
	C396.443420,318.148163 397.041931,318.961914 396.976410,326.326874 
	C396.916656,333.045105 396.169373,333.900238 390.163910,333.911133 
	C381.843597,333.926208 373.522461,333.968140 365.203308,333.864624 
	C361.875427,333.823273 359.629059,334.592743 359.893219,338.535675 
	C360.124939,341.994415 358.687714,346.280243 364.714661,346.245422 
	C375.165527,346.185059 385.618744,346.248413 396.068237,346.423462 
	C398.761505,346.468567 403.288605,346.401917 403.772308,347.638550 
	C405.017090,350.821167 404.673828,354.716766 404.469818,358.299225 
	C404.427277,359.045898 402.251038,360.261414 401.056274,360.263580 
	C382.924927,360.296539 364.793274,360.167542 346.661926,360.042084 
	C346.232635,360.039124 345.806061,359.639832 345.256561,359.151367 
z"/>
<path fill="#3773DC" opacity="1.000000" stroke="none" 
	d="
M307.765869,345.171387 
	C306.662781,345.798981 305.143341,347.051392 303.604095,347.076233 
	C292.809082,347.250793 282.008881,347.084442 271.212677,347.217529 
	C266.915680,347.270508 265.229492,345.358673 265.265167,341.211395 
	C265.352356,331.078796 265.381256,320.944061 265.265839,310.812103 
	C265.214203,306.277130 267.256287,304.676147 271.660522,304.756256 
	C281.624512,304.937561 291.593964,304.807709 301.561218,304.819916 
	C308.582153,304.828522 308.856262,305.099854 309.137512,312.454285 
	C307.516754,307.069458 303.667114,305.483643 297.877350,305.823486 
	C289.755676,306.300140 281.583313,306.066681 273.437012,305.910217 
	C268.924774,305.823578 267.009552,308.031281 266.979919,312.219482 
	C266.916473,321.199768 266.835571,330.182373 266.975342,339.160736 
	C267.056274,344.360992 268.855499,346.088379 273.989288,346.011871 
	C285.107727,345.846161 296.223480,345.500305 307.765869,345.171387 
z"/>
<path fill="#0E5AEC" opacity="1.000000" stroke="none" 
	d="
M581.311340,358.944702 
	C581.008911,337.307678 581.044739,315.620239 581.016724,293.467438 
	C581.632629,294.711456 582.884094,296.414001 582.904602,298.131226 
	C583.136841,317.535278 583.201111,336.941589 583.205261,356.347290 
	C583.205444,357.196167 582.191284,358.045258 581.311340,358.944702 
z"/>
<path fill="#3773DC" opacity="1.000000" stroke="none" 
	d="
M255.204132,298.574890 
	C254.962708,301.332001 253.928055,304.221344 253.887146,307.124695 
	C253.709488,319.732330 253.936172,332.345581 253.773636,344.953674 
	C253.705719,350.222412 255.400681,354.328888 260.006531,357.526245 
	C254.487335,357.406921 252.414719,353.300079 252.312683,348.645996 
	C251.989426,333.901306 252.083801,319.143982 252.292801,304.395416 
	C252.319794,302.489716 253.969955,300.606964 255.204132,298.574890 
z"/>
<path fill="#276BE7" opacity="1.000000" stroke="none" 
	d="
M529.593933,357.826965 
	C529.289368,341.526459 529.289368,325.006256 529.289368,308.486084 
	C529.565430,308.367554 529.841492,308.249054 530.117554,308.130524 
	C531.433594,310.147430 532.749634,312.164368 534.132568,314.514587 
	C530.290710,315.416840 530.998718,318.469910 530.977051,321.015656 
	C530.917664,327.997925 531.092102,334.984375 530.916138,341.962708 
	C530.784485,347.182800 530.252319,352.392792 529.593933,357.826965 
z"/>
<path fill="#2A66D6" opacity="1.000000" stroke="none" 
	d="
M175.965240,345.625732 
	C175.290985,344.726837 174.110794,343.361328 174.091354,341.979523 
	C173.942276,331.388214 173.956528,320.792908 174.096848,310.201202 
	C174.116547,308.714355 175.097214,307.240265 175.982285,305.593201 
	C176.219971,318.667969 176.108444,331.909790 175.965240,345.625732 
z"/>
<path fill="#326BDC" opacity="1.000000" stroke="none" 
	d="
M439.164062,358.838196 
	C438.876617,352.634155 438.876617,346.337891 438.876617,339.194550 
	C446.463440,339.194550 453.681549,339.072937 460.886322,339.328064 
	C461.945099,339.365540 462.940552,341.191742 464.047791,342.558960 
	C457.285156,342.282166 450.447815,341.527679 443.591492,341.038971 
	C440.344788,340.807526 440.118500,343.048706 440.128815,345.724548 
	C440.145569,350.064087 439.701233,354.405396 439.164062,358.838196 
z"/>
<path fill="#2A66D6" opacity="1.000000" stroke="none" 
	d="
M177.253128,305.588379 
	C189.148224,305.289490 201.524429,304.833954 213.874832,305.214783 
	C215.670807,305.270203 217.343475,309.324707 219.073196,311.528656 
	C218.783447,311.947052 218.493713,312.365417 218.203964,312.783813 
	C221.477753,312.783813 224.751556,312.783813 228.471588,312.830170 
	C225.685394,313.202637 222.448029,313.776306 219.223404,313.711914 
	C218.184265,313.691101 216.448532,312.102539 216.285278,311.038757 
	C215.610001,306.639069 212.801315,305.965179 209.103119,305.961609 
	C198.643967,305.951508 188.184982,305.797974 177.253128,305.588379 
z"/>
<path fill="#2A66D6" opacity="1.000000" stroke="none" 
	d="
M228.497589,338.928711 
	C225.343170,339.191071 221.894867,339.191071 218.597260,339.191071 
	C216.378708,347.134216 216.378326,347.181366 208.148895,347.115845 
	C197.591263,347.031799 187.034302,346.862427 176.202026,346.394928 
	C186.907654,346.039856 197.888321,345.996735 208.868912,346.012238 
	C212.585327,346.017487 215.928421,345.856445 216.347122,340.850555 
	C216.429413,339.866669 218.243286,338.342255 219.345825,338.261688 
	C222.272995,338.047913 225.247833,338.487000 228.497589,338.928711 
z"/>
<path fill="#1959CC" opacity="1.000000" stroke="none" 
	d="
M425.933350,293.539856 
	C426.208221,314.525635 426.204559,335.792297 425.868835,357.543152 
	C425.358246,358.039276 425.179657,358.051178 425.001038,358.063080 
	C424.991821,338.101166 424.968445,318.139252 425.002899,298.177429 
	C425.005402,296.724823 425.427643,295.272919 425.933350,293.539856 
z"/>
<path fill="#1959CC" opacity="1.000000" stroke="none" 
	d="
M515.957336,293.666901 
	C516.254089,314.592529 516.284241,335.784637 515.935852,357.490723 
	C515.361328,358.042389 515.165405,358.080048 514.969421,358.117706 
	C514.950989,357.928986 514.932556,357.740265 514.932983,356.902191 
	C514.960571,355.520691 514.969238,354.788544 514.977905,354.056396 
	C514.983582,335.795319 514.970154,317.534180 515.025269,299.273254 
	C515.030640,297.492645 515.458862,295.713287 515.957336,293.666901 
z"/>
<path fill="#3773DC" opacity="1.000000" stroke="none" 
	d="
M316.895081,295.708832 
	C313.213898,295.065948 309.473114,293.319946 305.684082,293.208160 
	C293.231689,292.840790 280.761353,293.010162 268.299042,293.111847 
	C265.851715,293.131836 263.409393,293.770386 260.549744,294.175171 
	C261.807892,293.501801 263.473541,292.168610 265.155518,292.147675 
	C279.603241,291.968018 294.057709,291.851166 308.500458,292.163757 
	C311.293152,292.224182 314.043488,294.240265 316.895081,295.708832 
z"/>
<path fill="#326BDC" opacity="1.000000" stroke="none" 
	d="
M485.864716,294.699890 
	C482.612976,294.386108 479.248260,293.184784 475.868561,293.141052 
	C459.899719,292.934387 443.926727,293.044373 427.493286,292.982758 
	C428.962402,292.611694 430.892212,292.037720 432.824677,292.028503 
	C448.077393,291.955750 463.332031,291.889069 478.582245,292.097748 
	C480.979584,292.130554 483.357788,293.561371 485.864716,294.699890 
z"/>
<path fill="#3773DC" opacity="1.000000" stroke="none" 
	d="
M260.312866,358.100189 
	C263.044525,358.152924 265.973297,358.847687 268.908600,358.876465 
	C281.499969,359.000092 294.095886,359.065186 306.683990,358.826904 
	C309.701416,358.769745 312.695251,357.466156 316.045227,356.581085 
	C314.390533,357.594269 312.408905,359.737030 310.387726,359.774994 
	C295.117035,360.061707 279.838348,359.972931 264.563019,359.872345 
	C263.209900,359.863464 261.862854,358.936401 260.312866,358.100189 
z"/>
<path fill="#2A66D6" opacity="1.000000" stroke="none" 
	d="
M221.388824,293.303894 
	C207.708176,293.433258 193.787445,293.072418 179.868332,293.126587 
	C175.844498,293.142212 171.825287,294.349823 167.418015,295.084381 
	C168.767593,294.116058 170.489700,292.196838 172.240753,292.170044 
	C187.624542,291.934601 203.013550,292.020477 218.400757,292.078217 
	C219.318069,292.081635 220.233215,292.660553 221.388824,293.303894 
z"/>
<path fill="#1959CC" opacity="1.000000" stroke="none" 
	d="
M567.963989,293.460571 
	C568.303467,309.424866 568.303467,325.430145 568.303467,342.845367 
	C566.804138,340.887085 566.023804,339.867828 565.208252,338.506226 
	C565.767883,336.390381 566.879456,334.615479 566.874390,332.843719 
	C566.839355,320.540985 566.548096,308.239166 566.434631,295.936157 
	C566.427246,295.128326 567.209534,294.313232 567.963989,293.460571 
z"/>
<path fill="#215FCE" opacity="1.000000" stroke="none" 
	d="
M162.815414,300.252930 
	C162.792007,312.726074 162.361725,325.473541 162.260178,338.223663 
	C162.223602,342.817383 162.977036,347.417419 163.429825,352.446716 
	C162.640259,350.679474 161.094086,348.492126 161.055786,346.278656 
	C160.827087,333.062714 160.878784,319.840057 161.019501,306.621582 
	C161.041168,304.585327 162.008453,302.559174 162.815414,300.252930 
z"/>
<path fill="#215FCE" opacity="1.000000" stroke="none" 
	d="
M170.980820,359.003967 
	C187.081955,358.767059 203.574768,358.774200 220.544846,358.779358 
	C219.800461,359.171204 218.580658,359.900848 217.356918,359.907532 
	C202.981171,359.986053 188.604797,359.969543 174.228760,359.924469 
	C173.275986,359.921509 172.324570,359.483612 170.980820,359.003967 
z"/>
<path fill="#326BDC" opacity="1.000000" stroke="none" 
	d="
M490.180786,332.746277 
	C491.276611,321.486450 492.506134,310.090118 489.007812,298.412659 
	C489.908691,299.178101 491.717987,300.305634 491.743927,301.472839 
	C491.959503,311.179230 491.871460,320.893158 491.776672,330.603851 
	C491.770111,331.274841 490.972687,331.938080 490.180786,332.746277 
z"/>
<path fill="#276BE7" opacity="1.000000" stroke="none" 
	d="
M560.117065,354.212036 
	C562.560974,358.675140 566.693542,359.535004 571.619995,359.019714 
	C574.395569,358.729401 577.226318,358.966278 580.497314,358.946289 
	C580.075134,359.457245 579.215576,360.383209 578.295532,360.447937 
	C574.700378,360.700653 571.084839,360.780060 567.479187,360.736206 
	C563.439270,360.687103 560.354492,359.291748 560.117065,354.212036 
z"/>
<path fill="#3773DC" opacity="1.000000" stroke="none" 
	d="
M320.843842,339.661255 
	C317.270782,339.764954 313.553070,339.512970 309.594330,339.244629 
	C309.255737,341.451691 309.013550,343.030304 308.458984,344.887085 
	C307.901215,337.799225 312.331207,335.731232 320.843842,339.661255 
z"/>
<path fill="#3773DC" opacity="1.000000" stroke="none" 
	d="
M320.992432,312.409912 
	C320.138672,308.076477 319.561066,303.473602 318.897156,298.490051 
	C319.844330,299.712524 321.573029,301.239655 321.758514,302.935608 
	C322.088226,305.949982 321.482849,309.066650 320.992432,312.409912 
z"/>
<path fill="#276BE7" opacity="1.000000" stroke="none" 
	d="
M515.110718,358.417419 
	C515.165405,358.080048 515.361328,358.042389 515.850708,357.945526 
	C520.118469,358.241119 524.092712,358.595947 528.522095,358.931976 
	C524.376099,360.670502 519.780945,362.011902 515.110718,358.417419 
z"/>
<path fill="#326BDC" opacity="1.000000" stroke="none" 
	d="
M478.852478,342.931000 
	C477.969971,342.289368 477.262421,341.313446 476.405762,340.131927 
	C479.532501,339.216919 482.155426,338.449371 485.138245,337.556915 
	C483.341217,339.153564 481.184296,340.875122 478.852478,342.931000 
z"/>
<path fill="#3773DC" opacity="1.000000" stroke="none" 
	d="
M319.201263,353.813232 
	C319.522278,349.580261 320.200378,345.236298 320.932068,340.449310 
	C322.209198,344.748718 323.458099,349.493774 319.201263,353.813232 
z"/>
<path fill="#215FCE" opacity="1.000000" stroke="none" 
	d="
M229.025513,351.747009 
	C228.996582,348.322174 229.258087,344.637238 229.607574,340.601257 
	C231.937973,344.075836 231.524445,347.811707 229.025513,351.747009 
z"/>
<path fill="#0E5AEC" opacity="1.000000" stroke="none" 
	d="
M579.663086,292.599609 
	C576.385315,292.882996 572.756958,293.004181 568.702148,293.251953 
	C569.272156,292.560699 570.298157,291.022949 571.259644,291.062256 
	C573.958191,291.172577 576.630127,291.933228 579.663086,292.599609 
z"/>
<path fill="#326BDC" opacity="1.000000" stroke="none" 
	d="
M427.124023,359.369476 
	C430.657837,359.033966 434.338165,358.980804 438.475189,358.903381 
	C435.044769,359.136719 431.157654,359.394287 427.124023,359.369476 
z"/>
<path fill="#326BDC" opacity="1.000000" stroke="none" 
	d="
M474.684143,358.705811 
	C478.729492,358.582428 482.886780,358.771332 487.498291,359.000977 
	C483.567047,359.033844 479.181549,359.025970 474.684143,358.705811 
z"/>
<path fill="#276BE7" opacity="1.000000" stroke="none" 
	d="
M542.120667,327.226807 
	C543.450500,328.616058 544.744019,330.415131 546.100586,332.546783 
	C542.466980,332.950104 541.941345,330.553497 542.120667,327.226807 
z"/>
<path fill="#326BDC" opacity="1.000000" stroke="none" 
	d="
M470.042542,352.296661 
	C471.482025,353.869446 472.904968,355.814178 474.450012,358.066650 
	C473.056732,356.472443 471.541351,354.570526 470.042542,352.296661 
z"/>
<path fill="#276BE7" opacity="1.000000" stroke="none" 
	d="
M548.118896,336.211121 
	C549.447510,337.619781 550.745483,339.415710 552.105713,341.545105 
	C550.808044,340.118500 549.448120,338.358429 548.118896,336.211121 
z"/>
<path fill="#276BE7" opacity="1.000000" stroke="none" 
	d="
M538.111450,321.236145 
	C539.456909,322.635681 540.763550,324.420227 542.135620,326.538635 
	C540.824890,325.122070 539.448730,323.371613 538.111450,321.236145 
z"/>
<path fill="#276BE7" opacity="1.000000" stroke="none" 
	d="
M556.109619,348.240234 
	C557.429077,349.648560 558.734253,351.432404 560.113770,353.546753 
	C558.823853,352.123383 557.459595,350.369598 556.109619,348.240234 
z"/>
<path fill="#276BE7" opacity="1.000000" stroke="none" 
	d="
M534.141113,315.190247 
	C535.457886,316.609253 536.756836,318.407349 538.116089,320.539734 
	C536.825378,319.105804 535.474304,317.337585 534.141113,315.190247 
z"/>
<path fill="#3773DC" opacity="1.000000" stroke="none" 
	d="
M259.824738,294.153931 
	C258.828217,295.483887 257.455048,296.789398 255.815094,298.264771 
	C256.848236,296.999603 258.148163,295.564514 259.824738,294.153931 
z"/>
<path fill="#2A66D6" opacity="1.000000" stroke="none" 
	d="
M229.387360,301.739502 
	C228.473328,300.621429 227.696381,299.213440 226.832901,297.468994 
	C227.672379,298.571594 228.598404,300.010559 229.387360,301.739502 
z"/>
<path fill="#326BDC" opacity="1.000000" stroke="none" 
	d="
M485.920349,337.465454 
	C486.415955,336.579010 487.267303,335.748077 488.387146,334.790253 
	C487.862457,335.615875 487.069275,336.568420 485.920349,337.465454 
z"/>
<path fill="#326BDC" opacity="1.000000" stroke="none" 
	d="
M464.089050,343.240967 
	C464.851532,343.879028 465.616364,344.875427 466.477295,346.181488 
	C465.746063,345.527191 464.918732,344.563263 464.089050,343.240967 
z"/>
<path fill="#276BE7" opacity="1.000000" stroke="none" 
	d="
M552.132202,342.199280 
	C552.778992,342.664459 553.417053,343.473938 554.103516,344.597168 
	C553.475769,344.121765 552.799622,343.332642 552.132202,342.199280 
z"/>
<path fill="#276BE7" opacity="1.000000" stroke="none" 
	d="
M546.125916,333.198914 
	C546.781372,333.655212 547.432739,334.457764 548.141174,335.573059 
	C547.506104,335.105621 546.813965,334.325378 546.125916,333.198914 
z"/>
<path fill="#276BE7" opacity="1.000000" stroke="none" 
	d="
M554.114014,345.215912 
	C554.767151,345.673431 555.416138,346.475281 556.112915,347.591980 
	C555.477112,347.124664 554.793579,346.342438 554.114014,345.215912 
z"/>
<path fill="#326BDC" opacity="1.000000" stroke="none" 
	d="
M488.372375,358.896973 
	C487.964142,358.374573 487.805786,357.778076 487.546295,356.881958 
	C487.837494,357.329193 488.229858,358.076050 488.372375,358.896973 
z"/>
<path fill="#326BDC" opacity="1.000000" stroke="none" 
	d="
M483.940796,350.747925 
	C483.277069,350.295746 482.617310,349.500641 481.908844,348.391449 
	C482.554993,348.853241 483.249878,349.629120 483.940796,350.747925 
z"/>
<path fill="#326BDC" opacity="1.000000" stroke="none" 
	d="
M468.096741,349.200562 
	C468.742096,349.679565 469.381348,350.505066 470.055634,351.647888 
	C469.424011,351.159149 468.757294,350.353088 468.096741,349.200562 
z"/>
<path fill="#326BDC" opacity="1.000000" stroke="none" 
	d="
M487.421478,356.131470 
	C486.796875,355.677765 486.184814,354.888184 485.495117,353.804382 
	C486.089661,354.271973 486.761841,355.033783 487.421478,356.131470 
z"/>
<path fill="#326BDC" opacity="1.000000" stroke="none" 
	d="
M481.877502,347.802490 
	C481.269867,347.301636 480.634979,346.474670 479.961975,345.331055 
	C480.566010,345.835083 481.208130,346.655731 481.877502,347.802490 
z"/>
<path fill="#215FCE" opacity="1.000000" stroke="none" 
	d="
M167.224518,357.093628 
	C168.117065,357.266754 169.195694,357.769440 170.510147,358.545288 
	C169.634171,358.353424 168.522369,357.888306 167.224518,357.093628 
z"/>
<path fill="#326BDC" opacity="1.000000" stroke="none" 
	d="
M485.420624,353.168030 
	C484.932007,352.859467 484.444061,352.236267 483.925293,351.315369 
	C484.403442,351.629547 484.912354,352.241486 485.420624,353.168030 
z"/>
<path fill="#276BE7" opacity="1.000000" stroke="none" 
	d="
M514.818237,354.273071 
	C514.969238,354.788544 514.960571,355.520691 514.923950,356.617920 
	C514.816833,356.151917 514.737671,355.320831 514.818237,354.273071 
z"/>
<path fill="#3773DC" opacity="1.000000" stroke="none" 
	d="
M318.829315,297.867859 
	C318.293121,297.651947 317.714172,297.120148 317.035400,296.305786 
	C317.552582,296.532776 318.169556,297.042358 318.829315,297.867859 
z"/>
<path fill="#215FCE" opacity="1.000000" stroke="none" 
	d="
M221.147919,358.872314 
	C221.549973,358.421600 222.309921,357.988068 223.399109,357.475586 
	C222.987503,357.894287 222.246674,358.391907 221.147919,358.872314 
z"/>
<path fill="#215FCE" opacity="1.000000" stroke="none" 
	d="
M166.834854,295.116913 
	C166.632858,295.665161 166.112762,296.270660 165.307220,296.985840 
	C165.520096,296.455048 166.018433,295.814606 166.834854,295.116913 
z"/>
<path fill="#326BDC" opacity="1.000000" stroke="none" 
	d="
M466.566406,346.815125 
	C467.066162,347.115845 467.576752,347.733826 468.125488,348.652802 
	C467.634827,348.346649 467.106018,347.739471 466.566406,346.815125 
z"/>
<path fill="#215FCE" opacity="1.000000" stroke="none" 
	d="
M227.813034,353.692993 
	C227.796829,353.292053 228.058090,352.706268 228.577682,351.928406 
	C228.587509,352.326904 228.339005,352.917511 227.813034,353.692993 
z"/>
<path fill="#326BDC" opacity="1.000000" stroke="none" 
	d="
M488.850891,334.598389 
	C488.844238,334.217468 489.100098,333.678833 489.612183,332.982239 
	C489.616730,333.363068 489.365051,333.901886 488.850891,334.598389 
z"/>
<path fill="#215FCE" opacity="1.000000" stroke="none" 
	d="
M163.998566,298.201904 
	C164.006516,298.576477 163.769653,299.149841 163.283295,299.913513 
	C163.273773,299.536102 163.513748,298.968353 163.998566,298.201904 
z"/>
<path fill="#326BDC" opacity="1.000000" stroke="none" 
	d="
M487.485809,296.220276 
	C487.115540,296.183228 486.651764,295.861267 486.066101,295.281677 
	C486.426910,295.327820 486.909637,295.631561 487.485809,296.220276 
z"/>
<path fill="#326BDC" opacity="1.000000" stroke="none" 
	d="
M479.912018,344.762817 
	C479.559265,344.630249 479.157501,344.193848 478.691467,343.452332 
	C479.039124,343.584503 479.451050,344.021759 479.912018,344.762817 
z"/>
<path fill="#326BDC" opacity="1.000000" stroke="none" 
	d="
M488.903015,297.780823 
	C488.540192,297.703644 488.119202,297.332611 487.593445,296.689362 
	C487.940704,296.773743 488.392761,297.130341 488.903015,297.780823 
z"/>
<path fill="#3773DC" opacity="1.000000" stroke="none" 
	d="
M317.737854,355.317749 
	C317.768585,354.937378 318.082947,354.491364 318.652100,353.947571 
	C318.611786,354.317230 318.316650,354.784668 317.737854,355.317749 
z"/>
<path fill="#2A66D6" opacity="1.000000" stroke="none" 
	d="
M226.794373,297.016479 
	C226.591736,297.057007 226.263535,296.842590 225.873718,296.331879 
	C226.097656,296.277557 226.383224,296.519531 226.794373,297.016479 
z"/>
<path fill="#2A66D6" opacity="1.000000" stroke="none" 
	d="
M224.751755,294.965820 
	C224.574600,295.058929 224.139801,294.946045 223.482712,294.568756 
	C223.671661,294.456177 224.082870,294.608032 224.751755,294.965820 
z"/>
<path fill="#215FCE" opacity="1.000000" stroke="none" 
	d="
M163.355133,352.812744 
	C163.555084,352.812042 163.844986,353.096680 164.166489,353.694672 
	C163.947083,353.704712 163.696091,353.401398 163.355133,352.812744 
z"/>
<path fill="#3773DC" opacity="1.000000" stroke="none" 
	d="
M309.156250,313.159332 
	C309.328156,313.120819 309.479187,313.319458 309.674988,313.711334 
	C309.483490,313.800812 309.288727,313.631439 309.156250,313.159332 
z"/>
<path fill="#2A66D6" opacity="1.000000" stroke="none" 
	d="
M222.798248,293.993164 
	C222.643784,294.102020 222.278214,294.025665 221.706848,293.749329 
	C221.863083,293.635559 222.225113,293.721741 222.798248,293.993164 
z"/>
<path fill="#215FCE" opacity="1.000000" stroke="none" 
	d="
M164.161346,354.044189 
	C164.343887,354.014130 164.652954,354.224731 165.025269,354.721802 
	C164.821640,354.767120 164.554749,354.526001 164.161346,354.044189 
z"/>
<path fill="#2A66D6" opacity="1.000000" stroke="none" 
	d="
M225.813309,295.951782 
	C225.616684,296.015137 225.272537,295.836487 224.829437,295.371826 
	C225.042252,295.293793 225.354004,295.501801 225.813309,295.951782 
z"/>
<path fill="#215FCE" opacity="1.000000" stroke="none" 
	d="
M227.010773,354.805420 
	C226.938385,354.621918 227.088364,354.241577 227.519318,353.714478 
	C227.611252,353.914642 227.422195,354.261627 227.010773,354.805420 
z"/>
<path fill="#326BDC" opacity="1.000000" stroke="none" 
	d="
M425.198181,358.223938 
	C425.179657,358.051178 425.358246,358.039276 425.804565,358.007172 
	C426.072266,357.986938 426.324219,358.334442 426.325806,358.548157 
	C426.016663,358.636200 425.705994,358.510498 425.198181,358.223938 
z"/>
<path fill="#215FCE" opacity="1.000000" stroke="none" 
	d="
M223.764923,357.545898 
	C223.778992,357.355957 224.083618,357.091248 224.698502,356.794495 
	C224.690994,356.998688 224.373230,357.234924 223.764923,357.545898 
z"/>
<path fill="#215FCE" opacity="1.000000" stroke="none" 
	d="
M164.873077,297.154083 
	C164.924332,297.330658 164.758087,297.676819 164.313461,298.127869 
	C164.241913,297.929749 164.448746,297.626740 164.873077,297.154083 
z"/>
<path fill="#3773DC" opacity="1.000000" stroke="none" 
	d="
M316.733795,356.284424 
	C316.580048,356.052155 316.723907,355.833618 317.144257,355.597046 
	C317.343475,355.836670 317.213715,356.076385 316.733795,356.284424 
z"/>
<path fill="#215FCE" opacity="1.000000" stroke="none" 
	d="
M224.989990,356.817200 
	C224.961426,356.626801 225.181412,356.302338 225.698975,355.920105 
	C225.743881,356.135925 225.491211,356.409515 224.989990,356.817200 
z"/>
<path fill="#215FCE" opacity="1.000000" stroke="none" 
	d="
M166.154266,356.126526 
	C166.326462,356.078552 166.666962,356.246979 167.116516,356.688110 
	C166.924576,356.754883 166.623566,356.548920 166.154266,356.126526 
z"/>
<path fill="#215FCE" opacity="1.000000" stroke="none" 
	d="
M226.072174,355.836121 
	C226.013718,355.641388 226.192245,355.290222 226.665543,354.847321 
	C226.743256,355.063599 226.526199,355.371643 226.072174,355.836121 
z"/>
<path fill="#215FCE" opacity="1.000000" stroke="none" 
	d="
M165.135086,355.135620 
	C165.313889,355.093201 165.631119,355.274323 166.021545,355.730225 
	C165.820984,355.789703 165.547241,355.574402 165.135086,355.135620 
z"/>
<path fill="#1765F8" opacity="1.000000" stroke="none" 
	d="
M472.549042,327.487915 
	C461.292664,327.491699 450.490448,327.491699 439.365784,327.491699 
	C439.365784,319.958740 439.365784,312.876862 439.365784,304.891937 
	C442.336426,304.891937 445.407532,304.890869 448.478607,304.892151 
	C456.976013,304.895721 465.474121,304.966492 473.970459,304.872986 
	C477.527039,304.833893 479.233215,306.285431 479.157410,309.902130 
	C479.077148,313.732483 478.983246,317.574463 479.186768,321.395844 
	C479.427795,325.921509 477.539642,327.967438 472.549042,327.487915 
z"/>
<path fill="#215FCE" opacity="1.000000" stroke="none" 
	d="
M114.216019,323.817596 
	C115.984451,328.037689 117.752884,332.257751 119.756165,337.038269 
	C110.243843,337.038269 101.308769,337.038269 91.976158,337.038269 
	C92.460533,335.660156 92.880714,334.464691 93.612541,333.095642 
	C93.924187,332.922028 94.066223,333.031464 94.113937,333.420227 
	C94.954491,334.514679 95.732803,335.812927 96.542435,335.832764 
	C103.267181,335.997437 109.997711,335.926086 117.164513,335.926086 
	C115.978165,331.548767 114.958992,327.788239 114.009285,323.975769 
	C114.078758,323.923767 114.216019,323.817596 114.216019,323.817596 
z"/>
<path fill="#215FCE" opacity="1.000000" stroke="none" 
	d="
M93.852859,332.867737 
	C95.865166,327.237762 97.948799,321.662109 100.377869,315.921509 
	C100.723297,315.756531 101.027634,316.016785 100.946930,316.382690 
	C98.599548,322.176239 96.332886,327.603851 94.066223,333.031464 
	C94.066223,333.031464 93.924187,332.922028 93.852859,332.867737 
z"/>
<path fill="#215FCE" opacity="1.000000" stroke="none" 
	d="
M102.754929,309.778320 
	C103.575539,307.365967 104.396149,304.953644 105.475197,301.781586 
	C106.253502,303.325928 106.708687,304.229126 107.105728,305.549744 
	C107.047592,305.967224 106.889618,306.140015 106.595039,306.218018 
	C105.219063,307.540222 104.137665,308.784454 102.980637,309.966431 
	C102.905014,309.904205 102.754936,309.778320 102.754929,309.778320 
z"/>
<path fill="#215FCE" opacity="1.000000" stroke="none" 
	d="
M109.185120,310.841125 
	C109.908211,312.508545 110.631302,314.175995 111.293701,316.307281 
	C111.233009,316.771149 110.956497,317.025024 110.753967,316.741333 
	C110.013618,314.647827 109.475807,312.838013 108.999802,310.981445 
	C109.061615,310.934723 109.185120,310.841125 109.185120,310.841125 
z"/>
<path fill="#215FCE" opacity="1.000000" stroke="none" 
	d="
M100.571854,315.625549 
	C101.040901,313.755768 101.661400,312.016998 102.518417,310.028259 
	C102.754936,309.778320 102.905014,309.904205 102.948090,310.327759 
	C102.336655,312.506500 101.682144,314.261627 101.027634,316.016785 
	C101.027634,316.016785 100.723297,315.756531 100.571854,315.625549 
z"/>
<path fill="#215FCE" opacity="1.000000" stroke="none" 
	d="
M111.371910,316.644897 
	C112.103012,317.982147 112.695213,319.445618 113.243614,321.352905 
	C113.199814,321.796722 112.967033,322.018311 112.768402,321.747925 
	C112.032021,319.993347 111.494255,318.509186 110.956497,317.025024 
	C110.956497,317.025024 111.233009,316.771149 111.371910,316.644897 
z"/>
<path fill="#215FCE" opacity="1.000000" stroke="none" 
	d="
M107.126785,305.880981 
	C107.853363,307.246429 108.500755,308.698120 109.166641,310.495453 
	C109.185120,310.841125 109.061615,310.934723 108.776764,310.728577 
	C107.957817,309.061615 107.423721,307.600830 106.889618,306.140015 
	C106.889618,306.140015 107.047592,305.967224 107.126785,305.880981 
z"/>
<path fill="#215FCE" opacity="1.000000" stroke="none" 
	d="
M113.316589,321.686340 
	C113.685539,322.120392 113.937698,322.664825 114.202942,323.513428 
	C114.216019,323.817596 114.078758,323.923767 113.824051,323.761169 
	C113.368576,323.071808 113.167801,322.545044 112.967026,322.018311 
	C112.967033,322.018311 113.199814,321.796722 113.316589,321.686340 
z"/>
<path fill="#1765F7" opacity="1.000000" stroke="none" 
	d="
M112.768402,321.747925 
	C113.167801,322.545044 113.368576,323.071808 113.754578,323.813141 
	C114.958992,327.788239 115.978165,331.548767 117.164513,335.926086 
	C109.997711,335.926086 103.267181,335.997437 96.542435,335.832764 
	C95.732803,335.812927 94.954491,334.514679 94.113937,333.420227 
	C96.332886,327.603851 98.599548,322.176239 100.946930,316.382690 
	C101.682144,314.261627 102.336655,312.506500 103.023720,310.390015 
	C104.137665,308.784454 105.219063,307.540222 106.595039,306.218018 
	C107.423721,307.600830 107.957817,309.061615 108.714958,310.775299 
	C109.475807,312.838013 110.013618,314.647827 110.753967,316.741333 
	C111.494255,318.509186 112.032021,319.993347 112.768402,321.747925 
z"/>
</svg>