<svg version="1.1" id="Layer_1" xmlns="http://www.w3.org/2000/svg" xmlns:xlink="http://www.w3.org/1999/xlink" x="0px" y="0px"
	 width="100%" viewBox="0 0 400 400" enable-background="new 0 0 400 400" xml:space="preserve">
<path fill="#0696FF" opacity="1.000000" stroke="none" 
	d="
M179.000000,401.000000 
	C119.351822,401.000000 60.203640,401.000000 1.027730,401.000000 
	C1.027730,267.726807 1.027730,134.453629 1.027730,1.090219 
	C134.231476,1.090219 267.463013,1.090219 400.847290,1.090219 
	C400.847290,134.333206 400.847290,267.666565 400.847290,401.000000 
	C327.120361,401.000000 253.310181,401.000000 179.000000,401.000000 
M206.005417,247.008255 
	C206.005417,247.008255 205.959198,246.991898 206.418167,246.787170 
	C206.615997,246.522552 206.813828,246.257935 207.007294,246.009796 
	C207.007294,246.009796 206.990234,246.009567 207.760605,246.076187 
	C209.287064,246.265015 210.813522,246.453842 212.264862,246.672363 
	C212.264862,246.672363 212.263504,246.591583 212.527252,247.133728 
	C213.044006,247.401642 213.560760,247.669571 214.008133,247.995178 
	C214.008133,247.995178 214.060196,247.921600 214.027847,248.679535 
	C213.115936,253.760193 217.567108,251.728134 219.589386,252.748734 
	C236.175110,261.119385 252.606613,259.891479 268.512085,251.058212 
	C271.560852,249.365082 273.525238,245.719315 276.004211,243.005478 
	C276.004211,243.005478 275.971252,242.995987 276.427094,242.786392 
	C276.619263,242.518768 276.811432,242.251144 277.006226,242.006882 
	C277.006226,242.006882 276.983459,242.001053 277.600250,241.869110 
	C278.055359,241.222443 278.510468,240.575775 278.992828,239.986069 
	C278.992828,239.986069 278.931335,239.971649 279.617493,239.828995 
	C280.228943,238.741623 280.840393,237.654251 281.851593,236.756149 
	C281.851593,236.756149 281.466858,236.537720 282.161835,236.417755 
	C282.732025,235.239212 283.302216,234.060669 283.936707,232.940567 
	C283.936707,232.940567 283.849945,232.935486 284.295105,232.502319 
	C284.432251,232.116272 284.569397,231.730225 284.691193,231.110428 
	C284.691193,231.110428 284.890350,230.987152 285.343323,230.593185 
	C285.536865,230.039520 285.730377,229.485840 286.000000,228.999390 
	C286.000000,228.999390 285.925079,228.930237 286.597992,228.737137 
	C291.240601,224.157822 291.326782,217.937332 291.820435,212.208054 
	C293.100555,197.350967 287.311462,184.713425 277.840637,173.673355 
	C276.440002,172.040649 273.671173,171.581665 271.455719,170.578140 
	C271.455719,170.578140 271.434509,170.501373 271.481262,169.779541 
	C270.295502,169.206650 269.109772,168.633774 267.978607,168.003616 
	C267.978607,168.003616 267.952576,168.078278 267.795258,167.453354 
	C264.264252,162.337112 251.167694,158.793594 242.342514,160.840744 
	C241.903900,160.811417 241.465302,160.782089 240.477417,160.429611 
	C239.322037,160.647156 238.166641,160.864685 236.796112,161.483841 
	C236.624557,161.750519 236.388397,161.934143 235.404175,162.158920 
	C231.013809,164.962677 228.285812,168.507767 229.999893,174.005753 
	C229.999893,174.005753 230.095993,174.064850 229.629883,174.568390 
	C229.499252,175.230133 229.368622,175.891891 229.292206,176.792343 
	C229.292206,176.792343 229.116287,176.962524 228.616638,177.502304 
	C227.761139,181.116623 226.166458,184.740005 226.210602,188.343307 
	C226.291794,194.972000 227.337067,201.588852 227.984940,208.255905 
	C228.602264,208.692795 229.660980,209.397568 230.669235,210.168350 
	C231.655930,210.922638 232.591248,211.744186 233.468536,212.597427 
	C233.468536,212.597427 233.569717,212.597626 233.348938,213.335907 
	C234.296021,214.538773 235.243088,215.741638 236.591812,217.180222 
	C236.822159,217.412888 236.942169,217.692856 236.986420,218.700928 
	C237.713837,219.433578 238.441254,220.166229 239.091110,220.915268 
	C239.091110,220.915268 239.124100,220.843170 239.095032,221.582184 
	C240.572311,222.830856 242.049606,224.079529 243.588654,225.355072 
	C243.588654,225.355072 243.585510,225.422363 243.744049,226.040009 
	C244.282425,226.324753 244.820801,226.609482 245.696243,226.964432 
	C245.696243,226.964432 245.925201,227.221588 246.004700,227.894836 
	C247.775375,229.940979 249.546066,231.987122 251.316742,234.033264 
	C251.282135,234.572891 251.247543,235.112518 251.212936,235.652145 
	C246.455841,235.731110 240.913971,237.332428 237.187775,235.411575 
	C234.158951,233.850204 232.141525,234.598511 229.548172,234.611496 
	C229.548172,234.611496 229.501907,234.539932 229.438461,233.839371 
	C226.209335,230.967804 222.980209,228.096237 219.969894,224.993347 
	C219.969894,224.993347 219.758392,225.227905 219.803741,224.435547 
	C218.351395,221.310455 216.899048,218.185364 215.182114,214.409164 
	C215.169647,213.943344 215.157181,213.477524 215.519409,212.304504 
	C217.154953,206.359665 218.937119,200.449646 220.360321,194.454407 
	C221.010971,191.713516 220.954468,188.804749 221.168472,185.215027 
	C221.308533,184.476059 221.448593,183.737106 222.153229,182.695419 
	C224.064240,177.019379 226.139755,171.388824 227.732727,165.624893 
	C228.015259,164.602631 226.289307,163.025253 225.490829,161.704224 
	C223.382828,163.302032 221.274811,164.899826 218.881577,166.821152 
	C218.637070,166.998016 218.364548,167.072983 217.360703,167.036423 
	C216.333023,167.828125 215.305344,168.619827 214.269470,169.323441 
	C214.269470,169.323441 214.348099,169.363968 213.702515,169.358963 
	C213.150085,169.940475 212.597656,170.522003 212.042999,171.033600 
	C212.042999,171.033600 212.112854,171.037994 211.638321,171.241379 
	C211.427277,171.506821 211.216232,171.772263 210.995316,171.995651 
	C210.995316,171.995651 211.033264,172.016220 210.306976,172.024582 
	C208.541794,174.020981 206.776627,176.017380 204.998779,178.000000 
	C204.998779,178.000000 205.015976,178.006073 204.579697,178.269958 
	C204.403458,178.556046 204.227219,178.842133 204.062332,179.057877 
	C204.062332,179.057877 204.131668,179.074265 203.492920,179.235733 
	C203.171127,179.967606 202.849319,180.699463 202.523575,181.490692 
	C202.523575,181.490692 202.466995,181.509003 201.732895,181.475113 
	C200.851593,183.355270 199.970306,185.235428 199.060272,187.051910 
	C199.060272,187.051910 199.128021,187.034943 198.500275,187.373672 
	C193.260910,194.700729 192.610931,203.172699 192.607498,211.745010 
	C192.607056,212.832367 193.854248,213.920212 194.742538,215.630844 
	C194.752762,216.069427 194.763000,216.508026 194.435104,217.661987 
	C194.677353,220.890549 191.685699,225.220062 197.520126,226.609497 
	C197.520126,226.609497 197.488297,226.673492 197.273438,227.370285 
	C196.197098,230.268768 195.120743,233.167236 194.012741,235.998444 
	C194.012741,235.998444 194.064560,236.052246 193.236191,236.009979 
	C191.922028,236.190506 190.561111,236.210480 189.301254,236.577438 
	C180.542770,239.128448 173.675858,235.522995 172.768875,226.497894 
	C171.741592,216.275787 172.112503,205.909164 171.977341,195.604050 
	C171.940460,192.791794 172.053085,189.940689 172.488739,187.168976 
	C172.973541,184.084732 174.684860,182.717392 178.170715,183.377151 
	C181.401566,183.988663 184.787750,183.865768 188.107407,183.904068 
	C195.429764,183.988602 195.366516,183.937622 196.475784,176.338242 
	C196.678925,174.946548 197.636063,173.664902 198.095413,172.660080 
	C197.361526,170.800217 196.045288,169.112534 196.226242,167.604492 
	C196.709442,163.577637 194.390121,162.600021 191.314835,162.260025 
	C189.172928,162.023209 186.993576,162.085556 184.830872,162.083221 
	C172.952805,162.070404 172.950043,162.077942 171.936142,149.935135 
	C171.680984,146.879272 170.873245,144.199265 167.141220,144.132187 
	C161.814850,144.036423 156.481628,143.993546 151.160995,144.190216 
	C150.128113,144.228409 149.139603,145.467407 148.034668,146.024902 
	C148.034668,146.024902 148.152466,146.132751 147.500610,146.271561 
	C147.022644,148.507019 146.138870,150.742310 146.138016,152.977951 
	C146.134598,161.955200 146.235672,161.955460 137.565842,162.379623 
	C136.741623,162.419952 135.880020,162.629517 135.098984,162.463379 
	C130.989563,161.589249 130.176239,164.104782 130.076050,167.291901 
	C129.971710,170.612381 130.356598,173.995987 129.845078,177.244522 
	C129.118759,181.857254 131.040970,183.390747 135.271942,183.154404 
	C136.929886,183.061798 138.622803,182.834534 140.244843,183.061401 
	C142.084793,183.318756 144.941406,183.552414 145.407242,184.634949 
	C146.052795,186.135223 144.881226,188.417389 144.556885,190.022369 
	C145.073532,192.981873 145.941055,195.789886 145.988754,198.611786 
	C146.162857,208.912582 145.869659,219.224350 146.205978,229.517166 
	C146.288086,232.029877 148.096573,234.486176 149.313293,237.156891 
	C149.313293,237.156891 149.288025,237.431992 149.126495,238.225662 
	C149.771088,239.476730 150.415680,240.727783 151.000290,241.986267 
	C151.000290,241.986267 151.038742,241.939636 150.989960,242.739990 
	C151.821609,249.939926 156.575104,253.975067 164.000000,253.996338 
	C164.000000,253.996338 164.108490,253.873398 164.328110,254.553894 
	C174.615158,259.880890 185.002701,259.040894 195.388321,254.940765 
	C196.343216,254.563782 197.001648,253.435822 197.789856,252.766891 
	C197.789856,252.766891 197.680573,252.749954 198.196869,252.635864 
	C198.452286,252.401993 198.707703,252.168121 198.985825,251.999954 
	C198.985825,251.999954 198.937195,251.950104 199.532959,251.883484 
	C200.012146,251.543518 200.491333,251.203568 200.948227,250.933090 
	C200.948227,250.933090 200.879517,250.908524 201.601807,250.932846 
	C202.719986,249.927322 203.838150,248.921814 204.976578,247.978882 
	C204.976578,247.978882 204.911133,247.972305 205.369858,247.750290 
	C205.578278,247.486969 205.786697,247.223648 206.005417,247.008255 
M300.317444,198.339325 
	C300.615814,198.518799 300.914154,198.698273 301.139313,198.876328 
	C301.139313,198.876328 301.151947,198.804184 301.239258,199.525238 
	C303.182312,200.663727 305.125366,201.802216 307.014618,202.991714 
	C307.014618,202.991714 307.036774,202.920975 307.248474,203.582474 
	C308.941132,204.218872 310.633820,204.855270 312.434540,205.478821 
	C312.434540,205.478821 312.466522,205.582870 312.495544,206.284836 
	C320.769867,209.046005 329.044189,211.807159 337.141968,214.730698 
	C337.141968,214.730698 337.280975,214.535217 337.595520,215.129364 
	C338.409180,215.410324 339.222809,215.691284 340.002014,216.002548 
	C340.002014,216.002548 340.019287,215.960373 340.138062,216.669357 
	C341.887665,217.641617 343.637268,218.613876 345.244263,219.743790 
	C345.244263,219.743790 345.418396,219.621857 345.332001,220.363602 
	C345.654449,223.666412 345.976868,226.969223 346.211273,230.154526 
	C346.211273,230.154526 346.338593,230.227661 345.627838,230.385498 
	C342.447449,232.268967 339.267090,234.152435 336.039032,236.102432 
	C336.039032,236.102432 335.970734,236.057281 335.732025,235.971497 
	C335.549469,235.957413 335.399292,236.020493 334.579620,236.500031 
	C334.067627,236.568893 333.555634,236.637741 332.314606,236.359039 
	C323.541229,234.875519 314.559143,234.115738 306.064301,231.666214 
	C299.910156,229.891602 294.602783,227.432678 290.136383,234.452713 
	C290.404846,235.387268 290.809692,236.796539 291.185638,238.136948 
	C291.185638,238.136948 291.259369,238.124985 290.757782,238.464554 
	C290.525299,239.005508 290.292816,239.546448 290.019196,240.025665 
	C290.019196,240.025665 290.090088,240.047546 289.445160,240.254227 
	C289.007996,241.220871 288.570831,242.187515 288.085693,243.071976 
	C288.085693,243.071976 288.172943,243.109894 287.464325,243.312561 
	C284.698944,248.046707 285.790466,249.623886 292.015381,249.996277 
	C292.015381,249.996277 292.016174,249.934860 292.375793,250.543030 
	C296.784393,252.321472 301.057861,255.001968 305.630249,255.686737 
	C314.591095,257.028748 323.778839,258.216522 332.758209,257.650818 
	C340.169037,257.183990 347.432129,254.158768 354.709045,252.085922 
	C355.503418,251.859650 355.956146,250.434052 356.695923,249.683029 
	C356.695923,249.683029 356.609314,249.531296 357.297699,249.628769 
	C358.037170,248.925369 358.776642,248.221954 359.533264,247.455521 
	C359.533264,247.455521 359.598480,247.452011 360.323914,247.573242 
	C364.819580,246.258972 367.184143,243.250946 367.911896,238.717224 
	C367.911896,238.717224 367.473389,238.561249 368.192291,238.447327 
	C372.192139,234.653625 372.575439,230.021271 371.203064,224.197372 
	C371.237823,222.840149 371.272583,221.482941 371.871613,219.765060 
	C373.195190,215.027863 370.988098,209.344131 366.992615,207.014694 
	C366.992615,207.014694 366.956451,207.071533 366.864075,206.457733 
	C366.262604,205.963821 365.661133,205.469910 364.576111,204.752319 
	C364.375122,204.465378 364.174103,204.178452 363.822754,203.379059 
	C363.387543,203.130051 362.952362,202.881058 362.396637,202.631454 
	C362.396637,202.631454 362.372131,202.513458 362.263428,201.961258 
	C361.800232,201.682449 361.337036,201.403656 360.967468,201.034302 
	C360.967468,201.034302 360.901611,201.146667 360.662201,200.504883 
	C359.227783,198.952469 358.069061,196.573044 356.312347,195.987411 
	C347.602875,193.084000 338.735565,190.653961 329.974396,188.007492 
	C329.974396,188.007492 329.962891,188.077332 329.757477,187.429825 
	C326.151550,185.639862 322.545624,183.849899 319.000000,182.000610 
	C319.000000,182.000610 318.940552,182.061569 318.936188,181.328049 
	C316.177887,177.313736 315.117828,173.347763 319.088989,169.383560 
	C319.477692,168.995529 319.383789,168.123993 319.568115,167.500549 
	C319.568115,167.500549 319.578156,167.442215 320.406525,167.567047 
	C324.644958,166.781052 328.870514,165.915588 333.124390,165.224716 
	C343.707275,163.505905 346.394989,165.893372 345.768127,176.313354 
	C345.728638,176.969833 345.398285,177.953156 345.703247,178.226334 
	C347.017029,179.403259 348.450012,181.130524 349.963257,181.264832 
	C353.559326,181.584061 357.234619,180.881882 360.860962,181.024261 
	C364.793427,181.178680 365.985596,179.584473 366.064484,175.744156 
	C366.175964,170.321426 364.510742,164.643646 367.991577,159.375885 
	C366.935822,159.214981 366.134155,159.092804 365.193756,158.179596 
	C365.287506,157.120285 365.381256,156.060989 366.007690,154.755859 
	C367.862640,152.415192 370.159760,149.981705 364.905090,149.088516 
	C364.905090,149.088516 364.882111,149.181656 364.537537,148.539841 
	C360.461334,147.555267 356.412567,146.433517 352.303894,145.611115 
	C338.304535,142.808914 324.425476,142.679276 310.946198,148.153900 
	C309.775665,148.629318 308.999786,150.076477 308.019897,151.002609 
	C308.019897,151.002609 308.071167,151.054153 307.313293,150.997437 
	C305.909454,152.045197 304.505646,153.092941 303.040375,154.054794 
	C303.040375,154.054794 303.132751,154.105988 302.506958,154.199280 
	C302.010559,154.815155 301.514160,155.431030 300.998444,155.998795 
	C300.998444,155.998795 301.046631,156.017853 300.476501,156.161667 
	C300.189087,156.630768 299.901642,157.099854 299.601501,157.668762 
	C299.601501,157.668762 299.501770,157.682068 298.816376,157.583206 
	C298.253113,158.439209 297.689880,159.295212 297.079346,160.074692 
	C297.079346,160.074692 297.164642,160.103256 296.474701,160.304184 
	C296.042969,161.330139 295.611206,162.356110 295.164062,163.700928 
	C295.164062,163.700928 294.960266,163.946655 294.269226,164.162460 
	C293.855133,164.434250 293.232971,164.610336 293.057434,164.991882 
	C288.962189,173.893661 290.076263,182.730423 293.620667,191.458450 
	C293.912018,192.175995 295.196259,192.490356 295.997559,193.000381 
	C295.997559,193.000381 296.011383,192.981232 296.018555,193.662018 
	C296.721100,194.413818 297.423645,195.165619 298.059814,195.939346 
	C298.059814,195.939346 298.055145,195.869614 298.280426,196.338165 
	C298.553680,196.543976 298.826904,196.749802 299.033447,196.966202 
	C299.033447,196.966202 299.044800,196.899628 299.284760,197.355728 
	C299.561951,197.551468 299.839172,197.747208 300.047516,197.952728 
	C300.047516,197.952728 300.049225,197.883209 300.317444,198.339325 
M49.192413,214.578964 
	C47.082508,220.534882 44.904003,226.467606 42.879478,232.452408 
	C40.140671,240.548721 40.191059,240.561356 32.051788,241.144135 
	C31.771009,241.164230 31.510281,241.464340 30.804188,241.907730 
	C30.804188,244.937729 30.570141,248.262665 30.928019,251.522614 
	C31.057570,252.702728 32.586903,254.663971 33.506546,254.680786 
	C45.277428,254.895981 57.053585,254.822800 69.170876,254.822800 
	C69.170876,250.027328 69.170876,245.780975 69.170876,241.277054 
	C66.452789,241.081589 63.878029,240.896439 60.808952,240.675720 
	C62.272331,236.432480 63.375488,232.427750 65.095497,228.708252 
	C65.654861,227.498642 67.814041,226.361206 69.261681,226.335678 
	C80.748611,226.133102 92.241119,226.143967 103.729782,226.275787 
	C105.151749,226.292099 107.369270,227.039856 107.833282,228.071533 
	C109.623993,232.053009 110.852814,236.287201 112.400612,240.742661 
	C109.274612,240.940231 106.991043,241.084564 104.185501,241.261887 
	C104.185501,244.954269 103.953575,248.435120 104.320473,251.851685 
	C104.437370,252.940186 106.130844,254.707367 107.127174,254.724152 
	C118.947174,254.923294 130.772919,254.920273 142.593262,254.729813 
	C143.680115,254.712296 145.558640,253.128342 145.665390,252.122711 
	C146.043777,248.558121 145.812927,244.928879 145.812927,240.585617 
	C137.597733,243.290955 136.087753,238.270309 134.147842,232.658936 
	C124.695366,205.316818 114.839638,178.114273 105.325562,150.793060 
	C104.096436,147.263428 102.617760,145.819046 98.691551,145.914093 
	C87.041756,146.196060 75.380402,146.000153 63.723568,145.991669 
	C61.644108,145.990158 59.564648,145.991455 57.551525,145.991455 
	C57.551525,151.047424 57.551525,155.273911 57.551525,159.613922 
	C61.209473,159.806808 64.444527,159.977386 68.409218,160.186432 
	C61.954155,178.490936 55.719845,196.169434 49.192413,214.578964 
z"/>
<path fill="#F7FDFD" opacity="1.000000" stroke="none" 
	d="
M149.288025,237.431992 
	C149.288025,237.431992 149.313293,237.156891 149.230011,236.629639 
	C148.611603,218.068802 148.076462,200.035217 147.523315,181.394409 
	C143.580856,181.394409 139.618240,181.619064 135.707169,181.268600 
	C134.395569,181.151077 132.230286,179.651703 132.144272,178.640289 
	C131.756516,174.080627 131.975006,169.469406 131.975006,164.180862 
	C137.610886,164.180862 142.650757,164.180862 148.152466,164.180862 
	C148.152466,157.697296 148.152466,151.915024 148.152466,146.132751 
	C148.152466,146.132751 148.034668,146.024902 148.541763,146.079193 
	C155.956345,146.133499 162.863831,146.133499 170.104980,146.133499 
	C170.104980,151.023911 170.372253,155.189331 170.029495,159.303955 
	C169.689514,163.385132 171.356720,164.473465 175.144058,164.341553 
	C181.565140,164.117889 187.999634,164.280075 194.648102,164.280075 
	C194.648102,170.160416 194.648102,175.392715 194.648102,181.361130 
	C187.612427,181.361130 180.853470,181.386047 174.094864,181.347946 
	C171.649979,181.334167 170.028000,181.746643 170.058899,184.873825 
	C170.187057,197.840561 169.767181,210.820923 170.204453,223.774124 
	C170.670364,237.575638 182.103455,243.257950 194.064560,236.052246 
	C194.064560,236.052246 194.012741,235.998444 194.370148,235.981171 
	C196.499115,234.588547 198.270676,233.213196 200.127899,231.771347 
	C199.121216,229.827148 198.304749,228.250320 197.488297,226.673492 
	C197.488297,226.673492 197.520126,226.609497 197.407608,226.218811 
	C196.454468,222.867630 195.613831,219.907120 194.773224,216.946609 
	C194.763000,216.508026 194.752762,216.069427 194.690430,214.905426 
	C193.368805,204.674149 195.664093,195.757904 199.128021,187.034943 
	C199.128021,187.034943 199.060272,187.051910 199.343567,186.885773 
	C200.573578,184.982742 201.520279,183.245880 202.466995,181.509003 
	C202.466995,181.509003 202.523575,181.490692 202.768005,181.295013 
	C203.385513,180.424332 203.758591,179.749298 204.131668,179.074265 
	C204.131668,179.074265 204.062332,179.057877 204.321991,179.017700 
	C204.726440,178.653687 204.871201,178.329880 205.015961,178.006073 
	C205.015976,178.006073 204.998779,178.000000 205.304993,177.870972 
	C207.418579,175.833389 209.225922,173.924805 211.033264,172.016220 
	C211.033264,172.016220 210.995316,171.995651 211.261795,171.951294 
	C211.723129,171.617294 211.917984,171.327637 212.112854,171.037994 
	C212.112854,171.037994 212.042999,171.033600 212.341431,171.015137 
	C213.209274,170.452454 213.778687,169.908203 214.348099,169.363968 
	C214.348099,169.363968 214.269470,169.323441 214.595245,169.303070 
	C215.968674,168.537140 217.016327,167.791580 218.063995,167.046021 
	C218.364548,167.072983 218.637070,166.998016 219.385834,166.563324 
	C221.769348,165.532654 223.648605,164.759796 225.801422,163.874435 
	C224.293274,170.720551 222.940964,176.859344 221.588654,182.998138 
	C221.448593,183.737106 221.308533,184.476059 221.071594,185.973282 
	C220.366943,188.731232 220.102325,190.927521 219.089691,192.695312 
	C215.444733,199.058350 213.977844,205.756989 215.144714,213.011703 
	C215.157181,213.477524 215.169647,213.943344 215.282166,215.082581 
	C216.840927,218.913284 218.299667,222.070602 219.758392,225.227905 
	C219.758392,225.227905 219.969894,224.993347 219.936859,225.440094 
	C223.103180,228.771194 226.302536,231.655563 229.501907,234.539932 
	C229.501907,234.539932 229.548172,234.611496 229.848251,234.831589 
	C238.967010,239.637848 247.502319,239.032791 256.525909,233.758026 
	C252.602905,231.339081 249.264053,229.280334 245.925201,227.221588 
	C245.925201,227.221588 245.696243,226.964432 245.402969,226.653961 
	C244.601639,226.036453 244.093567,225.729416 243.585510,225.422363 
	C243.585510,225.422363 243.588654,225.355072 243.438217,225.052063 
	C241.899887,223.447098 240.511993,222.145126 239.124100,220.843170 
	C239.124100,220.843170 239.091110,220.915268 239.064575,220.599396 
	C238.342636,219.529053 237.647263,218.774582 236.951874,218.020111 
	C236.942169,217.692856 236.822159,217.412888 236.323395,216.742279 
	C235.226547,215.068771 234.398132,213.833206 233.569717,212.597626 
	C233.569717,212.597626 233.468536,212.597427 233.416290,212.213257 
	C227.466873,200.752853 227.038498,189.010345 229.116287,176.962524 
	C229.116287,176.962524 229.292206,176.792343 229.497467,176.419189 
	C229.833817,175.385635 229.964905,174.725235 230.095978,174.064850 
	C230.095993,174.064850 229.999893,174.005753 230.293915,173.791779 
	C232.421188,169.730103 234.254410,165.882401 236.087646,162.034698 
	C236.388397,161.934143 236.624557,161.750519 237.308746,161.278839 
	C238.889801,160.966797 239.958252,160.859772 241.026688,160.752747 
	C241.465302,160.782089 241.903900,160.811417 243.085907,160.907776 
	C252.554901,161.018051 260.344940,164.238419 267.952576,168.078278 
	C267.952576,168.078278 267.978607,168.003616 268.121979,168.294693 
	C269.321747,169.224304 270.378113,169.862839 271.434509,170.501373 
	C271.434509,170.501373 271.455719,170.578140 271.654510,170.860565 
	C276.497955,177.143799 282.143707,182.626602 285.573944,189.255798 
	C292.230286,202.119705 290.976440,215.650970 285.925079,228.930237 
	C285.925079,228.930237 286.000000,228.999390 285.713257,229.140900 
	C285.247803,229.850647 285.069092,230.418900 284.890381,230.987152 
	C284.890350,230.987152 284.691193,231.110428 284.447021,231.422028 
	C284.085205,232.134247 283.967560,232.534866 283.849945,232.935486 
	C283.849945,232.935486 283.936707,232.940567 283.631348,233.075897 
	C282.706299,234.320068 282.086578,235.428894 281.466858,236.537720 
	C281.466858,236.537720 281.851593,236.756149 281.399231,236.836975 
	C280.275055,237.935760 279.603180,238.953705 278.931335,239.971649 
	C278.931335,239.971649 278.992828,239.986069 278.705566,240.075623 
	C277.940033,240.777145 277.461761,241.389114 276.983459,242.001068 
	C276.983459,242.001053 277.006226,242.006882 276.745300,242.055984 
	C276.313354,242.402054 276.142303,242.699020 275.971252,242.995987 
	C275.971252,242.995987 276.004211,243.005478 275.678406,243.104813 
	C263.497864,254.094116 249.580658,258.946503 233.747910,255.661514 
	C226.942978,254.249619 220.608444,250.570602 214.060196,247.921600 
	C214.060196,247.921600 214.008133,247.995178 213.906647,247.703949 
	C213.291275,247.139023 212.777390,246.865311 212.263504,246.591583 
	C212.263504,246.591583 212.264862,246.672363 212.148834,246.372253 
	C210.370392,244.565887 208.711990,242.735809 206.990234,246.009567 
	C206.990234,246.009567 207.007294,246.009796 206.749588,246.059189 
	C206.314316,246.403015 206.136749,246.697449 205.959198,246.991898 
	C205.959198,246.991898 206.005417,247.008255 205.736420,247.047943 
	C205.281982,247.382523 205.096558,247.677414 204.911133,247.972305 
	C204.911133,247.972305 204.976578,247.978882 204.654510,248.030853 
	C203.181458,249.024704 202.030487,249.966614 200.879517,250.908524 
	C200.879517,250.908524 200.948227,250.933090 200.654694,250.921448 
	C199.886490,251.256561 199.411835,251.603333 198.937195,251.950104 
	C198.937195,251.950104 198.985825,251.999954 198.703766,251.996338 
	C198.174652,252.245132 197.927612,252.497543 197.680573,252.749954 
	C197.680573,252.749954 197.789856,252.766891 197.411072,252.763519 
	C186.204041,257.459259 175.216766,257.455658 164.108490,253.873398 
	C164.108490,253.873398 164.000000,253.996338 163.843781,253.671051 
	C159.471298,249.543716 155.255020,245.741684 151.038742,241.939636 
	C151.038742,241.939636 151.000290,241.986267 151.014236,241.628693 
	C150.448120,239.991409 149.868073,238.711700 149.288025,237.431992 
M251.101517,202.216919 
	C254.678284,209.485031 259.916168,214.813095 267.883820,217.254181 
	C273.191559,202.232727 264.013275,184.285339 249.644928,181.233826 
	C247.321991,188.157623 248.085159,194.870209 251.101517,202.216919 
z"/>
<path fill="#F7FDFE" opacity="1.000000" stroke="none" 
	d="
M49.338974,214.213455 
	C55.719845,196.169434 61.954155,178.490936 68.409218,160.186432 
	C64.444527,159.977386 61.209473,159.806808 57.551525,159.613922 
	C57.551525,155.273911 57.551525,151.047424 57.551525,145.991455 
	C59.564648,145.991455 61.644108,145.990158 63.723568,145.991669 
	C75.380402,146.000153 87.041756,146.196060 98.691551,145.914093 
	C102.617760,145.819046 104.096436,147.263428 105.325562,150.793060 
	C114.839638,178.114273 124.695366,205.316818 134.147842,232.658936 
	C136.087753,238.270309 137.597733,243.290955 145.812927,240.585617 
	C145.812927,244.928879 146.043777,248.558121 145.665390,252.122711 
	C145.558640,253.128342 143.680115,254.712296 142.593262,254.729813 
	C130.772919,254.920273 118.947174,254.923294 107.127174,254.724152 
	C106.130844,254.707367 104.437370,252.940186 104.320473,251.851685 
	C103.953575,248.435120 104.185501,244.954269 104.185501,241.261887 
	C106.991043,241.084564 109.274612,240.940231 112.400612,240.742661 
	C110.852814,236.287201 109.623993,232.053009 107.833282,228.071533 
	C107.369270,227.039856 105.151749,226.292099 103.729782,226.275787 
	C92.241119,226.143967 80.748611,226.133102 69.261681,226.335678 
	C67.814041,226.361206 65.654861,227.498642 65.095497,228.708252 
	C63.375488,232.427750 62.272331,236.432480 60.808952,240.675720 
	C63.878029,240.896439 66.452789,241.081589 69.170876,241.277054 
	C69.170876,245.780975 69.170876,250.027328 69.170876,254.822800 
	C57.053585,254.822800 45.277428,254.895981 33.506546,254.680786 
	C32.586903,254.663971 31.057570,252.702728 30.928019,251.522614 
	C30.570141,248.262665 30.804188,244.937729 30.804188,241.907730 
	C31.510281,241.464340 31.771009,241.164230 32.051788,241.144135 
	C40.191059,240.561356 40.140671,240.548721 42.879478,232.452408 
	C44.904003,226.467606 47.082508,220.534882 49.338974,214.213455 
M100.067314,205.524643 
	C95.705910,193.311722 91.344513,181.098801 86.527779,167.610855 
	C81.401070,182.169098 76.762451,195.341324 71.905151,209.134537 
	C81.414536,209.134537 90.028809,209.188568 98.638420,209.012924 
	C99.212448,209.001205 99.750923,207.246536 100.067314,205.524643 
z"/>
<path fill="#F7FDFD" opacity="1.000000" stroke="none" 
	d="
M363.973083,203.891525 
	C364.174103,204.178452 364.375122,204.465378 364.914062,205.139801 
	C365.820129,206.042023 366.388306,206.556778 366.956451,207.071533 
	C366.956451,207.071533 366.992615,207.014694 367.040405,207.379303 
	C368.494537,211.871170 369.900940,215.998444 371.307343,220.125717 
	C371.272583,221.482941 371.237823,222.840149 371.132324,224.998169 
	C369.865540,230.053070 368.669434,234.307159 367.473389,238.561249 
	C367.473389,238.561249 367.911896,238.717224 367.446289,238.865906 
	C364.519958,241.827057 362.059235,244.639526 359.598480,247.452011 
	C359.598480,247.452011 359.533264,247.455521 359.236328,247.565735 
	C358.162689,248.294388 357.386017,248.912842 356.609314,249.531311 
	C356.609314,249.531296 356.695923,249.683029 356.287170,249.715439 
	C348.103271,251.940369 340.451752,255.094452 332.525757,256.113129 
	C318.613281,257.901245 305.117615,254.671112 292.016174,249.934860 
	C292.016174,249.934860 292.015381,249.996277 291.824341,249.709152 
	C288.721619,248.281845 285.741028,247.179443 288.172943,243.109894 
	C288.172943,243.109894 288.085693,243.071976 288.392822,242.966522 
	C289.163330,241.923218 289.626709,240.985382 290.090088,240.047546 
	C290.090088,240.047546 290.019196,240.025665 290.300842,239.901154 
	C290.808105,239.226089 291.033752,238.675537 291.259369,238.124985 
	C291.259369,238.124985 291.185638,238.136948 291.479736,237.980194 
	C293.278137,235.302246 294.782501,232.781082 296.270020,230.288147 
	C308.445374,234.385834 320.255646,238.399109 333.043640,236.706589 
	C333.555634,236.637741 334.067627,236.568893 335.043884,236.418732 
	C335.735291,236.364838 335.889496,236.271454 335.970734,236.057281 
	C335.970734,236.057281 336.039032,236.102432 336.433594,236.106232 
	C339.998291,234.149246 343.168427,232.188446 346.338593,230.227661 
	C346.338593,230.227661 346.211273,230.154526 346.563660,229.987762 
	C348.929199,226.052383 348.469208,222.646896 345.418396,219.621857 
	C345.418396,219.621857 345.244263,219.743790 345.192444,219.358673 
	C343.433533,217.969147 341.726410,216.964752 340.019287,215.960358 
	C340.019287,215.960373 340.002014,216.002548 339.837830,215.719269 
	C338.876099,215.135742 338.078552,214.835480 337.280975,214.535217 
	C337.280975,214.535217 337.141968,214.730698 336.977661,214.408875 
	C328.697754,211.252335 320.582123,208.417603 312.466522,205.582870 
	C312.466522,205.582870 312.434540,205.478821 312.157593,205.247681 
	C310.266022,204.318008 308.651398,203.619492 307.036774,202.920975 
	C307.036774,202.920975 307.014618,202.991714 306.863831,202.688644 
	C304.859314,201.191772 303.005646,199.997971 301.151947,198.804184 
	C301.151947,198.804184 301.139313,198.876328 301.081726,198.613388 
	C300.699188,198.194702 300.374207,198.038956 300.049225,197.883209 
	C300.049225,197.883209 300.047516,197.952728 300.018738,197.676544 
	C299.674896,197.233444 299.359833,197.066544 299.044800,196.899628 
	C299.044800,196.899628 299.033447,196.966202 299.008606,196.687134 
	C298.674194,196.228592 298.364685,196.049103 298.055145,195.869614 
	C298.055145,195.869614 298.059814,195.939346 298.022675,195.623550 
	C297.327484,194.532242 296.669434,193.756729 296.011383,192.981232 
	C296.011383,192.981232 295.997559,193.000381 295.943787,192.629364 
	C290.893951,182.975006 291.187469,173.517960 294.960266,163.946655 
	C294.960266,163.946655 295.164062,163.700928 295.441406,163.354614 
	C296.200714,162.039963 296.682678,161.071609 297.164642,160.103256 
	C297.164642,160.103256 297.079346,160.074692 297.382690,160.018143 
	C298.291260,159.201752 298.896515,158.441910 299.501770,157.682068 
	C299.501770,157.682068 299.601501,157.668762 299.857300,157.496902 
	C300.424286,156.889313 300.735474,156.453583 301.046631,156.017853 
	C301.046631,156.017853 300.998444,155.998795 301.294006,155.933777 
	C302.103943,155.281158 302.618347,154.693573 303.132751,154.105988 
	C303.132751,154.105988 303.040375,154.054794 303.397247,154.033020 
	C305.193146,153.025543 306.632141,152.039841 308.071167,151.054153 
	C308.071167,151.054153 308.019897,151.002609 308.398560,150.999619 
	C318.927948,146.139282 329.679657,144.508179 340.770050,145.664886 
	C348.841858,146.506775 356.847168,147.986374 364.882111,149.181656 
	C364.882111,149.181656 364.905090,149.088516 364.976715,149.528656 
	C365.190552,151.646423 365.332794,153.324051 365.475006,155.001678 
	C365.381256,156.060989 365.287506,157.120285 365.149048,159.027588 
	C364.878998,165.183685 364.804718,170.505753 364.316132,175.789490 
	C364.202118,177.022430 362.750702,179.059433 361.796570,179.129990 
	C357.095856,179.477615 352.355438,179.288010 347.069092,179.288010 
	C347.069092,173.562302 347.069092,168.988174 347.069092,164.561203 
	C335.870453,162.130569 325.990417,163.237686 319.578156,167.442215 
	C319.578156,167.442215 319.568115,167.500549 319.208069,167.602783 
	C313.085693,173.171753 313.111877,177.238144 318.940552,182.061569 
	C318.940552,182.061569 319.000000,182.000610 319.094452,182.347488 
	C322.780243,184.488693 326.371552,186.283005 329.962891,188.077332 
	C329.962891,188.077332 329.974396,188.007492 330.193298,188.292465 
	C340.575348,192.767181 350.738464,196.956924 360.901611,201.146667 
	C360.901611,201.146667 360.967468,201.034302 361.016663,201.330750 
	C361.501312,201.922607 361.936707,202.218033 362.372131,202.513458 
	C362.372131,202.513458 362.396637,202.631454 362.573792,202.855438 
	C363.158325,203.350113 363.565704,203.620819 363.973083,203.891525 
z"/>
<path fill="#2B98E6" opacity="1.000000" stroke="none" 
	d="
M193.650375,236.031113 
	C182.103455,243.257950 170.670364,237.575638 170.204453,223.774124 
	C169.767181,210.820923 170.187057,197.840561 170.058899,184.873825 
	C170.028000,181.746643 171.649979,181.334167 174.094864,181.347946 
	C180.853470,181.386047 187.612427,181.361130 194.648102,181.361130 
	C194.648102,175.392715 194.648102,170.160416 194.648102,164.280075 
	C187.999634,164.280075 181.565140,164.117889 175.144058,164.341553 
	C171.356720,164.473465 169.689514,163.385132 170.029495,159.303955 
	C170.372253,155.189331 170.104980,151.023911 170.104980,146.133499 
	C162.863831,146.133499 155.956345,146.133499 148.589752,146.143005 
	C149.139603,145.467407 150.128113,144.228409 151.160995,144.190216 
	C156.481628,143.993546 161.814850,144.036423 167.141220,144.132187 
	C170.873245,144.199265 171.680984,146.879272 171.936142,149.935135 
	C172.950043,162.077942 172.952805,162.070404 184.830872,162.083221 
	C186.993576,162.085556 189.172928,162.023209 191.314835,162.260025 
	C194.390121,162.600021 196.709442,163.577637 196.226242,167.604492 
	C196.045288,169.112534 197.361526,170.800217 198.095413,172.660080 
	C197.636063,173.664902 196.678925,174.946548 196.475784,176.338242 
	C195.366516,183.937622 195.429764,183.988602 188.107407,183.904068 
	C184.787750,183.865768 181.401566,183.988663 178.170715,183.377151 
	C174.684860,182.717392 172.973541,184.084732 172.488739,187.168976 
	C172.053085,189.940689 171.940460,192.791794 171.977341,195.604050 
	C172.112503,205.909164 171.741592,216.275787 172.768875,226.497894 
	C173.675858,235.522995 180.542770,239.128448 189.301254,236.577438 
	C190.561111,236.210480 191.922028,236.190506 193.650375,236.031113 
z"/>
<path fill="#2B98E6" opacity="1.000000" stroke="none" 
	d="
M147.826538,146.202148 
	C148.152466,151.915024 148.152466,157.697296 148.152466,164.180862 
	C142.650757,164.180862 137.610886,164.180862 131.975006,164.180862 
	C131.975006,169.469406 131.756516,174.080627 132.144272,178.640289 
	C132.230286,179.651703 134.395569,181.151077 135.707169,181.268600 
	C139.618240,181.619064 143.580856,181.394409 147.523315,181.394409 
	C148.076462,200.035217 148.611603,218.068802 149.129028,236.535400 
	C148.096573,234.486176 146.288086,232.029877 146.205978,229.517166 
	C145.869659,219.224350 146.162857,208.912582 145.988754,198.611786 
	C145.941055,195.789886 145.073532,192.981873 144.556885,190.022369 
	C144.881226,188.417389 146.052795,186.135223 145.407242,184.634949 
	C144.941406,183.552414 142.084793,183.318756 140.244843,183.061401 
	C138.622803,182.834534 136.929886,183.061798 135.271942,183.154404 
	C131.040970,183.390747 129.118759,181.857254 129.845078,177.244522 
	C130.356598,173.995987 129.971710,170.612381 130.076050,167.291901 
	C130.176239,164.104782 130.989563,161.589249 135.098984,162.463379 
	C135.880020,162.629517 136.741623,162.419952 137.565842,162.379623 
	C146.235672,161.955460 146.134598,161.955200 146.138016,152.977951 
	C146.138870,150.742310 147.022644,148.507019 147.826538,146.202148 
z"/>
<path fill="#2E9BE8" opacity="1.000000" stroke="none" 
	d="
M319.992340,167.504639 
	C325.990417,163.237686 335.870453,162.130569 347.069092,164.561203 
	C347.069092,168.988174 347.069092,173.562302 347.069092,179.288010 
	C352.355438,179.288010 357.095856,179.477615 361.796570,179.129990 
	C362.750702,179.059433 364.202118,177.022430 364.316132,175.789490 
	C364.804718,170.505753 364.878998,165.183685 365.218384,159.423111 
	C366.134155,159.092804 366.935822,159.214981 367.991577,159.375885 
	C364.510742,164.643646 366.175964,170.321426 366.064484,175.744156 
	C365.985596,179.584473 364.793427,181.178680 360.860962,181.024261 
	C357.234619,180.881882 353.559326,181.584061 349.963257,181.264832 
	C348.450012,181.130524 347.017029,179.403259 345.703247,178.226334 
	C345.398285,177.953156 345.728638,176.969833 345.768127,176.313354 
	C346.394989,165.893372 343.707275,163.505905 333.124390,165.224716 
	C328.870514,165.915588 324.644958,166.781052 319.992340,167.504639 
z"/>
<path fill="#2B98E6" opacity="1.000000" stroke="none" 
	d="
M214.044022,248.300568 
	C220.608444,250.570602 226.942978,254.249619 233.747910,255.661514 
	C249.580658,258.946503 263.497864,254.094116 275.671265,243.089264 
	C273.525238,245.719315 271.560852,249.365082 268.512085,251.058212 
	C252.606613,259.891479 236.175110,261.119385 219.589386,252.748734 
	C217.567108,251.728134 213.115936,253.760193 214.044022,248.300568 
z"/>
<path fill="#2B98E6" opacity="1.000000" stroke="none" 
	d="
M286.261536,228.833679 
	C290.976440,215.650970 292.230286,202.119705 285.573944,189.255798 
	C282.143707,182.626602 276.497955,177.143799 271.694336,170.861328 
	C273.671173,171.581665 276.440002,172.040649 277.840637,173.673355 
	C287.311462,184.713425 293.100555,197.350967 291.820435,212.208054 
	C291.326782,217.937332 291.240601,224.157822 286.261536,228.833679 
z"/>
<path fill="#2E9BE8" opacity="1.000000" stroke="none" 
	d="
M292.195984,250.238953 
	C305.117615,254.671112 318.613281,257.901245 332.525757,256.113129 
	C340.451752,255.094452 348.103271,251.940369 356.222870,249.656296 
	C355.956146,250.434052 355.503418,251.859650 354.709045,252.085922 
	C347.432129,254.158768 340.169037,257.183990 332.758209,257.650818 
	C323.778839,258.216522 314.591095,257.028748 305.630249,255.686737 
	C301.057861,255.001968 296.784393,252.321472 292.195984,250.238953 
z"/>
<path fill="#2E9BE8" opacity="1.000000" stroke="none" 
	d="
M364.709839,148.860748 
	C356.847168,147.986374 348.841858,146.506775 340.770050,145.664886 
	C329.679657,144.508179 318.927948,146.139282 308.408905,151.034439 
	C308.999786,150.076477 309.775665,148.629318 310.946198,148.153900 
	C324.425476,142.679276 338.304535,142.808914 352.303894,145.611115 
	C356.412567,146.433517 360.461334,147.555267 364.709839,148.860748 
z"/>
<path fill="#2E9BE8" opacity="1.000000" stroke="none" 
	d="
M332.679138,236.532806 
	C320.255646,238.399109 308.445374,234.385834 296.270020,230.288147 
	C294.782501,232.781082 293.278137,235.302246 291.494141,238.014618 
	C290.809692,236.796539 290.404846,235.387268 290.136383,234.452713 
	C294.602783,227.432678 299.910156,229.891602 306.064301,231.666214 
	C314.559143,234.115738 323.541229,234.875519 332.679138,236.532806 
z"/>
<path fill="#2B98E6" opacity="1.000000" stroke="none" 
	d="
M228.866455,177.232422 
	C227.038498,189.010345 227.466873,200.752853 233.456573,212.182648 
	C232.591248,211.744186 231.655930,210.922638 230.669235,210.168350 
	C229.660980,209.397568 228.602264,208.692795 227.984940,208.255905 
	C227.337067,201.588852 226.291794,194.972000 226.210602,188.343307 
	C226.166458,184.740005 227.761139,181.116623 228.866455,177.232422 
z"/>
<path fill="#2B98E6" opacity="1.000000" stroke="none" 
	d="
M245.964951,227.558212 
	C249.264053,229.280334 252.602905,231.339081 256.525909,233.758026 
	C247.502319,239.032791 238.967010,239.637848 229.888611,234.817932 
	C232.141525,234.598511 234.158951,233.850204 237.187775,235.411575 
	C240.913971,237.332428 246.455841,235.731110 251.212936,235.652145 
	C251.247543,235.112518 251.282135,234.572891 251.316742,234.033264 
	C249.546066,231.987122 247.775375,229.940979 245.964951,227.558212 
z"/>
<path fill="#2B98E6" opacity="1.000000" stroke="none" 
	d="
M221.870941,182.846771 
	C222.940964,176.859344 224.293274,170.720551 225.801422,163.874435 
	C223.648605,164.759796 221.769348,165.532654 219.528442,166.401581 
	C221.274811,164.899826 223.382828,163.302032 225.490829,161.704224 
	C226.289307,163.025253 228.015259,164.602631 227.732727,165.624893 
	C226.139755,171.388824 224.064240,177.019379 221.870941,182.846771 
z"/>
<path fill="#2B98E6" opacity="1.000000" stroke="none" 
	d="
M164.218292,254.213654 
	C175.216766,257.455658 186.204041,257.459259 197.415009,252.708359 
	C197.001648,253.435822 196.343216,254.563782 195.388321,254.940765 
	C185.002701,259.040894 174.615158,259.880890 164.218292,254.213654 
z"/>
<path fill="#2E9BE8" opacity="1.000000" stroke="none" 
	d="
M360.781921,200.825775 
	C350.738464,196.956924 340.575348,192.767181 330.168030,188.317261 
	C338.735565,190.653961 347.602875,193.084000 356.312347,195.987411 
	C358.069061,196.573044 359.227783,198.952469 360.781921,200.825775 
z"/>
<path fill="#2E9BE8" opacity="1.000000" stroke="none" 
	d="
M294.614746,164.054565 
	C291.187469,173.517960 290.893951,182.975006 295.954590,192.625198 
	C295.196259,192.490356 293.912018,192.175995 293.620667,191.458450 
	C290.076263,182.730423 288.962189,173.893661 293.057434,164.991882 
	C293.232971,164.610336 293.855133,164.434250 294.614746,164.054565 
z"/>
<path fill="#2B98E6" opacity="1.000000" stroke="none" 
	d="
M198.814148,187.204315 
	C195.664093,195.757904 193.368805,204.674149 194.580872,214.593933 
	C193.854248,213.920212 192.607056,212.832367 192.607498,211.745010 
	C192.610931,203.172699 193.260910,194.700729 198.814148,187.204315 
z"/>
<path fill="#2B98E6" opacity="1.000000" stroke="none" 
	d="
M267.873901,167.765808 
	C260.344940,164.238419 252.554901,161.018051 243.412445,160.859070 
	C251.167694,158.793594 264.264252,162.337112 267.873901,167.765808 
z"/>
<path fill="#2E9BE8" opacity="1.000000" stroke="none" 
	d="
M312.481018,205.933853 
	C320.582123,208.417603 328.697754,211.252335 337.065918,214.327682 
	C329.044189,211.807159 320.769867,209.046005 312.481018,205.933853 
z"/>
<path fill="#2B98E6" opacity="1.000000" stroke="none" 
	d="
M151.014343,242.339813 
	C155.255020,245.741684 159.471298,249.543716 163.898102,253.610947 
	C156.575104,253.975067 151.821609,249.939926 151.014343,242.339813 
z"/>
<path fill="#2B98E6" opacity="1.000000" stroke="none" 
	d="
M215.332062,212.658112 
	C213.977844,205.756989 215.444733,199.058350 219.089691,192.695312 
	C220.102325,190.927521 220.366943,188.731232 221.096710,186.351837 
	C220.954468,188.804749 221.010971,191.713516 220.360321,194.454407 
	C218.937119,200.449646 217.154953,206.359665 215.332062,212.658112 
z"/>
<path fill="#2B98E6" opacity="1.000000" stroke="none" 
	d="
M235.745911,162.096802 
	C234.254410,165.882401 232.421188,169.730103 230.339264,173.826019 
	C228.285812,168.507767 231.013809,164.962677 235.745911,162.096802 
z"/>
<path fill="#2E9BE8" opacity="1.000000" stroke="none" 
	d="
M318.938354,181.694809 
	C313.111877,177.238144 313.085693,173.171753 319.180969,167.590942 
	C319.383789,168.123993 319.477692,168.995529 319.088989,169.383560 
	C315.117828,173.347763 316.177887,177.313736 318.938354,181.694809 
z"/>
<path fill="#2E9BE8" opacity="1.000000" stroke="none" 
	d="
M371.589478,219.945389 
	C369.900940,215.998444 368.494537,211.871170 367.008545,207.390305 
	C370.988098,209.344131 373.195190,215.027863 371.589478,219.945389 
z"/>
<path fill="#2E9BE8" opacity="1.000000" stroke="none" 
	d="
M329.860168,187.753571 
	C326.371552,186.283005 322.780243,184.488693 319.064301,182.377136 
	C322.545624,183.849899 326.151550,185.639862 329.860168,187.753571 
z"/>
<path fill="#2B98E6" opacity="1.000000" stroke="none" 
	d="
M229.470184,234.189651 
	C226.302536,231.655563 223.103180,228.771194 219.827454,225.555756 
	C222.980209,228.096237 226.209335,230.967804 229.470184,234.189651 
z"/>
<path fill="#2E9BE8" opacity="1.000000" stroke="none" 
	d="
M359.961182,247.512634 
	C362.059235,244.639526 364.519958,241.827057 367.223206,238.800980 
	C367.184143,243.250946 364.819580,246.258972 359.961182,247.512634 
z"/>
<path fill="#2E9BE8" opacity="1.000000" stroke="none" 
	d="
M367.832825,238.504288 
	C368.669434,234.307159 369.865540,230.053070 371.185364,225.402679 
	C372.575439,230.021271 372.192139,234.653625 367.832825,238.504288 
z"/>
<path fill="#2B98E6" opacity="1.000000" stroke="none" 
	d="
M197.380859,227.021881 
	C198.304749,228.250320 199.121216,229.827148 200.127899,231.771347 
	C198.270676,233.213196 196.499115,234.588547 194.385971,236.014801 
	C195.120743,233.167236 196.197098,230.268768 197.380859,227.021881 
z"/>
<path fill="#2E9BE8" opacity="1.000000" stroke="none" 
	d="
M345.375183,219.992737 
	C348.469208,222.646896 348.929199,226.052383 346.607666,230.046524 
	C345.976868,226.969223 345.654449,223.666412 345.375183,219.992737 
z"/>
<path fill="#2E9BE8" opacity="1.000000" stroke="none" 
	d="
M345.983215,230.306580 
	C343.168427,232.188446 339.998291,234.149246 336.457428,236.072983 
	C339.267090,234.152435 342.447449,232.268967 345.983215,230.306580 
z"/>
<path fill="#2B98E6" opacity="1.000000" stroke="none" 
	d="
M194.604156,217.304291 
	C195.613831,219.907120 196.454468,222.867630 197.380295,226.195770 
	C191.685699,225.220062 194.677353,220.890549 194.604156,217.304291 
z"/>
<path fill="#2B98E6" opacity="1.000000" stroke="none" 
	d="
M219.781067,224.831726 
	C218.299667,222.070602 216.840927,218.913284 215.414459,215.408127 
	C216.899048,218.185364 218.351395,221.310455 219.781067,224.831726 
z"/>
<path fill="#2E9BE8" opacity="1.000000" stroke="none" 
	d="
M287.818634,243.211227 
	C285.741028,247.179443 288.721619,248.281845 291.848572,249.690308 
	C285.790466,249.623886 284.698944,248.046707 287.818634,243.211227 
z"/>
<path fill="#2E9BE8" opacity="1.000000" stroke="none" 
	d="
M365.741333,154.878769 
	C365.332794,153.324051 365.190552,151.646423 364.939514,149.558960 
	C370.159760,149.981705 367.862640,152.415192 365.741333,154.878769 
z"/>
<path fill="#2B98E6" opacity="1.000000" stroke="none" 
	d="
M210.670120,172.020401 
	C209.225922,173.924805 207.418579,175.833389 205.311340,177.877869 
	C206.776627,176.017380 208.541794,174.020981 210.670120,172.020401 
z"/>
<path fill="#2E9BE8" opacity="1.000000" stroke="none" 
	d="
M301.195618,199.164703 
	C303.005646,199.997971 304.859314,201.191772 306.890717,202.663132 
	C305.125366,201.802216 303.182312,200.663727 301.195618,199.164703 
z"/>
<path fill="#2E9BE8" opacity="1.000000" stroke="none" 
	d="
M340.078674,216.314850 
	C341.726410,216.964752 343.433533,217.969147 345.263763,219.279846 
	C343.637268,218.613876 341.887665,217.641617 340.078674,216.314850 
z"/>
<path fill="#2B98E6" opacity="1.000000" stroke="none" 
	d="
M202.099945,181.492065 
	C201.520279,183.245880 200.573578,184.982742 199.357941,186.917603 
	C199.970306,185.235428 200.851593,183.355270 202.099945,181.492065 
z"/>
<path fill="#2B98E6" opacity="1.000000" stroke="none" 
	d="
M239.109558,221.212677 
	C240.511993,222.145126 241.899887,223.447098 243.407333,225.038635 
	C242.049606,224.079529 240.572311,222.830856 239.109558,221.212677 
z"/>
<path fill="#2E9BE8" opacity="1.000000" stroke="none" 
	d="
M307.692230,151.025787 
	C306.632141,152.039841 305.193146,153.025543 303.427979,154.075958 
	C304.505646,153.092941 305.909454,152.045197 307.692230,151.025787 
z"/>
<path fill="#2B98E6" opacity="1.000000" stroke="none" 
	d="
M207.375427,246.042877 
	C208.711990,242.735809 210.370392,244.565887 212.186401,246.357407 
	C210.813522,246.453842 209.287064,246.265015 207.375427,246.042877 
z"/>
<path fill="#2B98E6" opacity="1.000000" stroke="none" 
	d="
M233.459320,212.966766 
	C234.398132,213.833206 235.226547,215.068771 236.122559,216.624435 
	C235.243088,215.741638 234.296021,214.538773 233.459320,212.966766 
z"/>
<path fill="#2E9BE8" opacity="1.000000" stroke="none" 
	d="
M307.142639,203.251724 
	C308.651398,203.619492 310.266022,204.318008 312.103577,205.254105 
	C310.633820,204.855270 308.941132,204.218872 307.142639,203.251724 
z"/>
<path fill="#2B98E6" opacity="1.000000" stroke="none" 
	d="
M201.240662,250.920685 
	C202.030487,249.966614 203.181458,249.024704 204.644379,247.999542 
	C203.838150,248.921814 202.719986,249.927322 201.240662,250.920685 
z"/>
<path fill="#2B98E6" opacity="1.000000" stroke="none" 
	d="
M271.457886,170.140457 
	C270.378113,169.862839 269.321747,169.224304 268.094666,168.323334 
	C269.109772,168.633774 270.295502,169.206650 271.457886,170.140457 
z"/>
<path fill="#2B98E6" opacity="1.000000" stroke="none" 
	d="
M279.274414,239.900330 
	C279.603180,238.953705 280.275055,237.935760 281.199371,236.742340 
	C280.840393,237.654251 280.228943,238.741623 279.274414,239.900330 
z"/>
<path fill="#2B98E6" opacity="1.000000" stroke="none" 
	d="
M281.814331,236.477737 
	C282.086578,235.428894 282.706299,234.320068 283.599182,233.046677 
	C283.302216,234.060669 282.732025,235.239212 281.814331,236.477737 
z"/>
<path fill="#2B98E6" opacity="1.000000" stroke="none" 
	d="
M149.207260,237.828827 
	C149.868073,238.711700 150.448120,239.991409 151.044220,241.624985 
	C150.415680,240.727783 149.771088,239.476730 149.207260,237.828827 
z"/>
<path fill="#2B98E6" opacity="1.000000" stroke="none" 
	d="
M217.712341,167.041229 
	C217.016327,167.791580 215.968674,168.537140 214.599335,169.347107 
	C215.305344,168.619827 216.333023,167.828125 217.712341,167.041229 
z"/>
<path fill="#2B98E6" opacity="1.000000" stroke="none" 
	d="
M236.969147,218.360519 
	C237.647263,218.774582 238.342636,219.529053 239.103348,220.591202 
	C238.441254,220.166229 237.713837,219.433578 236.969147,218.360519 
z"/>
<path fill="#2E9BE8" opacity="1.000000" stroke="none" 
	d="
M289.767639,240.150879 
	C289.626709,240.985382 289.163330,241.923218 288.416809,243.007599 
	C288.570831,242.187515 289.007996,241.220871 289.767639,240.150879 
z"/>
<path fill="#2E9BE8" opacity="1.000000" stroke="none" 
	d="
M296.014954,193.321625 
	C296.669434,193.756729 297.327484,194.532242 298.055847,195.612579 
	C297.423645,195.165619 296.721100,194.413818 296.014954,193.321625 
z"/>
<path fill="#2E9BE8" opacity="1.000000" stroke="none" 
	d="
M299.159058,157.632629 
	C298.896515,158.441910 298.291260,159.201752 297.406311,160.056396 
	C297.689880,159.295212 298.253113,158.439209 299.159058,157.632629 
z"/>
<path fill="#2E9BE8" opacity="1.000000" stroke="none" 
	d="
M296.819672,160.203720 
	C296.682678,161.071609 296.200714,162.039963 295.449127,163.195190 
	C295.611206,162.356110 296.042969,161.330139 296.819672,160.203720 
z"/>
<path fill="#2E9BE8" opacity="1.000000" stroke="none" 
	d="
M356.953491,249.580048 
	C357.386017,248.912842 358.162689,248.294388 359.227722,247.597244 
	C358.776642,248.221954 358.037170,248.925369 356.953491,249.580048 
z"/>
<path fill="#2B98E6" opacity="1.000000" stroke="none" 
	d="
M214.025299,169.361465 
	C213.778687,169.908203 213.209274,170.452454 212.342545,171.050110 
	C212.597656,170.522003 213.150085,169.940475 214.025299,169.361465 
z"/>
<path fill="#2B98E6" opacity="1.000000" stroke="none" 
	d="
M240.752045,160.591187 
	C239.958252,160.859772 238.889801,160.966797 237.416321,161.078018 
	C238.166641,160.864685 239.322037,160.647156 240.752045,160.591187 
z"/>
<path fill="#2B98E6" opacity="1.000000" stroke="none" 
	d="
M203.812286,179.154999 
	C203.758591,179.749298 203.385513,180.424332 202.769974,181.265350 
	C202.849319,180.699463 203.171127,179.967606 203.812286,179.154999 
z"/>
<path fill="#2E9BE8" opacity="1.000000" stroke="none" 
	d="
M302.819855,154.152618 
	C302.618347,154.693573 302.103943,155.281158 301.303650,155.957825 
	C301.514160,155.431030 302.010559,154.815155 302.819855,154.152618 
z"/>
<path fill="#2E9BE8" opacity="1.000000" stroke="none" 
	d="
M366.910278,206.764633 
	C366.388306,206.556778 365.820129,206.042023 365.155823,205.251648 
	C365.661133,205.469910 366.262604,205.963821 366.910278,206.764633 
z"/>
<path fill="#2E9BE8" opacity="1.000000" stroke="none" 
	d="
M337.438232,214.832291 
	C338.078552,214.835480 338.876099,215.135742 339.855072,215.704132 
	C339.222809,215.691284 338.409180,215.410324 337.438232,214.832291 
z"/>
<path fill="#2B98E6" opacity="1.000000" stroke="none" 
	d="
M277.291870,241.935089 
	C277.461761,241.389114 277.940033,240.777145 278.691956,240.047150 
	C278.510468,240.575775 278.055359,241.222443 277.291870,241.935089 
z"/>
<path fill="#2E9BE8" opacity="1.000000" stroke="none" 
	d="
M300.761566,156.089752 
	C300.735474,156.453583 300.424286,156.889313 299.863647,157.446991 
	C299.901642,157.099854 300.189087,156.630768 300.761566,156.089752 
z"/>
<path fill="#2E9BE8" opacity="1.000000" stroke="none" 
	d="
M362.317780,202.237366 
	C361.936707,202.218033 361.501312,201.922607 360.969849,201.376007 
	C361.337036,201.403656 361.800232,201.682449 362.317780,202.237366 
z"/>
<path fill="#2E9BE8" opacity="1.000000" stroke="none" 
	d="
M363.897919,203.635284 
	C363.565704,203.620819 363.158325,203.350113 362.634033,202.855728 
	C362.952362,202.881058 363.387543,203.130051 363.897919,203.635284 
z"/>
<path fill="#2B98E6" opacity="1.000000" stroke="none" 
	d="
M199.235077,251.916794 
	C199.411835,251.603333 199.886490,251.256561 200.665833,250.886703 
	C200.491333,251.203568 200.012146,251.543518 199.235077,251.916794 
z"/>
<path fill="#2B98E6" opacity="1.000000" stroke="none" 
	d="
M212.395386,246.862671 
	C212.777390,246.865311 213.291275,247.139023 213.941345,247.675110 
	C213.560760,247.669571 213.044006,247.401642 212.395386,246.862671 
z"/>
<path fill="#2E9BE8" opacity="1.000000" stroke="none" 
	d="
M291.008575,238.294769 
	C291.033752,238.675537 290.808105,239.226089 290.321411,239.932022 
	C290.292816,239.546448 290.525299,239.005508 291.008575,238.294769 
z"/>
<path fill="#2B98E6" opacity="1.000000" stroke="none" 
	d="
M243.664780,225.731186 
	C244.093567,225.729416 244.601639,226.036453 245.234436,226.618866 
	C244.820801,226.609482 244.282425,226.324753 243.664780,225.731186 
z"/>
<path fill="#2B98E6" opacity="1.000000" stroke="none" 
	d="
M229.862930,174.316620 
	C229.964905,174.725235 229.833817,175.385635 229.470367,176.299835 
	C229.368622,175.891891 229.499252,175.230133 229.862930,174.316620 
z"/>
<path fill="#2B98E6" opacity="1.000000" stroke="none" 
	d="
M285.116852,230.790161 
	C285.069092,230.418900 285.247803,229.850647 285.675201,229.107269 
	C285.730377,229.485840 285.536865,230.039520 285.116852,230.790161 
z"/>
<path fill="#2B98E6" opacity="1.000000" stroke="none" 
	d="
M211.875580,171.139679 
	C211.917984,171.327637 211.723129,171.617294 211.266724,171.972321 
	C211.216232,171.772263 211.427277,171.506821 211.875580,171.139679 
z"/>
<path fill="#2B98E6" opacity="1.000000" stroke="none" 
	d="
M276.199158,242.891190 
	C276.142303,242.699020 276.313354,242.402054 276.744019,242.044312 
	C276.811432,242.251144 276.619263,242.518768 276.199158,242.891190 
z"/>
<path fill="#2B98E6" opacity="1.000000" stroke="none" 
	d="
M284.072510,232.718903 
	C283.967560,232.534866 284.085205,232.134247 284.454681,231.538910 
	C284.569397,231.730225 284.432251,232.116272 284.072510,232.718903 
z"/>
<path fill="#2E9BE8" opacity="1.000000" stroke="none" 
	d="
M298.167786,196.103882 
	C298.364685,196.049103 298.674194,196.228592 299.041931,196.681854 
	C298.826904,196.749802 298.553680,196.543976 298.167786,196.103882 
z"/>
<path fill="#2E9BE8" opacity="1.000000" stroke="none" 
	d="
M299.164795,197.127686 
	C299.359833,197.066544 299.674896,197.233444 300.053162,197.671661 
	C299.839172,197.747208 299.561951,197.551468 299.164795,197.127686 
z"/>
<path fill="#2B98E6" opacity="1.000000" stroke="none" 
	d="
M206.188690,246.889526 
	C206.136749,246.697449 206.314316,246.403015 206.751770,246.050964 
	C206.813828,246.257935 206.615997,246.522552 206.188690,246.889526 
z"/>
<path fill="#2B98E6" opacity="1.000000" stroke="none" 
	d="
M205.140503,247.861298 
	C205.096558,247.677414 205.281982,247.382523 205.731262,247.023972 
	C205.786697,247.223648 205.578278,247.486969 205.140503,247.861298 
z"/>
<path fill="#2E9BE8" opacity="1.000000" stroke="none" 
	d="
M300.183350,198.111267 
	C300.374207,198.038956 300.699188,198.194702 301.118347,198.614105 
	C300.914154,198.698273 300.615814,198.518799 300.183350,198.111267 
z"/>
<path fill="#2B98E6" opacity="1.000000" stroke="none" 
	d="
M204.797821,178.138016 
	C204.871201,178.329880 204.726440,178.653687 204.316315,179.052856 
	C204.227219,178.842133 204.403458,178.556046 204.797821,178.138016 
z"/>
<path fill="#2E9BE8" opacity="1.000000" stroke="none" 
	d="
M335.851379,236.014389 
	C335.889496,236.271454 335.735291,236.364838 335.394836,236.249084 
	C335.399292,236.020493 335.549469,235.957413 335.851379,236.014389 
z"/>
<path fill="#2B98E6" opacity="1.000000" stroke="none" 
	d="
M197.938721,252.692902 
	C197.927612,252.497543 198.174652,252.245132 198.692413,251.963501 
	C198.707703,252.168121 198.452286,252.401993 197.938721,252.692902 
z"/>
<path fill="#1197F5" opacity="1.000000" stroke="none" 
	d="
M250.964874,201.856232 
	C248.085159,194.870209 247.321991,188.157623 249.644928,181.233826 
	C264.013275,184.285339 273.191559,202.232727 267.883820,217.254181 
	C259.916168,214.813095 254.678284,209.485031 250.964874,201.856232 
z"/>
<path fill="#1097F6" opacity="1.000000" stroke="none" 
	d="
M100.186623,205.913574 
	C99.750923,207.246536 99.212448,209.001205 98.638420,209.012924 
	C90.028809,209.188568 81.414536,209.134537 71.905151,209.134537 
	C76.762451,195.341324 81.401070,182.169098 86.527779,167.610855 
	C91.344513,181.098801 95.705910,193.311722 100.186623,205.913574 
z"/>
</svg>