<svg version="1.1" id="Layer_1" xmlns="http://www.w3.org/2000/svg" xmlns:xlink="http://www.w3.org/1999/xlink" x="0px" y="0px"
	 width="100%" viewBox="0 0 1280 1439" enable-background="new 0 0 1280 1439" xml:space="preserve">
<path fill="#659AD2" opacity="1.000000" stroke="none" 
	d="
M618.000000,0.999994 
	C633.022034,1.000000 648.044006,1.000000 663.240417,1.356080 
	C664.256592,2.138069 665.059265,2.684972 665.946106,2.971302 
	C675.476074,6.048096 685.423279,8.206857 694.450806,12.365455 
	C704.438965,16.966600 713.524780,23.499172 723.116211,28.993973 
	C746.528625,42.406578 770.063660,55.605766 793.441589,69.077782 
	C818.092773,83.283554 842.575684,97.781349 867.212769,112.011848 
	C889.882874,125.106209 912.704895,137.937424 935.378235,151.026276 
	C960.149292,165.326172 984.795593,179.842026 1009.555298,194.161652 
	C1025.882080,203.604095 1042.364258,212.777557 1058.683350,222.233170 
	C1076.546387,232.583527 1094.256226,243.198257 1112.117310,253.552185 
	C1128.300537,262.933533 1144.633301,272.056488 1160.834351,281.407471 
	C1179.282837,292.055573 1197.392090,303.324585 1216.136475,313.417938 
	C1237.075073,324.692810 1253.606323,340.077148 1264.771484,361.097992 
	C1264.208374,361.479675 1263.949707,361.694366 1263.662842,361.860046 
	C1180.812744,409.702454 1097.962891,457.544891 1015.091980,505.350922 
	C1013.713623,506.146057 1012.079224,506.497345 1010.268616,506.834656 
	C1009.329895,505.642609 1008.644897,504.696716 1008.049866,503.697266 
	C977.799988,452.886536 938.761841,410.063354 890.731079,375.601990 
	C820.538391,325.239746 742.186523,298.251740 655.823364,294.963867 
	C631.209656,294.026855 606.702576,295.447266 582.222839,298.793915 
	C559.047485,301.962311 536.325317,306.817566 514.113037,313.910156 
	C419.864166,344.004669 344.401917,399.803589 288.501923,481.347473 
	C242.560547,548.364258 217.922577,622.760925 214.743210,704.144531 
	C213.767166,729.128601 214.732239,753.978027 218.155655,778.729309 
	C223.803131,819.560303 234.838074,858.877930 252.045105,896.356934 
	C258.009766,909.348816 264.822052,921.951477 270.940918,934.932312 
	C197.509552,977.382629 124.393066,1019.647644 51.250072,1061.866699 
	C39.889805,1068.424072 28.408464,1074.771729 16.673782,1081.021973 
	C11.912121,1069.673828 7.481058,1058.511475 2.967820,1047.382568 
	C2.598608,1046.472046 1.669131,1045.788818 0.999988,1045.000000 
	C1.000000,829.311340 1.000000,613.622620 1.348840,397.733521 
	C2.047456,397.178711 2.629222,396.872101 2.713423,396.463043 
	C5.570861,382.581757 11.391707,369.942444 18.589149,357.832825 
	C26.057911,345.266724 35.268833,334.127075 47.096874,325.615936 
	C55.882343,319.294128 65.501839,314.110718 74.866234,308.618744 
	C91.414604,298.913513 108.048241,289.353638 124.652664,279.744110 
	C138.141098,271.937927 151.641342,264.152191 165.132004,256.349854 
	C179.187302,248.220963 193.238022,240.084152 207.289551,231.948761 
	C219.379822,224.948868 231.467865,217.945160 243.557953,210.944977 
	C257.334137,202.968506 271.097076,194.968964 284.892731,187.026321 
	C297.002380,180.054352 309.163513,173.171799 321.276306,166.205292 
	C337.607727,156.812500 353.923248,147.392059 370.229340,137.955368 
	C384.009186,129.980637 397.762817,121.960518 411.533691,113.970268 
	C425.300049,105.982635 439.055908,97.976730 452.848938,90.035408 
	C464.959381,83.062851 477.143433,76.217972 489.243530,69.227615 
	C505.421631,59.881367 521.543030,50.437092 537.701965,41.057522 
	C551.746216,32.905365 565.766479,24.710505 579.877441,16.675150 
	C589.905701,10.964700 600.203918,5.887236 611.764709,3.871203 
	C613.943787,3.491213 615.926636,1.985985 618.000000,0.999994 
z"/>
<path fill="#004482" opacity="1.000000" stroke="none" 
	d="
M16.983133,1081.216431 
	C28.408464,1074.771729 39.889805,1068.424072 51.250072,1061.866699 
	C124.393066,1019.647644 197.509552,977.382629 271.224731,935.120911 
	C272.105682,935.514648 272.430267,935.900330 272.682709,936.328430 
	C310.872467,1001.093628 362.447021,1052.461060 427.340027,1090.374512 
	C460.383789,1109.680176 495.319702,1124.703369 532.533875,1133.844238 
	C549.580566,1138.031372 566.913269,1141.261597 584.271606,1143.906616 
	C598.395325,1146.058838 612.736877,1147.557007 627.006287,1147.779785 
	C644.541809,1148.053345 662.135437,1147.156006 679.642029,1145.901245 
	C692.842712,1144.955078 706.077271,1143.327026 719.064697,1140.806885 
	C744.422607,1135.886475 769.285339,1128.950562 793.398865,1119.569092 
	C865.512817,1091.512451 926.209351,1047.672607 974.369019,987.060547 
	C987.268311,970.825806 998.197327,953.025391 1010.419067,935.950256 
	C1012.688904,936.555054 1014.750183,936.839905 1016.424255,937.799927 
	C1034.613281,948.230530 1052.739990,958.769470 1070.886353,969.274353 
	C1096.954590,984.365112 1123.013306,999.472473 1149.097778,1014.535156 
	C1176.622925,1030.429932 1204.159912,1046.304565 1231.719971,1062.138916 
	C1242.817749,1068.515137 1253.990723,1074.760864 1265.059082,1081.417236 
	C1259.141968,1089.865234 1253.757568,1098.353149 1247.328491,1105.957520 
	C1239.701904,1114.978394 1229.759277,1121.313232 1219.487793,1127.108154 
	C1205.876099,1134.787598 1192.433716,1142.766479 1178.892334,1150.571655 
	C1166.463135,1157.735718 1153.981567,1164.809204 1141.555420,1171.978638 
	C1128.015381,1179.790771 1114.533936,1187.704712 1100.987793,1195.506226 
	C1084.697876,1204.888306 1068.340942,1214.154297 1052.060669,1223.552979 
	C1035.957520,1232.849365 1019.932983,1242.282227 1003.838562,1251.593872 
	C987.433411,1261.085327 970.971497,1270.478638 954.560059,1279.959229 
	C941.015625,1287.783569 927.527893,1295.705933 913.979431,1303.523193 
	C901.553101,1310.693237 889.067078,1317.759644 876.629639,1324.910522 
	C862.649170,1332.948730 848.685242,1341.015747 834.729370,1349.096680 
	C818.607544,1358.432007 802.506042,1367.802490 786.388428,1377.145142 
	C772.864990,1384.983887 759.341736,1392.822754 745.798340,1400.627075 
	C733.369080,1407.789673 720.847290,1414.794434 708.488586,1422.076294 
	C697.413391,1428.601807 686.346924,1435.049438 673.642578,1438.003784 
	C672.660156,1438.232178 671.876221,1439.314575 671.000000,1440.000000 
	C651.312439,1440.000000 631.624878,1440.000000 611.508850,1439.612061 
	C610.416138,1438.822510 609.797546,1438.290161 609.080444,1438.039429 
	C602.724854,1435.816650 595.871948,1434.512207 590.067139,1431.305420 
	C565.111877,1417.519043 540.414062,1403.263062 515.716248,1389.015503 
	C490.878998,1374.687256 466.173645,1360.130615 441.371887,1345.740601 
	C417.720245,1332.017578 394.021393,1318.376099 370.338379,1304.707275 
	C344.368713,1289.718750 318.410645,1274.710083 292.413788,1259.768921 
	C278.408539,1251.719849 264.276764,1243.890015 250.301804,1235.789185 
	C230.193909,1224.133301 210.195084,1212.289307 190.115677,1200.583984 
	C173.319077,1190.792603 156.493301,1181.050903 139.644165,1171.350098 
	C123.652901,1162.143188 107.619919,1153.008789 91.595078,1143.860352 
	C79.721413,1137.081909 67.618042,1130.675781 56.010567,1123.469849 
	C45.185459,1116.749390 35.456799,1108.478394 27.767712,1098.210205 
	C23.758303,1092.856079 20.552128,1086.900391 16.983133,1081.216431 
z"/>
<path fill="#00599C" opacity="1.000000" stroke="none" 
	d="
M1265.129395,1081.065918 
	C1253.990723,1074.760864 1242.817749,1068.515137 1231.719971,1062.138916 
	C1204.159912,1046.304565 1176.622925,1030.429932 1149.097778,1014.535156 
	C1123.013306,999.472473 1096.954590,984.365112 1070.886353,969.274353 
	C1052.739990,958.769470 1034.613281,948.230530 1016.424255,937.799927 
	C1014.750183,936.839905 1012.688904,936.555054 1010.398560,935.595947 
	C1008.908936,934.322937 1007.936462,933.223633 1006.731628,932.525391 
	C947.605896,898.264160 888.462585,864.033142 829.300659,829.834351 
	C828.073608,829.125122 826.605713,828.832336 825.047607,828.039795 
	C824.233887,827.180359 823.698792,826.494934 823.000732,826.091431 
	C798.813538,812.112183 774.611145,798.158875 750.410461,784.203003 
	C723.041138,768.419922 695.700439,752.586914 668.285156,736.884033 
	C659.210327,731.686279 649.942932,726.824829 640.997009,721.557129 
	C694.544434,690.506958 747.871460,659.731873 801.158203,628.887085 
	C809.186096,624.240112 817.025269,619.267090 825.336365,614.424683 
	C826.921753,613.861816 828.179932,613.418579 829.315125,612.762390 
	C888.625427,578.475891 947.927673,544.175354 1007.210388,509.841095 
	C1008.450195,509.123047 1009.451660,507.993439 1010.564331,507.055786 
	C1012.079224,506.497345 1013.713623,506.146057 1015.091980,505.350922 
	C1097.962891,457.544891 1180.812744,409.702454 1263.662842,361.860046 
	C1263.949707,361.694366 1264.208374,361.479675 1265.071533,361.287476 
	C1270.127075,372.678162 1274.572021,384.077087 1279.105347,395.440674 
	C1279.370972,396.106445 1280.351929,396.486786 1281.000000,397.000000 
	C1281.000000,612.687561 1281.000000,828.375183 1280.610596,1044.438843 
	C1279.809448,1045.641113 1279.255859,1046.426758 1279.007446,1047.299438 
	C1275.653076,1059.079834 1272.338135,1070.870972 1265.129395,1081.065918 
M1196.066895,650.083252 
	C1181.381592,650.125305 1166.696167,650.167297 1151.446167,650.107483 
	C1151.289185,650.404480 1151.132080,650.701477 1150.754883,651.913452 
	C1150.754883,666.983398 1150.754883,682.053345 1150.754883,697.596680 
	C1134.513916,697.596680 1119.094360,697.596680 1103.487793,697.596680 
	C1103.487793,713.616272 1103.487793,729.149170 1103.487793,745.225586 
	C1119.372803,745.225586 1134.916504,745.225586 1150.924805,745.225586 
	C1150.924805,761.163635 1150.924805,776.559998 1150.924805,791.995422 
	C1166.809570,791.995422 1182.209839,791.995422 1198.174805,791.995422 
	C1198.174805,776.197021 1198.174805,760.656677 1198.174805,744.769531 
	C1214.172363,744.769531 1229.605347,744.769531 1244.983643,744.769531 
	C1244.983643,728.865295 1244.983643,713.328186 1244.983643,697.363647 
	C1229.137207,697.363647 1213.705200,697.363647 1197.843750,697.363647 
	C1197.843750,681.623352 1197.843750,666.317078 1197.903931,650.481018 
	C1197.601318,650.390442 1197.298706,650.299866 1196.066895,650.083252 
M1019.988586,650.448608 
	C1019.658325,650.368835 1019.328003,650.289062 1018.068237,650.083374 
	C1003.382507,650.125366 988.696838,650.167358 973.474915,650.107849 
	C973.352783,650.406555 973.230652,650.705200 972.943542,651.927917 
	C972.943542,666.999023 972.943542,682.070068 972.943542,697.597778 
	C956.827393,697.597778 941.398560,697.597778 925.736938,697.597778 
	C925.736938,713.611084 925.736938,729.158203 925.736938,745.142029 
	C941.377380,745.142029 956.680542,745.142029 972.184814,745.489197 
	C972.335449,745.718262 972.532776,745.895142 972.896423,746.947815 
	C972.896423,762.002686 972.896423,777.057617 972.896423,791.902710 
	C989.113220,791.902710 1004.508118,791.902710 1020.330261,791.902710 
	C1020.330261,776.143005 1020.330261,760.738281 1020.330261,744.816467 
	C1036.304688,744.816467 1051.851196,744.816467 1067.463867,744.816467 
	C1067.463867,728.882812 1067.463867,713.478577 1067.463867,697.469971 
	C1051.621826,697.469971 1036.058960,697.469971 1019.951294,697.469971 
	C1019.951294,681.578369 1019.951294,666.291199 1019.988586,650.448608 
z"/>
<path fill="#000000" opacity="1.000000" stroke="none" 
	d="
M617.531372,0.999994 
	C615.926636,1.985985 613.943787,3.491213 611.764709,3.871203 
	C600.203918,5.887236 589.905701,10.964700 579.877441,16.675150 
	C565.766479,24.710505 551.746216,32.905365 537.701965,41.057522 
	C521.543030,50.437092 505.421631,59.881367 489.243530,69.227615 
	C477.143433,76.217972 464.959381,83.062851 452.848938,90.035408 
	C439.055908,97.976730 425.300049,105.982635 411.533691,113.970268 
	C397.762817,121.960518 384.009186,129.980637 370.229340,137.955368 
	C353.923248,147.392059 337.607727,156.812500 321.276306,166.205292 
	C309.163513,173.171799 297.002380,180.054352 284.892731,187.026321 
	C271.097076,194.968964 257.334137,202.968506 243.557953,210.944977 
	C231.467865,217.945160 219.379822,224.948868 207.289551,231.948761 
	C193.238022,240.084152 179.187302,248.220963 165.132004,256.349854 
	C151.641342,264.152191 138.141098,271.937927 124.652664,279.744110 
	C108.048241,289.353638 91.414604,298.913513 74.866234,308.618744 
	C65.501839,314.110718 55.882343,319.294128 47.096874,325.615936 
	C35.268833,334.127075 26.057911,345.266724 18.589149,357.832825 
	C11.391707,369.942444 5.570861,382.581757 2.713423,396.463043 
	C2.629222,396.872101 2.047456,397.178711 1.348840,397.266541 
	C1.000000,265.057007 1.000000,133.114014 1.000000,1.000000 
	C206.354202,1.000000 411.708435,1.000000 617.531372,0.999994 
z"/>
<path fill="#000000" opacity="1.000000" stroke="none" 
	d="
M1281.000000,396.531311 
	C1280.351929,396.486786 1279.370972,396.106445 1279.105347,395.440674 
	C1274.572021,384.077087 1270.127075,372.678162 1265.362671,361.097534 
	C1253.606323,340.077148 1237.075073,324.692810 1216.136475,313.417938 
	C1197.392090,303.324585 1179.282837,292.055573 1160.834351,281.407471 
	C1144.633301,272.056488 1128.300537,262.933533 1112.117310,253.552185 
	C1094.256226,243.198257 1076.546387,232.583527 1058.683350,222.233170 
	C1042.364258,212.777557 1025.882080,203.604095 1009.555298,194.161652 
	C984.795593,179.842026 960.149292,165.326172 935.378235,151.026276 
	C912.704895,137.937424 889.882874,125.106209 867.212769,112.011848 
	C842.575684,97.781349 818.092773,83.283554 793.441589,69.077782 
	C770.063660,55.605766 746.528625,42.406578 723.116211,28.993973 
	C713.524780,23.499172 704.438965,16.966600 694.450806,12.365455 
	C685.423279,8.206857 675.476074,6.048096 665.946106,2.971302 
	C665.059265,2.684972 664.256592,2.138069 663.707397,1.356080 
	C869.577820,1.000000 1075.155640,1.000000 1281.000000,1.000000 
	C1281.000000,132.687439 1281.000000,264.375061 1281.000000,396.531311 
z"/>
<path fill="#000000" opacity="1.000000" stroke="none" 
	d="
M16.673801,1081.021973 
	C20.552128,1086.900391 23.758303,1092.856079 27.767712,1098.210205 
	C35.456799,1108.478394 45.185459,1116.749390 56.010567,1123.469849 
	C67.618042,1130.675781 79.721413,1137.081909 91.595078,1143.860352 
	C107.619919,1153.008789 123.652901,1162.143188 139.644165,1171.350098 
	C156.493301,1181.050903 173.319077,1190.792603 190.115677,1200.583984 
	C210.195084,1212.289307 230.193909,1224.133301 250.301804,1235.789185 
	C264.276764,1243.890015 278.408539,1251.719849 292.413788,1259.768921 
	C318.410645,1274.710083 344.368713,1289.718750 370.338379,1304.707275 
	C394.021393,1318.376099 417.720245,1332.017578 441.371887,1345.740601 
	C466.173645,1360.130615 490.878998,1374.687256 515.716248,1389.015503 
	C540.414062,1403.263062 565.111877,1417.519043 590.067139,1431.305420 
	C595.871948,1434.512207 602.724854,1435.816650 609.080444,1438.039429 
	C609.797546,1438.290161 610.416138,1438.822510 611.040161,1439.612061 
	C407.755188,1440.000000 204.510376,1440.000000 1.000000,1440.000000 
	C1.000000,1308.645874 1.000000,1177.291504 0.999988,1045.468628 
	C1.669131,1045.788818 2.598608,1046.472046 2.967820,1047.382568 
	C7.481058,1058.511475 11.912121,1069.673828 16.673801,1081.021973 
z"/>
<path fill="#000000" opacity="1.000000" stroke="none" 
	d="
M1265.059082,1081.417236 
	C1272.338135,1070.870972 1275.653076,1059.079834 1279.007446,1047.299438 
	C1279.255859,1046.426758 1279.809448,1045.641113 1280.610596,1044.907471 
	C1281.000000,1176.609375 1281.000000,1308.218628 1281.000000,1440.000000 
	C1077.979126,1440.000000 874.958252,1440.000000 671.468628,1440.000000 
	C671.876221,1439.314575 672.660156,1438.232178 673.642578,1438.003784 
	C686.346924,1435.049438 697.413391,1428.601807 708.488586,1422.076294 
	C720.847290,1414.794434 733.369080,1407.789673 745.798340,1400.627075 
	C759.341736,1392.822754 772.864990,1384.983887 786.388428,1377.145142 
	C802.506042,1367.802490 818.607544,1358.432007 834.729370,1349.096680 
	C848.685242,1341.015747 862.649170,1332.948730 876.629639,1324.910522 
	C889.067078,1317.759644 901.553101,1310.693237 913.979431,1303.523193 
	C927.527893,1295.705933 941.015625,1287.783569 954.560059,1279.959229 
	C970.971497,1270.478638 987.433411,1261.085327 1003.838562,1251.593872 
	C1019.932983,1242.282227 1035.957520,1232.849365 1052.060669,1223.552979 
	C1068.340942,1214.154297 1084.697876,1204.888306 1100.987793,1195.506226 
	C1114.533936,1187.704712 1128.015381,1179.790771 1141.555420,1171.978638 
	C1153.981567,1164.809204 1166.463135,1157.735718 1178.892334,1150.571655 
	C1192.433716,1142.766479 1205.876099,1134.787598 1219.487793,1127.108154 
	C1229.759277,1121.313232 1239.701904,1114.978394 1247.328491,1105.957520 
	C1253.757568,1098.353149 1259.141968,1089.865234 1265.059082,1081.417236 
z"/>
<path fill="#FFFFFF" opacity="1.000000" stroke="none" 
	d="
M1010.268616,506.834656 
	C1009.451660,507.993439 1008.450195,509.123047 1007.210388,509.841095 
	C947.927673,544.175354 888.625427,578.475891 829.315125,612.762390 
	C828.179932,613.418579 826.921753,613.861816 825.369019,614.041992 
	C812.816345,591.915222 796.825500,573.269531 777.577820,557.544006 
	C741.788269,528.303772 701.154968,511.387024 654.571045,508.733673 
	C639.524231,507.876617 624.701843,508.169861 609.927734,510.225128 
	C585.845581,513.575256 562.885803,520.899841 541.558594,532.648132 
	C474.861511,569.389038 437.693726,626.343384 428.341949,701.358215 
	C426.474945,716.334351 427.562592,731.998962 429.552460,747.046692 
	C431.588043,762.440186 435.416718,777.794495 440.318085,792.548889 
	C444.302216,804.542175 451.033386,815.623047 456.611267,827.470886 
	C457.696259,829.726501 458.588348,831.702820 459.754944,833.501038 
	C500.149384,895.765869 557.671936,929.403381 631.417603,934.694214 
	C646.237732,935.757446 661.544373,934.134399 676.265503,931.628235 
	C706.814636,926.427429 735.243591,915.187012 760.926575,897.511902 
	C787.498962,879.224670 809.307861,856.514587 825.250244,828.345215 
	C826.605713,828.832336 828.073608,829.125122 829.300659,829.834351 
	C888.462585,864.033142 947.605896,898.264160 1006.731628,932.525391 
	C1007.936462,933.223633 1008.908936,934.322937 1010.010315,935.589417 
	C998.197327,953.025391 987.268311,970.825806 974.369019,987.060547 
	C926.209351,1047.672607 865.512817,1091.512451 793.398865,1119.569092 
	C769.285339,1128.950562 744.422607,1135.886475 719.064697,1140.806885 
	C706.077271,1143.327026 692.842712,1144.955078 679.642029,1145.901245 
	C662.135437,1147.156006 644.541809,1148.053345 627.006287,1147.779785 
	C612.736877,1147.557007 598.395325,1146.058838 584.271606,1143.906616 
	C566.913269,1141.261597 549.580566,1138.031372 532.533875,1133.844238 
	C495.319702,1124.703369 460.383789,1109.680176 427.340027,1090.374512 
	C362.447021,1052.461060 310.872467,1001.093628 272.682709,936.328430 
	C272.430267,935.900330 272.105682,935.514648 271.530945,934.920532 
	C264.822052,921.951477 258.009766,909.348816 252.045105,896.356934 
	C234.838074,858.877930 223.803131,819.560303 218.155655,778.729309 
	C214.732239,753.978027 213.767166,729.128601 214.743210,704.144531 
	C217.922577,622.760925 242.560547,548.364258 288.501923,481.347473 
	C344.401917,399.803589 419.864166,344.004669 514.113037,313.910156 
	C536.325317,306.817566 559.047485,301.962311 582.222839,298.793915 
	C606.702576,295.447266 631.209656,294.026855 655.823364,294.963867 
	C742.186523,298.251740 820.538391,325.239746 890.731079,375.601990 
	C938.761841,410.063354 977.799988,452.886536 1008.049866,503.697266 
	C1008.644897,504.696716 1009.329895,505.642609 1010.268616,506.834656 
z"/>
<path fill="#659AD2" opacity="1.000000" stroke="none" 
	d="
M456.546326,827.108521 
	C451.033386,815.623047 444.302216,804.542175 440.318085,792.548889 
	C435.416718,777.794495 431.588043,762.440186 429.552460,747.046692 
	C427.562592,731.998962 426.474945,716.334351 428.341949,701.358215 
	C437.693726,626.343384 474.861511,569.389038 541.558594,532.648132 
	C562.885803,520.899841 585.845581,513.575256 609.927734,510.225128 
	C624.701843,508.169861 639.524231,507.876617 654.571045,508.733673 
	C701.154968,511.387024 741.788269,528.303772 777.577820,557.544006 
	C796.825500,573.269531 812.816345,591.915222 824.984497,614.062256 
	C817.025269,619.267090 809.186096,624.240112 801.158203,628.887085 
	C747.871460,659.731873 694.544434,690.506958 640.662720,721.647644 
	C580.717163,756.244690 521.342041,790.503601 461.947479,824.728760 
	C460.252747,825.705444 458.351379,826.323364 456.546326,827.108521 
z"/>
<path fill="#004482" opacity="1.000000" stroke="none" 
	d="
M456.611267,827.470886 
	C458.351379,826.323364 460.252747,825.705444 461.947479,824.728760 
	C521.342041,790.503601 580.717163,756.244690 640.429260,721.900024 
	C649.942932,726.824829 659.210327,731.686279 668.285156,736.884033 
	C695.700439,752.586914 723.041138,768.419922 750.410461,784.203003 
	C774.611145,798.158875 798.813538,812.112183 823.000732,826.091431 
	C823.698792,826.494934 824.233887,827.180359 825.047607,828.039795 
	C809.307861,856.514587 787.498962,879.224670 760.926575,897.511902 
	C735.243591,915.187012 706.814636,926.427429 676.265503,931.628235 
	C661.544373,934.134399 646.237732,935.757446 631.417603,934.694214 
	C557.671936,929.403381 500.149384,895.765869 459.754944,833.501038 
	C458.588348,831.702820 457.696259,829.726501 456.611267,827.470886 
z"/>
<path fill="#FFFFFF" opacity="1.000000" stroke="none" 
	d="
M971.983704,745.142029 
	C956.680542,745.142029 941.377380,745.142029 925.736938,745.142029 
	C925.736938,729.158203 925.736938,713.611084 925.736938,697.597778 
	C941.398560,697.597778 956.827393,697.597778 972.943542,697.597778 
	C972.943542,682.070068 972.943542,666.999023 973.202148,651.364502 
	C973.685730,650.642456 973.869202,650.445190 974.011108,650.209351 
	C988.696838,650.167358 1003.382507,650.125366 1018.663330,650.310974 
	C1019.454895,650.745117 1019.685791,650.900330 1019.951294,651.004089 
	C1019.951294,666.291199 1019.951294,681.578369 1019.951294,697.469971 
	C1036.058960,697.469971 1051.621826,697.469971 1067.463867,697.469971 
	C1067.463867,713.478577 1067.463867,728.882812 1067.463867,744.816467 
	C1051.851196,744.816467 1036.304688,744.816467 1020.330261,744.816467 
	C1020.330261,760.738281 1020.330261,776.143005 1020.330261,791.902710 
	C1004.508118,791.902710 989.113220,791.902710 972.896423,791.902710 
	C972.896423,777.057617 972.896423,762.002686 972.891785,746.218994 
	C972.585999,745.374084 972.284851,745.258057 971.983704,745.142029 
z"/>
<path fill="#FFFFFF" opacity="1.000000" stroke="none" 
	d="
M1152.010864,650.209290 
	C1166.696167,650.167297 1181.381592,650.125305 1196.645264,650.306763 
	C1197.403809,650.724670 1197.610474,650.884888 1197.843750,651.010864 
	C1197.843750,666.317078 1197.843750,681.623352 1197.843750,697.363647 
	C1213.705200,697.363647 1229.137207,697.363647 1244.983643,697.363647 
	C1244.983643,713.328186 1244.983643,728.865295 1244.983643,744.769531 
	C1229.605347,744.769531 1214.172363,744.769531 1198.174805,744.769531 
	C1198.174805,760.656677 1198.174805,776.197021 1198.174805,791.995422 
	C1182.209839,791.995422 1166.809570,791.995422 1150.924805,791.995422 
	C1150.924805,776.559998 1150.924805,761.163635 1150.924805,745.225586 
	C1134.916504,745.225586 1119.372803,745.225586 1103.487793,745.225586 
	C1103.487793,729.149170 1103.487793,713.616272 1103.487793,697.596680 
	C1119.094360,697.596680 1134.513916,697.596680 1150.754883,697.596680 
	C1150.754883,682.053345 1150.754883,666.983398 1151.065674,651.364868 
	C1151.626099,650.653870 1151.837524,650.451538 1152.010864,650.209290 
z"/>
<path fill="#E2ECF4" opacity="1.000000" stroke="none" 
	d="
M1151.728516,650.158386 
	C1151.837524,650.451538 1151.626099,650.653870 1151.175781,650.907349 
	C1151.132080,650.701477 1151.289185,650.404480 1151.728516,650.158386 
z"/>
<path fill="#E2ECF4" opacity="1.000000" stroke="none" 
	d="
M1197.873779,650.745972 
	C1197.610474,650.884888 1197.403809,650.724670 1197.109863,650.369751 
	C1197.298706,650.299866 1197.601318,650.390442 1197.873779,650.745972 
z"/>
<path fill="#2571AA" opacity="1.000000" stroke="none" 
	d="
M972.084229,745.315613 
	C972.284851,745.258057 972.585999,745.374084 972.832031,745.755005 
	C972.532776,745.895142 972.335449,745.718262 972.084229,745.315613 
z"/>
<path fill="#E2ECF4" opacity="1.000000" stroke="none" 
	d="
M1019.969971,650.726318 
	C1019.685791,650.900330 1019.454895,650.745117 1019.128113,650.373901 
	C1019.328003,650.289062 1019.658325,650.368835 1019.969971,650.726318 
z"/>
<path fill="#E2ECF4" opacity="1.000000" stroke="none" 
	d="
M973.743042,650.158569 
	C973.869202,650.445190 973.685730,650.642456 973.284668,650.902466 
	C973.230652,650.705200 973.352783,650.406555 973.743042,650.158569 
z"/>
</svg>