<svg version="1.1" id="Layer_1" xmlns="http://www.w3.org/2000/svg" xmlns:xlink="http://www.w3.org/1999/xlink" x="0px" y="0px"
	 width="100%" viewBox="0 0 1853 2048" enable-background="new 0 0 1853 2048" xml:space="preserve">
<path fill="#659AD2" opacity="1.000000" stroke="none" 
	d="
M904.000000,0.999984 
	C917.024902,1.000000 930.049805,1.000000 943.220581,1.359888 
	C944.209473,2.143018 945.036560,2.897856 945.897888,2.939195 
	C956.846375,3.464690 966.960205,6.854098 976.528015,11.946692 
	C990.854797,19.572319 1005.131409,27.294306 1019.360413,35.100967 
	C1030.912354,41.438881 1042.368408,47.951988 1053.857422,54.404549 
	C1073.161255,65.246246 1092.435059,76.141853 1111.765015,86.936737 
	C1124.114990,93.833511 1136.581421,100.521645 1148.927490,107.425209 
	C1167.651245,117.894966 1186.284302,128.526794 1205.016235,138.981949 
	C1217.815674,146.125900 1230.761353,153.007507 1243.563354,160.147003 
	C1262.579590,170.752151 1281.503296,181.523209 1300.511108,192.143799 
	C1313.155029,199.208618 1325.911743,206.071198 1338.555176,213.136856 
	C1357.578979,223.768097 1376.524170,234.539963 1395.548096,245.170914 
	C1408.191528,252.236313 1420.966064,259.067444 1433.589355,266.168121 
	C1454.566650,277.968079 1475.423340,289.982574 1496.418579,301.750092 
	C1512.308228,310.655823 1528.385620,319.226624 1544.289429,328.107300 
	C1574.110718,344.759308 1603.856445,361.546143 1633.653442,378.241547 
	C1653.810547,389.535553 1674.002808,400.766602 1694.176758,412.030426 
	C1717.045654,424.798920 1740.003296,437.411713 1762.749634,450.394958 
	C1780.936646,460.775696 1800.424316,469.133911 1816.318359,483.159485 
	C1821.126465,487.402435 1824.765259,492.970459 1828.642578,498.102539 
	C1826.345215,499.469025 1824.365234,500.700012 1822.341675,501.854706 
	C1764.203247,535.029663 1706.068848,568.211487 1647.915894,601.360962 
	C1603.649414,626.594543 1559.358643,651.785156 1514.821289,676.769714 
	C1514.296631,676.124146 1514.020508,675.709106 1513.763550,675.282593 
	C1455.104858,577.960632 1377.385254,499.525146 1280.217896,440.610718 
	C1190.081909,385.959595 1092.325806,354.204071 987.304871,345.085327 
	C970.117676,343.592957 952.819336,342.317047 935.595520,342.563690 
	C911.062195,342.915009 886.517029,344.317871 862.040710,346.132446 
	C845.166992,347.383392 828.299561,349.481110 811.606873,352.265137 
	C764.987000,360.040405 719.690674,372.806305 675.794800,390.342743 
	C596.816956,421.894501 526.020691,466.470978 463.700195,524.390808 
	C383.178070,599.226990 323.833618,688.202454 285.956390,791.417297 
	C268.867828,837.983276 256.954498,885.865784 250.868210,935.113831 
	C248.490814,954.350647 245.894226,973.655212 245.268250,992.989502 
	C244.494019,1016.902954 244.984879,1040.914185 246.205643,1064.817993 
	C247.242630,1085.123413 249.406479,1105.433960 252.276215,1125.570679 
	C259.063110,1173.193726 271.232330,1219.504028 288.099091,1264.572388 
	C299.615051,1295.343262 313.613281,1324.970093 328.693542,1354.062988 
	C235.822601,1406.923462 143.285477,1459.673462 50.747532,1512.422241 
	C39.218441,1518.994141 27.685177,1525.558594 15.744521,1532.359741 
	C12.345205,1526.907104 9.224846,1521.901855 6.089184,1516.910522 
	C6.073882,1516.924316 6.103696,1516.952881 6.192134,1516.602051 
	C5.830213,1515.207275 5.379853,1514.163208 4.626278,1512.876221 
	C3.897620,1510.483521 3.587938,1508.299438 2.968416,1506.207031 
	C2.805977,1505.658447 1.682255,1505.394653 1.000004,1505.000000 
	C1.000000,1183.975098 1.000000,862.950195 1.340127,541.753906 
	C2.092621,541.081055 2.782773,540.626221 2.876238,540.071045 
	C4.650663,529.530212 8.884329,519.891052 14.108019,510.724976 
	C22.770557,495.524689 34.594822,483.170227 49.609135,474.170563 
	C60.474354,467.657837 71.745415,461.824768 82.794884,455.616364 
	C100.913582,445.435883 118.975052,435.153412 137.106445,424.995697 
	C152.271957,416.499481 167.527313,408.163727 182.698654,399.677826 
	C200.977692,389.453613 219.194519,379.118286 237.467361,368.882965 
	C252.497131,360.464142 267.587219,352.153015 282.618195,343.736359 
	C301.467743,333.181488 320.275696,322.552429 339.118164,311.984894 
	C350.601288,305.544769 362.143860,299.210327 373.609283,292.739044 
	C391.567535,282.603119 409.440826,272.316193 427.429596,262.235046 
	C442.738556,253.655685 458.206909,245.360794 473.518890,236.786713 
	C491.386688,226.781479 509.123566,216.542618 526.987610,206.530640 
	C542.461548,197.858215 558.075317,189.435379 573.551880,180.767639 
	C592.288940,170.273849 610.916443,159.584473 629.648499,149.081573 
	C644.267151,140.885025 659.009277,132.908905 673.630981,124.717712 
	C692.365234,114.222664 711.007141,103.562981 729.738831,93.063332 
	C744.329773,84.884651 759.030151,76.901009 773.622192,68.724174 
	C792.182495,58.323727 810.685364,47.820515 829.207642,37.352242 
	C839.249084,31.677113 849.234253,25.900581 859.326111,20.316828 
	C872.997559,12.752496 886.633667,5.058444 902.509216,2.899839 
	C903.081665,2.822005 903.506409,1.657848 904.000000,0.999984 
z"/>
<path fill="#00599C" opacity="1.000000" stroke="none" 
	d="
M1515.078613,676.994995 
	C1559.358643,651.785156 1603.649414,626.594543 1647.915894,601.360962 
	C1706.068848,568.211487 1764.203247,535.029663 1822.341675,501.854706 
	C1824.365234,500.700012 1826.345215,499.469025 1828.949707,498.256226 
	C1832.408569,501.612823 1835.337158,504.927307 1838.103760,508.371887 
	C1846.033325,518.244385 1848.589111,530.333374 1851.952637,542.096313 
	C1852.260010,543.171448 1853.300171,544.037109 1854.000000,545.000000 
	C1854.000000,546.714355 1854.000000,548.428711 1853.672119,550.639526 
	C1853.562866,552.424011 1853.781372,553.712036 1854.000000,555.000000 
	C1854.000000,871.354248 1854.000000,1187.708496 1853.641357,1504.380615 
	C1852.776245,1505.782715 1852.269897,1506.866699 1851.518188,1508.022949 
	C1851.192993,1508.734253 1851.113159,1509.373291 1850.982666,1510.378174 
	C1850.542480,1512.146484 1850.152710,1513.549072 1849.451416,1515.076294 
	C1846.225220,1521.203979 1843.255371,1527.181152 1840.442505,1533.231201 
	C1839.868042,1534.467041 1839.884033,1535.977295 1839.665405,1537.441406 
	C1839.702881,1537.521729 1839.599609,1537.665771 1839.236084,1537.488770 
	C1834.765625,1535.107910 1830.637329,1532.943115 1826.555542,1530.693481 
	C1797.992676,1514.952026 1769.449341,1499.174927 1740.879517,1483.445435 
	C1719.742065,1471.808105 1698.561157,1460.249634 1677.423828,1448.611816 
	C1649.000366,1432.962646 1620.611938,1417.249878 1592.186157,1401.605103 
	C1571.047119,1389.970703 1549.885864,1378.376343 1528.697021,1366.833130 
	C1525.968872,1365.346924 1523.015503,1364.274536 1520.043213,1362.677002 
	C1518.702637,1361.515381 1517.543823,1360.580811 1516.259766,1359.874023 
	C1419.434814,1306.574097 1322.601685,1253.289551 1225.752197,1200.034180 
	C1224.351440,1199.263916 1222.739258,1198.877808 1220.997070,1198.033813 
	C1216.601929,1195.344238 1212.473755,1192.864746 1208.263306,1190.533691 
	C1180.471802,1175.148315 1152.682129,1159.759277 1124.853149,1144.441895 
	C1103.141602,1132.491577 1081.351562,1120.683716 1059.636963,1108.739014 
	C1031.221191,1093.108154 1002.856873,1077.383545 974.447998,1061.740112 
	C953.613220,1050.267212 932.727539,1038.886597 911.922791,1027.359741 
	C910.621704,1026.638916 909.828796,1025.001099 908.880615,1023.806091 
	C908.961792,1023.822388 908.934875,1023.985718 909.161987,1023.792847 
	C909.583313,1023.253357 909.777527,1022.906738 910.195129,1022.326904 
	C965.935486,990.395508 1021.452454,958.697205 1076.969482,926.999023 
	C1123.956421,900.171204 1170.943359,873.343384 1218.329102,846.621460 
	C1220.068481,846.147461 1221.479126,845.690063 1222.739502,844.970154 
	C1318.956177,790.012817 1415.162720,735.037964 1511.349854,680.029175 
	C1512.722290,679.244324 1513.841309,678.016235 1515.078613,676.994995 
z"/>
<path fill="#004482" opacity="1.000000" stroke="none" 
	d="
M1520.166504,1363.010376 
	C1523.015503,1364.274536 1525.968872,1365.346924 1528.697021,1366.833130 
	C1549.885864,1378.376343 1571.047119,1389.970703 1592.186157,1401.605103 
	C1620.611938,1417.249878 1649.000366,1432.962646 1677.423828,1448.611816 
	C1698.561157,1460.249634 1719.742065,1471.808105 1740.879517,1483.445435 
	C1769.449341,1499.174927 1797.992676,1514.952026 1826.555542,1530.693481 
	C1830.637329,1532.943115 1834.765625,1535.107910 1839.058838,1537.776733 
	C1833.984863,1545.174072 1829.419189,1552.803101 1823.314209,1558.888184 
	C1812.016235,1570.149536 1797.866333,1577.512451 1783.933716,1585.068970 
	C1769.290161,1593.011108 1754.795410,1601.229004 1740.275635,1609.397217 
	C1722.762207,1619.250000 1705.313599,1629.218018 1687.794434,1639.060181 
	C1672.565430,1647.615601 1657.251465,1656.019775 1642.021729,1664.573486 
	C1624.625488,1674.344238 1607.304932,1684.249512 1589.906006,1694.015625 
	C1574.675537,1702.564819 1559.355835,1710.955322 1544.123047,1719.500732 
	C1526.453491,1729.413208 1508.850708,1739.445312 1491.190552,1749.374878 
	C1479.251587,1756.087646 1467.240234,1762.671387 1455.303345,1769.387451 
	C1440.224854,1777.871094 1425.210938,1786.469727 1410.127930,1794.945312 
	C1397.766113,1801.891846 1385.319702,1808.688232 1372.953735,1815.627686 
	C1355.427734,1825.462646 1337.958618,1835.399170 1320.432373,1845.233765 
	C1305.328735,1853.708862 1290.157715,1862.063721 1275.055542,1870.541382 
	C1257.525146,1880.382568 1240.055908,1890.332764 1222.524902,1900.172974 
	C1207.436646,1908.642090 1192.273682,1916.978027 1177.189697,1925.454712 
	C1156.773193,1936.927734 1136.401978,1948.481689 1116.008545,1959.995972 
	C1103.374756,1967.129150 1090.746216,1974.271729 1078.096436,1981.376465 
	C1063.732056,1989.444458 1049.342529,1997.468018 1034.971436,2005.523926 
	C1025.039917,2011.091187 1015.180969,2016.791260 1005.182373,2022.234863 
	C987.751953,2031.725098 971.231995,2043.222046 951.183350,2047.058838 
	C950.361816,2047.216064 949.723633,2048.331299 949.000000,2049.000000 
	C935.312439,2049.000000 921.624878,2049.000000 907.502686,2048.604492 
	C901.322144,2046.455566 895.217957,2045.430542 889.897156,2042.812988 
	C873.512146,2034.752686 857.293213,2026.328125 841.260315,2017.585693 
	C823.467773,2007.883667 805.985046,1997.615112 788.304199,1987.706177 
	C773.345337,1979.322754 758.242920,1971.195190 743.300171,1962.783691 
	C722.901672,1951.301270 702.635620,1939.583740 682.235657,1928.103882 
	C664.694824,1918.233276 647.010803,1908.617310 629.453735,1898.775269 
	C608.751343,1887.169922 588.139648,1875.402954 567.445190,1863.783325 
	C555.370728,1857.003540 543.165833,1850.455688 531.100647,1843.659790 
	C513.141968,1833.544189 495.294861,1823.230469 477.325043,1813.135132 
	C462.665222,1804.899658 447.847870,1796.944580 433.185699,1788.713257 
	C412.643799,1777.181152 392.207794,1765.460449 371.676239,1753.909668 
	C354.276550,1744.120850 336.779358,1734.505371 319.372559,1724.729004 
	C298.679474,1713.107056 278.060516,1701.352905 257.363678,1689.737671 
	C245.431610,1683.041382 233.361969,1676.589966 221.437943,1669.879517 
	C200.600861,1658.153320 179.855728,1646.263550 159.017776,1634.538818 
	C147.238342,1627.911011 135.302322,1621.561523 123.522537,1614.934326 
	C102.844910,1603.301392 82.342010,1591.353638 61.561954,1579.908081 
	C42.501171,1569.409668 25.529083,1556.713989 14.897688,1537.210693 
	C11.380653,1530.758789 9.003003,1523.685791 6.104470,1516.896729 
	C9.224846,1521.901855 12.345205,1526.907104 15.744521,1532.359741 
	C27.685177,1525.558594 39.218441,1518.994141 50.747532,1512.422241 
	C143.285477,1459.673462 235.822601,1406.923462 328.952698,1354.290283 
	C350.384460,1392.092651 374.507172,1427.544800 402.078186,1460.624390 
	C465.242889,1536.408813 541.053833,1596.145630 629.812378,1639.264648 
	C647.261536,1647.741455 665.047668,1655.618042 683.063416,1662.806519 
	C698.367920,1668.913086 714.166931,1673.816406 729.864258,1678.889404 
	C739.302917,1681.939575 748.894287,1684.597290 758.546082,1686.887207 
	C771.255859,1689.902588 784.076904,1692.459351 796.879333,1695.069824 
	C807.094849,1697.152710 817.292847,1699.472290 827.609253,1700.871582 
	C840.939575,1702.679932 854.370300,1703.783569 867.775757,1704.991943 
	C880.392700,1706.129028 893.021851,1707.619995 905.665649,1707.848267 
	C922.205994,1708.146973 938.785034,1707.744019 955.312256,1706.929565 
	C972.430237,1706.086060 989.578491,1704.982544 1006.581543,1702.909912 
	C1025.953003,1700.548706 1045.298706,1697.599365 1064.442261,1693.823975 
	C1103.216797,1686.177124 1141.007690,1674.943970 1177.704346,1660.216187 
	C1314.663086,1605.249268 1423.003174,1515.532715 1503.164429,1391.723877 
	C1509.204956,1382.394287 1514.516235,1372.592651 1520.166504,1363.010376 
z"/>
<path fill="#000000" opacity="1.000000" stroke="none" 
	d="
M6.089169,1516.910522 
	C9.003003,1523.685791 11.380653,1530.758789 14.897688,1537.210693 
	C25.529083,1556.713989 42.501171,1569.409668 61.561954,1579.908081 
	C82.342010,1591.353638 102.844910,1603.301392 123.522537,1614.934326 
	C135.302322,1621.561523 147.238342,1627.911011 159.017776,1634.538818 
	C179.855728,1646.263550 200.600861,1658.153320 221.437943,1669.879517 
	C233.361969,1676.589966 245.431610,1683.041382 257.363678,1689.737671 
	C278.060516,1701.352905 298.679474,1713.107056 319.372559,1724.729004 
	C336.779358,1734.505371 354.276550,1744.120850 371.676239,1753.909668 
	C392.207794,1765.460449 412.643799,1777.181152 433.185699,1788.713257 
	C447.847870,1796.944580 462.665222,1804.899658 477.325043,1813.135132 
	C495.294861,1823.230469 513.141968,1833.544189 531.100647,1843.659790 
	C543.165833,1850.455688 555.370728,1857.003540 567.445190,1863.783325 
	C588.139648,1875.402954 608.751343,1887.169922 629.453735,1898.775269 
	C647.010803,1908.617310 664.694824,1918.233276 682.235657,1928.103882 
	C702.635620,1939.583740 722.901672,1951.301270 743.300171,1962.783691 
	C758.242920,1971.195190 773.345337,1979.322754 788.304199,1987.706177 
	C805.985046,1997.615112 823.467773,2007.883667 841.260315,2017.585693 
	C857.293213,2026.328125 873.512146,2034.752686 889.897156,2042.812988 
	C895.217957,2045.430542 901.322144,2046.455566 907.033997,2048.604492 
	C605.091125,2049.000000 303.182190,2049.000000 1.000000,2049.000000 
	C1.000000,1867.979126 1.000000,1686.958252 1.000004,1505.468628 
	C1.682255,1505.394653 2.805977,1505.658447 2.968416,1506.207031 
	C3.587938,1508.299438 3.897620,1510.483521 4.632264,1513.243652 
	C5.328878,1514.886841 5.716290,1515.919922 6.103699,1516.952881 
	C6.103696,1516.952881 6.073882,1516.924316 6.089169,1516.910522 
z"/>
<path fill="#000000" opacity="1.000000" stroke="none" 
	d="
M949.468628,2049.000000 
	C949.723633,2048.331299 950.361816,2047.216064 951.183350,2047.058838 
	C971.231995,2043.222046 987.751953,2031.725098 1005.182373,2022.234863 
	C1015.180969,2016.791260 1025.039917,2011.091187 1034.971436,2005.523926 
	C1049.342529,1997.468018 1063.732056,1989.444458 1078.096436,1981.376465 
	C1090.746216,1974.271729 1103.374756,1967.129150 1116.008545,1959.995972 
	C1136.401978,1948.481689 1156.773193,1936.927734 1177.189697,1925.454712 
	C1192.273682,1916.978027 1207.436646,1908.642090 1222.524902,1900.172974 
	C1240.055908,1890.332764 1257.525146,1880.382568 1275.055542,1870.541382 
	C1290.157715,1862.063721 1305.328735,1853.708862 1320.432373,1845.233765 
	C1337.958618,1835.399170 1355.427734,1825.462646 1372.953735,1815.627686 
	C1385.319702,1808.688232 1397.766113,1801.891846 1410.127930,1794.945312 
	C1425.210938,1786.469727 1440.224854,1777.871094 1455.303345,1769.387451 
	C1467.240234,1762.671387 1479.251587,1756.087646 1491.190552,1749.374878 
	C1508.850708,1739.445312 1526.453491,1729.413208 1544.123047,1719.500732 
	C1559.355835,1710.955322 1574.675537,1702.564819 1589.906006,1694.015625 
	C1607.304932,1684.249512 1624.625488,1674.344238 1642.021729,1664.573486 
	C1657.251465,1656.019775 1672.565430,1647.615601 1687.794434,1639.060181 
	C1705.313599,1629.218018 1722.762207,1619.250000 1740.275635,1609.397217 
	C1754.795410,1601.229004 1769.290161,1593.011108 1783.933716,1585.068970 
	C1797.866333,1577.512451 1812.016235,1570.149536 1823.314209,1558.888184 
	C1829.419189,1552.803101 1833.984863,1545.174072 1839.422363,1537.953613 
	C1839.599609,1537.665771 1839.702881,1537.521729 1839.939209,1537.284668 
	C1843.371338,1529.682251 1846.567139,1522.316895 1849.763062,1514.951538 
	C1850.152710,1513.549072 1850.542480,1512.146484 1851.250000,1510.227295 
	C1851.633179,1509.123901 1851.698364,1508.537354 1851.763550,1507.950684 
	C1852.269897,1506.866699 1852.776245,1505.782715 1853.641357,1504.849365 
	C1854.000000,1686.278564 1854.000000,1867.557129 1854.000000,2049.000000 
	C1552.645752,2049.000000 1251.291504,2049.000000 949.468628,2049.000000 
z"/>
<path fill="#000000" opacity="1.000000" stroke="none" 
	d="
M1854.000000,544.531372 
	C1853.300171,544.037109 1852.260010,543.171448 1851.952637,542.096313 
	C1848.589111,530.333374 1846.033325,518.244385 1838.103760,508.371887 
	C1835.337158,504.927307 1832.408569,501.612823 1829.246826,498.085205 
	C1824.765259,492.970459 1821.126465,487.402435 1816.318359,483.159485 
	C1800.424316,469.133911 1780.936646,460.775696 1762.749634,450.394958 
	C1740.003296,437.411713 1717.045654,424.798920 1694.176758,412.030426 
	C1674.002808,400.766602 1653.810547,389.535553 1633.653442,378.241547 
	C1603.856445,361.546143 1574.110718,344.759308 1544.289429,328.107300 
	C1528.385620,319.226624 1512.308228,310.655823 1496.418579,301.750092 
	C1475.423340,289.982574 1454.566650,277.968079 1433.589355,266.168121 
	C1420.966064,259.067444 1408.191528,252.236313 1395.548096,245.170914 
	C1376.524170,234.539963 1357.578979,223.768097 1338.555176,213.136856 
	C1325.911743,206.071198 1313.155029,199.208618 1300.511108,192.143799 
	C1281.503296,181.523209 1262.579590,170.752151 1243.563354,160.147003 
	C1230.761353,153.007507 1217.815674,146.125900 1205.016235,138.981949 
	C1186.284302,128.526794 1167.651245,117.894966 1148.927490,107.425209 
	C1136.581421,100.521645 1124.114990,93.833511 1111.765015,86.936737 
	C1092.435059,76.141853 1073.161255,65.246246 1053.857422,54.404549 
	C1042.368408,47.951988 1030.912354,41.438881 1019.360413,35.100967 
	C1005.131409,27.294306 990.854797,19.572319 976.528015,11.946692 
	C966.960205,6.854098 956.846375,3.464690 945.897888,2.939195 
	C945.036560,2.897856 944.209473,2.143018 943.683228,1.359888 
	C1247.242065,1.000000 1550.484131,1.000000 1854.000000,1.000000 
	C1854.000000,182.020798 1854.000000,363.041748 1854.000000,544.531372 
z"/>
<path fill="#000000" opacity="1.000000" stroke="none" 
	d="
M903.531311,0.999984 
	C903.506409,1.657848 903.081665,2.822005 902.509216,2.899839 
	C886.633667,5.058444 872.997559,12.752496 859.326111,20.316828 
	C849.234253,25.900581 839.249084,31.677113 829.207642,37.352242 
	C810.685364,47.820515 792.182495,58.323727 773.622192,68.724174 
	C759.030151,76.901009 744.329773,84.884651 729.738831,93.063332 
	C711.007141,103.562981 692.365234,114.222664 673.630981,124.717712 
	C659.009277,132.908905 644.267151,140.885025 629.648499,149.081573 
	C610.916443,159.584473 592.288940,170.273849 573.551880,180.767639 
	C558.075317,189.435379 542.461548,197.858215 526.987610,206.530640 
	C509.123566,216.542618 491.386688,226.781479 473.518890,236.786713 
	C458.206909,245.360794 442.738556,253.655685 427.429596,262.235046 
	C409.440826,272.316193 391.567535,282.603119 373.609283,292.739044 
	C362.143860,299.210327 350.601288,305.544769 339.118164,311.984894 
	C320.275696,322.552429 301.467743,333.181488 282.618195,343.736359 
	C267.587219,352.153015 252.497131,360.464142 237.467361,368.882965 
	C219.194519,379.118286 200.977692,389.453613 182.698654,399.677826 
	C167.527313,408.163727 152.271957,416.499481 137.106445,424.995697 
	C118.975052,435.153412 100.913582,445.435883 82.794884,455.616364 
	C71.745415,461.824768 60.474354,467.657837 49.609135,474.170563 
	C34.594822,483.170227 22.770557,495.524689 14.108019,510.724976 
	C8.884329,519.891052 4.650663,529.530212 2.876238,540.071045 
	C2.782773,540.626221 2.092621,541.081055 1.340127,541.291260 
	C1.000000,361.054565 1.000000,181.109131 1.000000,1.000000 
	C301.687531,1.000000 602.375122,1.000000 903.531311,0.999984 
z"/>
<path fill="#004887" opacity="1.000000" stroke="none" 
	d="
M1854.000000,554.600037 
	C1853.781372,553.712036 1853.562866,552.424011 1853.672119,551.067993 
	C1854.000000,552.066711 1854.000000,553.133362 1854.000000,554.600037 
z"/>
<path fill="#FFFFFF" opacity="1.000000" stroke="none" 
	d="
M1520.043213,1362.677002 
	C1514.516235,1372.592651 1509.204956,1382.394287 1503.164429,1391.723877 
	C1423.003174,1515.532715 1314.663086,1605.249268 1177.704346,1660.216187 
	C1141.007690,1674.943970 1103.216797,1686.177124 1064.442261,1693.823975 
	C1045.298706,1697.599365 1025.953003,1700.548706 1006.581543,1702.909912 
	C989.578491,1704.982544 972.430237,1706.086060 955.312256,1706.929565 
	C938.785034,1707.744019 922.205994,1708.146973 905.665649,1707.848267 
	C893.021851,1707.619995 880.392700,1706.129028 867.775757,1704.991943 
	C854.370300,1703.783569 840.939575,1702.679932 827.609253,1700.871582 
	C817.292847,1699.472290 807.094849,1697.152710 796.879333,1695.069824 
	C784.076904,1692.459351 771.255859,1689.902588 758.546082,1686.887207 
	C748.894287,1684.597290 739.302917,1681.939575 729.864258,1678.889404 
	C714.166931,1673.816406 698.367920,1668.913086 683.063416,1662.806519 
	C665.047668,1655.618042 647.261536,1647.741455 629.812378,1639.264648 
	C541.053833,1596.145630 465.242889,1536.408813 402.078186,1460.624390 
	C374.507172,1427.544800 350.384460,1392.092651 329.286285,1354.179688 
	C313.613281,1324.970093 299.615051,1295.343262 288.099091,1264.572388 
	C271.232330,1219.504028 259.063110,1173.193726 252.276215,1125.570679 
	C249.406479,1105.433960 247.242630,1085.123413 246.205643,1064.817993 
	C244.984879,1040.914185 244.494019,1016.902954 245.268250,992.989502 
	C245.894226,973.655212 248.490814,954.350647 250.868210,935.113831 
	C256.954498,885.865784 268.867828,837.983276 285.956390,791.417297 
	C323.833618,688.202454 383.178070,599.226990 463.700195,524.390808 
	C526.020691,466.470978 596.816956,421.894501 675.794800,390.342743 
	C719.690674,372.806305 764.987000,360.040405 811.606873,352.265137 
	C828.299561,349.481110 845.166992,347.383392 862.040710,346.132446 
	C886.517029,344.317871 911.062195,342.915009 935.595520,342.563690 
	C952.819336,342.317047 970.117676,343.592957 987.304871,345.085327 
	C1092.325806,354.204071 1190.081909,385.959595 1280.217896,440.610718 
	C1377.385254,499.525146 1455.104858,577.960632 1513.763550,675.282593 
	C1514.020508,675.709106 1514.296631,676.124146 1514.821289,676.769775 
	C1513.841309,678.016235 1512.722290,679.244324 1511.349854,680.029175 
	C1415.162720,735.037964 1318.956177,790.012817 1222.739502,844.970154 
	C1221.479126,845.690063 1220.068481,846.147461 1218.291870,846.250183 
	C1180.677490,786.089844 1129.999390,741.787537 1065.887207,713.004395 
	C1023.278442,693.875244 978.529846,684.126099 931.773865,684.049744 
	C922.823669,684.035095 913.873901,684.892212 904.921387,684.948792 
	C885.968567,685.068665 867.478333,688.464233 849.172424,692.826294 
	C781.133301,709.039368 723.279968,742.920715 676.032654,794.428162 
	C620.347412,855.134155 591.156311,927.271362 586.253418,1009.174133 
	C585.217896,1026.472290 586.674805,1044.021729 588.203735,1061.347778 
	C590.657837,1089.158936 596.926453,1116.285522 607.061707,1142.313110 
	C612.592224,1156.515381 619.597168,1170.143555 625.962891,1184.389404 
	C636.300720,1200.822388 645.617432,1217.649292 657.105225,1232.833862 
	C696.874512,1285.401001 748.591492,1322.417236 809.961792,1345.746338 
	C828.517944,1352.800293 847.822876,1357.904175 867.592407,1361.264771 
	C886.757874,1364.522583 906.005676,1366.759277 925.330200,1366.733887 
	C941.087769,1366.713135 956.957153,1365.116455 972.567322,1362.803833 
	C989.732483,1360.260742 1007.002808,1357.281738 1023.626160,1352.432251 
	C1084.866943,1334.566650 1136.965332,1301.644653 1179.989746,1254.516235 
	C1195.732544,1237.271851 1209.812622,1218.757935 1221.225830,1198.312500 
	C1222.739258,1198.877808 1224.351440,1199.263916 1225.752197,1200.034180 
	C1322.601685,1253.289551 1419.434814,1306.574097 1516.259766,1359.874023 
	C1517.543823,1360.580811 1518.702637,1361.515381 1520.043213,1362.677002 
z"/>
<path fill="#004482" opacity="1.000000" stroke="none" 
	d="
M6.192137,1516.602051 
	C5.716290,1515.919922 5.328878,1514.886841 4.935480,1513.486572 
	C5.379853,1514.163208 5.830213,1515.207275 6.192137,1516.602051 
z"/>
<path fill="#659AD2" opacity="1.000000" stroke="none" 
	d="
M625.937134,1184.030640 
	C619.597168,1170.143555 612.592224,1156.515381 607.061707,1142.313110 
	C596.926453,1116.285522 590.657837,1089.158936 588.203735,1061.347778 
	C586.674805,1044.021729 585.217896,1026.472290 586.253418,1009.174133 
	C591.156311,927.271362 620.347412,855.134155 676.032654,794.428162 
	C723.279968,742.920715 781.133301,709.039368 849.172424,692.826294 
	C867.478333,688.464233 885.968567,685.068665 904.921387,684.948792 
	C913.873901,684.892212 922.823669,684.035095 931.773865,684.049744 
	C978.529846,684.126099 1023.278442,693.875244 1065.887207,713.004395 
	C1129.999390,741.787537 1180.677490,786.089844 1217.893066,846.144287 
	C1170.943359,873.343384 1123.956421,900.171204 1076.969482,926.999023 
	C1021.452454,958.697205 965.935486,990.395508 909.931152,1022.504517 
	C909.274109,1023.272095 909.104553,1023.628906 908.934937,1023.985718 
	C908.934875,1023.985718 908.961792,1023.822388 908.525513,1023.790527 
	C907.030151,1024.234253 905.922852,1024.625244 904.919067,1025.197754 
	C833.501953,1065.935547 762.104736,1106.708130 690.676453,1147.426514 
	C669.139893,1159.703735 647.519287,1171.833374 625.937134,1184.030640 
z"/>
<path fill="#004482" opacity="1.000000" stroke="none" 
	d="
M625.962891,1184.389404 
	C647.519287,1171.833374 669.139893,1159.703735 690.676453,1147.426514 
	C762.104736,1106.708130 833.501953,1065.935547 904.919067,1025.197754 
	C905.922852,1024.625244 907.030151,1024.234253 908.444336,1023.774170 
	C909.828796,1025.001099 910.621704,1026.638916 911.922791,1027.359741 
	C932.727539,1038.886597 953.613220,1050.267212 974.447998,1061.740112 
	C1002.856873,1077.383545 1031.221191,1093.108154 1059.636963,1108.739014 
	C1081.351562,1120.683716 1103.141602,1132.491577 1124.853149,1144.441895 
	C1152.682129,1159.759277 1180.471802,1175.148315 1208.263306,1190.533691 
	C1212.473755,1192.864746 1216.601929,1195.344238 1220.997070,1198.033813 
	C1209.812622,1218.757935 1195.732544,1237.271851 1179.989746,1254.516235 
	C1136.965332,1301.644653 1084.866943,1334.566650 1023.626160,1352.432251 
	C1007.002808,1357.281738 989.732483,1360.260742 972.567322,1362.803833 
	C956.957153,1365.116455 941.087769,1366.713135 925.330200,1366.733887 
	C906.005676,1366.759277 886.757874,1364.522583 867.592407,1361.264771 
	C847.822876,1357.904175 828.517944,1352.800293 809.961792,1345.746338 
	C748.591492,1322.417236 696.874512,1285.401001 657.105225,1232.833862 
	C645.617432,1217.649292 636.300720,1200.822388 625.962891,1184.389404 
z"/>
<path fill="#004482" opacity="1.000000" stroke="none" 
	d="
M1849.451416,1515.076294 
	C1846.567139,1522.316895 1843.371338,1529.682251 1839.901611,1537.204346 
	C1839.884033,1535.977295 1839.868042,1534.467041 1840.442505,1533.231201 
	C1843.255371,1527.181152 1846.225220,1521.203979 1849.451416,1515.076294 
z"/>
<path fill="#004482" opacity="1.000000" stroke="none" 
	d="
M1851.518188,1508.022949 
	C1851.698364,1508.537354 1851.633179,1509.123901 1851.300659,1509.861328 
	C1851.113159,1509.373291 1851.192993,1508.734253 1851.518188,1508.022949 
z"/>
<path fill="#004482" opacity="1.000000" stroke="none" 
	d="
M909.161987,1023.792847 
	C909.104553,1023.628906 909.274109,1023.272095 909.707764,1022.737671 
	C909.777527,1022.906738 909.583313,1023.253357 909.161987,1023.792847 
z"/>
</svg>