<svg version="1.1" id="Layer_1" xmlns="http://www.w3.org/2000/svg" xmlns:xlink="http://www.w3.org/1999/xlink" x="0px" y="0px"
	 width="100%" viewBox="0 0 1200 628" enable-background="new 0 0 1200 628" xml:space="preserve">
<path fill="#EDF9F2" opacity="1.000000" stroke="none" 
	d="
M778.000000,629.000000 
	C518.666687,629.000000 259.833374,629.000000 1.000035,629.000000 
	C1.000023,419.666687 1.000023,210.333389 1.000012,1.000063 
	C400.999969,1.000042 800.999939,1.000042 1201.000000,1.000021 
	C1201.000000,210.333267 1201.000000,419.666534 1201.000000,628.999878 
	C1060.166626,629.000000 919.333313,629.000000 778.000000,629.000000 
M510.458099,417.738861 
	C510.941925,417.132812 511.425751,416.526764 512.329102,415.749847 
	C512.329102,415.749847 512.757935,415.603668 513.425598,415.756256 
	C513.907043,415.134399 514.388489,414.512543 515.299927,413.429810 
	C516.474304,412.540375 517.648621,411.650970 519.546936,410.822998 
	C521.810974,409.463806 524.091797,408.131653 526.335449,406.739624 
	C530.674316,404.047699 534.692688,404.021454 539.929749,405.451965 
	C554.078735,409.316772 568.471436,413.253174 582.997986,414.521790 
	C600.275696,416.030670 617.787659,415.553528 635.072937,412.063202 
	C647.318298,409.590637 659.239868,406.479523 670.380981,400.744385 
	C674.225708,398.765198 676.701965,401.057220 679.038940,403.549530 
	C681.874329,406.573517 684.598022,409.702148 687.372437,412.783356 
	C691.537231,417.408630 697.086426,419.943451 702.550049,417.189331 
	C708.851013,414.013092 714.974976,409.312042 714.832825,400.986633 
	C714.658447,390.770416 708.252930,384.023376 700.935608,377.304260 
	C701.435364,376.283508 701.709900,375.039459 702.468079,374.274994 
	C716.602844,360.022736 721.675415,341.785675 724.865356,322.834015 
	C726.346008,314.037689 727.451050,305.122498 727.885681,296.220093 
	C728.409790,285.483673 728.044373,274.703674 728.057617,263.942535 
	C728.064819,258.050385 728.058838,252.158203 728.058838,246.976196 
	C733.022522,246.543594 737.963867,247.465027 741.204773,245.533432 
	C746.966736,242.099319 749.551392,235.669891 749.614380,228.964630 
	C749.639343,226.312927 747.898132,223.353958 746.254639,221.035706 
	C742.444214,215.660889 736.946899,212.441177 730.480408,211.564087 
	C725.678772,210.912796 724.811890,208.400360 724.776794,204.149719 
	C724.601318,182.875381 724.731323,161.574814 723.644348,140.340256 
	C722.945496,126.688370 720.238098,113.145012 718.686218,99.523926 
	C718.490234,97.803825 719.332581,94.895744 720.573547,94.262695 
	C726.661194,91.157387 729.553894,85.801720 732.698975,79.766579 
	C736.933533,75.787689 734.292908,70.656097 734.966370,66.084183 
	C737.351685,49.892403 714.123352,29.900530 696.652527,36.110195 
	C688.808594,38.898163 681.873535,40.000702 675.747681,33.036629 
	C675.348022,32.582275 674.546082,32.496952 673.955078,32.193542 
	C662.203613,26.160259 649.831055,21.843935 636.684753,20.584425 
	C623.497070,19.320953 610.229309,18.370947 596.992798,18.322605 
	C588.116577,18.290190 579.187012,19.760750 570.363403,21.099482 
	C550.167358,24.163635 530.785278,29.533529 514.121582,42.189445 
	C512.809692,43.185776 510.256836,43.743172 508.801147,43.173878 
	C490.254425,35.920574 471.953522,42.438763 463.738037,60.418156 
	C460.557709,67.378281 458.980927,75.334427 463.151520,83.675911 
	C466.037811,91.394424 472.146454,96.177216 478.643982,100.507423 
	C478.394440,103.436951 478.456116,106.297501 477.869385,109.018234 
	C474.076874,126.604935 475.212799,144.347778 476.272186,162.045120 
	C477.271545,178.739899 478.858612,195.399506 479.331024,212.037933 
	C472.118561,213.236847 465.009155,214.538544 459.138489,219.544144 
	C453.160889,224.640900 450.346588,233.818573 456.087891,238.452744 
	C456.087891,238.452744 456.140686,238.921646 456.100433,239.622803 
	C457.394348,241.421387 458.688293,243.219986 460.332825,245.516815 
	C461.230835,245.985275 462.128845,246.453751 463.225281,247.662216 
	C466.928955,247.443588 470.635895,247.267593 474.334442,246.982468 
	C475.578369,246.886551 477.514191,245.930603 477.886292,246.386322 
	C478.686920,247.366882 479.038025,249.034058 478.943756,250.375992 
	C478.063690,262.902527 476.570557,275.404724 476.178833,287.942810 
	C475.441925,311.531311 476.356415,335.014160 485.435760,357.314148 
	C486.432312,359.761841 488.441498,361.797211 490.103455,364.641052 
	C490.483551,365.387451 490.863617,366.133820 491.187714,367.525452 
	C491.790466,368.018707 492.393250,368.511963 493.097778,369.448883 
	C493.097778,369.448883 493.220001,369.887360 493.183533,370.528320 
	C493.772552,371.038452 494.361603,371.548584 495.264160,372.639099 
	C496.929352,374.719025 498.594513,376.798920 500.100525,379.598694 
	C499.027557,381.002380 497.986237,382.431671 496.875793,383.805084 
	C493.271973,388.262329 488.951630,392.312683 486.196320,397.240509 
	C482.661285,403.562958 487.168457,413.929199 493.844452,416.030762 
	C497.719940,419.420807 502.254578,419.618134 507.358398,419.309753 
	C508.090454,418.792725 508.822479,418.275696 509.667847,417.645081 
	C509.667847,417.645081 509.808990,417.568726 510.458099,417.738861 
M604.850830,454.483978 
	C588.447021,452.388489 572.452637,454.313507 557.488403,461.206024 
	C525.512268,475.934174 505.393768,500.269379 501.809143,535.888977 
	C497.999969,573.739868 524.793152,606.779602 561.850342,610.687805 
	C595.193604,614.204407 622.180481,602.103882 642.583313,575.499756 
	C645.554565,571.625427 648.113281,567.434753 651.213074,562.875305 
	C652.370361,565.530762 653.234192,567.463074 654.058411,569.412109 
	C660.065125,583.616089 670.119751,594.213074 683.429138,601.692383 
	C704.969055,613.796936 727.754395,614.828613 750.536316,606.692810 
	C785.166260,594.325989 807.891052,571.175781 812.467285,533.188843 
	C816.781433,497.377197 794.292236,464.503693 759.507690,457.648224 
	C719.864380,449.835175 674.434448,465.262634 654.596619,512.175110 
	C652.492371,517.151245 650.066345,518.707703 644.815918,518.616272 
	C625.994812,518.288330 607.163391,518.596619 588.338318,518.411499 
	C583.679688,518.365662 580.881531,520.035706 579.069702,524.290588 
	C576.332764,530.718262 573.130371,536.946716 570.346313,543.355591 
	C568.192810,548.312927 569.401001,550.213745 574.857544,550.296082 
	C585.518066,550.456909 596.182495,550.356201 606.845154,550.392212 
	C608.594849,550.398132 610.343994,550.548889 612.832336,550.668091 
	C609.567993,557.353394 605.012939,561.785889 599.702698,565.511902 
	C581.845703,578.041565 557.423035,572.249146 548.454712,553.401306 
	C540.178406,536.007629 547.543335,513.018311 564.746277,501.033997 
	C581.597473,489.294647 601.864929,491.250427 613.648071,504.940125 
	C614.865173,506.354126 618.184204,506.972687 620.200012,506.515259 
	C630.582947,504.159210 640.874695,501.390717 651.166077,498.645538 
	C657.107178,497.060791 657.316162,496.473969 654.387085,490.794861 
	C644.074463,470.799652 627.749390,458.889099 604.850830,454.483978 
M426.500000,512.996826 
	C417.513092,512.996826 408.511932,513.302368 399.544556,512.883728 
	C394.053131,512.627380 391.448761,515.218506 389.375946,520.512634 
	C391.876495,520.512634 393.820038,520.518921 395.763489,520.511658 
	C425.052368,520.402954 454.341217,520.293762 483.630096,520.181396 
	C489.531372,520.158752 490.037659,519.638916 490.362366,512.996826 
	C469.397522,512.996826 448.448761,512.996826 426.500000,512.996826 
M499.791840,497.521179 
	C500.275177,496.537018 500.758514,495.552856 501.538757,493.964111 
	C499.312805,493.964111 497.688446,493.964050 496.064056,493.964081 
	C474.294525,493.964111 452.522278,494.152374 430.757355,493.836426 
	C425.064789,493.753845 422.605713,496.559387 420.336945,501.195984 
	C421.453491,501.400848 422.078613,501.614136 422.704346,501.616119 
	C446.301239,501.691345 469.898895,501.835236 493.493805,501.643494 
	C495.452484,501.627625 497.392548,499.324158 499.791840,497.521179 
M470.494202,539.713379 
	C473.814728,539.729309 477.135223,539.753235 480.455750,539.759521 
	C486.729858,539.771423 487.403625,538.861816 485.858643,531.899292 
	C473.381317,531.899292 460.786957,532.170898 448.213837,531.773010 
	C442.762878,531.600586 440.379761,533.951904 439.013855,539.712769 
	C449.405365,539.712769 459.451019,539.712769 470.494202,539.713379 
z"/>
<path fill="#02ADD7" opacity="1.000000" stroke="none" 
	d="
M605.276489,454.598633 
	C627.749390,458.889099 644.074463,470.799652 654.387085,490.794861 
	C657.316162,496.473969 657.107178,497.060791 651.166077,498.645538 
	C640.874695,501.390717 630.582947,504.159210 620.200012,506.515259 
	C618.184204,506.972687 614.865173,506.354126 613.648071,504.940125 
	C601.864929,491.250427 581.597473,489.294647 564.746277,501.033997 
	C547.543335,513.018311 540.178406,536.007629 548.454712,553.401306 
	C557.423035,572.249146 581.845703,578.041565 599.702698,565.511902 
	C605.012939,561.785889 609.567993,557.353394 612.832336,550.668091 
	C610.343994,550.548889 608.594849,550.398132 606.845154,550.392212 
	C596.182495,550.356201 585.518066,550.456909 574.857544,550.296082 
	C569.401001,550.213745 568.192810,548.312927 570.346313,543.355591 
	C573.130371,536.946716 576.332764,530.718262 579.069702,524.290588 
	C580.881531,520.035706 583.679688,518.365662 588.338318,518.411499 
	C607.163391,518.596619 625.994812,518.288330 644.815918,518.616272 
	C650.066345,518.707703 652.492371,517.151245 654.596619,512.175110 
	C674.434448,465.262634 719.864380,449.835175 759.507690,457.648224 
	C794.292236,464.503693 816.781433,497.377197 812.467285,533.188843 
	C807.891052,571.175781 785.166260,594.325989 750.536316,606.692810 
	C727.754395,614.828613 704.969055,613.796936 683.429138,601.692383 
	C670.119751,594.213074 660.065125,583.616089 654.058411,569.412109 
	C653.234192,567.463074 652.370361,565.530762 651.213074,562.875305 
	C648.113281,567.434753 645.554565,571.625427 642.583313,575.499756 
	C622.180481,602.103882 595.193604,614.204407 561.850342,610.687805 
	C524.793152,606.779602 497.999969,573.739868 501.809143,535.888977 
	C505.393768,500.269379 525.512268,475.934174 557.488403,461.206024 
	C572.452637,454.313507 588.447021,452.388489 605.276489,454.598633 
M745.930359,567.533508 
	C757.403992,561.366943 765.722290,552.504272 769.555786,539.828125 
	C776.780090,515.939514 760.949646,492.058746 735.478271,493.560883 
	C712.579346,494.911346 697.375549,508.856720 692.381470,531.251160 
	C688.915222,546.794250 697.399353,562.982727 712.062744,569.305115 
	C723.429993,574.206299 734.408691,573.248230 745.930359,567.533508 
z"/>
<path fill="#B7C0BB" opacity="1.000000" stroke="none" 
	d="
M731.969727,79.938316 
	C729.553894,85.801720 726.661194,91.157387 720.573547,94.262695 
	C719.332581,94.895744 718.490234,97.803825 718.686218,99.523926 
	C720.238098,113.145012 722.945496,126.688370 723.644348,140.340256 
	C724.731323,161.574814 724.601318,182.875381 724.776794,204.149719 
	C724.811890,208.400360 725.678772,210.912796 730.480408,211.564087 
	C736.946899,212.441177 742.444214,215.660889 746.254639,221.035706 
	C747.898132,223.353958 749.639343,226.312927 749.614380,228.964630 
	C749.551392,235.669891 746.966736,242.099319 741.204773,245.533432 
	C737.963867,247.465027 733.022522,246.543594 728.058838,246.976196 
	C728.058838,252.158203 728.064819,258.050385 728.057617,263.942535 
	C728.044373,274.703674 728.409790,285.483673 727.885681,296.220093 
	C727.451050,305.122498 726.346008,314.037689 724.865356,322.834015 
	C721.675415,341.785675 716.602844,360.022736 702.468079,374.274994 
	C701.709900,375.039459 701.435364,376.283508 700.676575,377.836151 
	C699.964478,379.164215 699.511475,379.960388 698.763855,380.658020 
	C697.971252,380.187775 697.473206,379.816071 696.937378,379.475952 
	C696.899597,379.507507 696.786255,379.465057 696.563232,379.173523 
	C696.585938,377.935760 696.539734,376.727203 697.119995,376.081543 
	C714.013977,357.280640 720.491821,334.421295 723.102295,309.754028 
	C723.166077,309.332001 723.137390,309.157928 723.238831,308.585083 
	C723.873474,296.292969 724.732849,284.400909 724.776489,272.505829 
	C724.815308,261.940125 723.949158,251.371078 723.919922,240.859894 
	C726.803711,241.722900 729.198303,242.841782 731.709412,243.258850 
	C735.018494,243.808456 739.131836,246.469391 741.109253,240.570831 
	C749.287964,228.654785 747.805420,223.590027 734.606750,216.666962 
	C733.297180,215.980042 731.811951,215.580765 730.367188,215.206207 
	C721.590698,212.930801 721.586548,212.946152 721.320435,203.935257 
	C721.310608,203.602448 721.317017,203.269180 721.313782,202.936142 
	C720.967590,166.840302 722.364868,130.632385 714.254456,95.030823 
	C714.005371,93.937286 715.076294,91.762047 716.092346,91.284958 
	C724.136597,87.507912 729.275513,81.383774 732.122070,73.191345 
	C732.267883,75.592026 732.118774,77.765175 731.969727,79.938316 
z"/>
<path fill="#C4CEC8" opacity="1.000000" stroke="none" 
	d="
M732.334351,79.852448 
	C732.118774,77.765175 732.267883,75.592026 732.117798,72.739166 
	C732.948730,60.251953 728.620605,50.781544 719.052979,43.983246 
	C709.226990,37.001438 698.804138,37.196522 688.496460,42.984543 
	C685.923889,44.429077 684.500427,43.580414 682.338806,42.257561 
	C675.978699,38.365341 669.759827,33.668076 662.796631,31.427189 
	C609.848755,14.387660 559.086304,18.479965 510.125702,48.025784 
	C504.123901,44.467075 496.377655,42.497215 488.283325,44.535847 
	C473.651855,48.220901 466.127075,58.274075 464.038300,73.062988 
	C464.055206,74.129234 464.327881,75.083839 464.710266,76.420822 
	C464.959381,77.853104 465.098724,78.903000 464.957825,80.110825 
	C464.146820,81.167877 463.616089,82.067009 463.085388,82.966141 
	C458.980927,75.334427 460.557709,67.378281 463.738037,60.418156 
	C471.953522,42.438763 490.254425,35.920574 508.801147,43.173878 
	C510.256836,43.743172 512.809692,43.185776 514.121582,42.189445 
	C530.785278,29.533529 550.167358,24.163635 570.363403,21.099482 
	C579.187012,19.760750 588.116577,18.290190 596.992798,18.322605 
	C610.229309,18.370947 623.497070,19.320953 636.684753,20.584425 
	C649.831055,21.843935 662.203613,26.160259 673.955078,32.193542 
	C674.546082,32.496952 675.348022,32.582275 675.747681,33.036629 
	C681.873535,40.000702 688.808594,38.898163 696.652527,36.110195 
	C714.123352,29.900530 737.351685,49.892403 734.966370,66.084183 
	C734.292908,70.656097 736.933533,75.787689 732.334351,79.852448 
z"/>
<path fill="#9CA4A0" opacity="1.000000" stroke="none" 
	d="
M507.009460,418.748718 
	C502.254578,419.618134 497.719940,419.420807 493.498047,415.481750 
	C492.555298,413.261383 491.958984,411.589996 491.687134,409.992615 
	C492.597137,410.372559 493.237854,410.604828 493.760010,410.995544 
	C502.495331,417.532104 504.116333,417.496063 512.983887,410.986298 
	C518.816833,406.704315 524.748108,402.556213 531.018921,398.409668 
	C533.511658,398.693787 535.763000,398.512878 537.709045,399.198395 
	C580.045837,414.110901 622.212769,413.464905 664.278687,398.096344 
	C668.556702,396.533417 672.932129,395.237396 677.225098,393.856812 
	C677.187866,393.896118 677.081238,393.914825 676.739624,394.155334 
	C680.235229,398.740906 683.962402,403.189697 687.934204,407.408142 
	C694.850586,414.754059 700.935059,414.771179 708.034912,407.637207 
	C708.965515,406.702087 709.712219,405.583862 710.668823,404.923431 
	C708.692810,414.948425 697.151794,418.975647 689.980774,412.387146 
	C686.572937,409.256134 683.902893,405.304230 680.412048,402.287201 
	C677.717346,399.958313 675.688232,395.531036 670.503052,398.182190 
	C650.582581,408.367340 628.876038,411.546631 606.989746,412.732544 
	C583.799255,413.989105 561.006958,410.697021 538.990417,402.858582 
	C531.403259,400.157349 523.164185,403.497864 518.822998,410.761536 
	C517.648621,411.650970 516.474304,412.540375 514.794800,413.709381 
	C513.779114,414.527191 513.268494,415.065430 512.757935,415.603668 
	C512.757935,415.603668 512.329102,415.749847 511.827148,415.872192 
	C510.819794,416.519257 510.314392,417.044006 509.808990,417.568726 
	C509.808990,417.568726 509.667847,417.645081 509.335083,417.725708 
	C508.338043,418.120453 507.673767,418.434601 507.009460,418.748718 
z"/>
<path fill="#02ADD7" opacity="1.000000" stroke="none" 
	d="
M427.000000,512.996826 
	C448.448761,512.996826 469.397522,512.996826 490.362366,512.996826 
	C490.037659,519.638916 489.531372,520.158752 483.630096,520.181396 
	C454.341217,520.293762 425.052368,520.402954 395.763489,520.511658 
	C393.820038,520.518921 391.876495,520.512634 389.375946,520.512634 
	C391.448761,515.218506 394.053131,512.627380 399.544556,512.883728 
	C408.511932,513.302368 417.513092,512.996826 427.000000,512.996826 
z"/>
<path fill="#C4CEC8" opacity="1.000000" stroke="none" 
	d="
M519.184937,410.792267 
	C523.164185,403.497864 531.403259,400.157349 538.990417,402.858582 
	C561.006958,410.697021 583.799255,413.989105 606.989746,412.732544 
	C628.876038,411.546631 650.582581,408.367340 670.503052,398.182190 
	C675.688232,395.531036 677.717346,399.958313 680.412048,402.287201 
	C683.902893,405.304230 686.572937,409.256134 689.980774,412.387146 
	C697.151794,418.975647 708.692810,414.948425 710.759155,404.519104 
	C711.687439,398.580902 710.382324,393.967529 707.115540,389.960266 
	C704.540833,386.801910 701.752136,383.817993 699.058472,380.756592 
	C699.511475,379.960388 699.964478,379.164215 700.631042,378.205688 
	C708.252930,384.023376 714.658447,390.770416 714.832825,400.986633 
	C714.974976,409.312042 708.851013,414.013092 702.550049,417.189331 
	C697.086426,419.943451 691.537231,417.408630 687.372437,412.783356 
	C684.598022,409.702148 681.874329,406.573517 679.038940,403.549530 
	C676.701965,401.057220 674.225708,398.765198 670.380981,400.744385 
	C659.239868,406.479523 647.318298,409.590637 635.072937,412.063202 
	C617.787659,415.553528 600.275696,416.030670 582.997986,414.521790 
	C568.471436,413.253174 554.078735,409.316772 539.929749,405.451965 
	C534.692688,404.021454 530.674316,404.047699 526.335449,406.739624 
	C524.091797,408.131653 521.810974,409.463806 519.184937,410.792267 
z"/>
<path fill="#0FB1D9" opacity="1.000000" stroke="none" 
	d="
M499.566528,497.802338 
	C497.392548,499.324158 495.452484,501.627625 493.493805,501.643494 
	C469.898895,501.835236 446.301239,501.691345 422.704346,501.616119 
	C422.078613,501.614136 421.453491,501.400848 420.336945,501.195984 
	C422.605713,496.559387 425.064789,493.753845 430.757355,493.836426 
	C452.522278,494.152374 474.294525,493.964111 496.064056,493.964081 
	C497.688446,493.964050 499.312805,493.964111 501.538757,493.964111 
	C500.758514,495.552856 500.275177,496.537018 499.566528,497.802338 
z"/>
<path fill="#B5BEB9" opacity="1.000000" stroke="none" 
	d="
M463.118469,83.321030 
	C463.616089,82.067009 464.146820,81.167877 465.190735,80.346619 
	C468.701569,87.484222 473.411285,92.797546 481.117554,95.503090 
	C481.916992,96.851410 482.939484,97.996719 482.937561,99.140297 
	C482.933716,101.427666 482.368866,103.714088 481.860352,106.372772 
	C478.055450,126.940636 478.963989,147.224152 480.485382,167.523483 
	C481.580872,182.139740 482.642578,196.758636 483.664185,211.380203 
	C483.791992,213.209412 484.618042,215.807999 481.014160,214.761475 
	C480.738403,213.644150 480.462738,212.859360 480.187134,212.074585 
	C478.858612,195.399506 477.271545,178.739899 476.272186,162.045120 
	C475.212799,144.347778 474.076874,126.604935 477.869385,109.018234 
	C478.456116,106.297501 478.394440,103.436951 478.643982,100.507423 
	C472.146454,96.177216 466.037811,91.394424 463.118469,83.321030 
z"/>
<path fill="#C4CEC8" opacity="1.000000" stroke="none" 
	d="
M489.981018,364.023804 
	C488.441498,361.797211 486.432312,359.761841 485.435760,357.314148 
	C476.356415,335.014160 475.441925,311.531311 476.178833,287.942810 
	C476.570557,275.404724 478.063690,262.902527 478.943756,250.375992 
	C479.038025,249.034058 478.686920,247.366882 477.886292,246.386322 
	C477.514191,245.930603 475.578369,246.886551 474.334442,246.982468 
	C470.635895,247.267593 466.928955,247.443588 463.415466,247.029526 
	C468.423431,245.104126 473.226532,243.751953 478.067627,242.553223 
	C479.621521,242.168442 481.275726,242.188889 482.924408,242.484131 
	C482.862762,244.772263 482.762482,246.600311 482.658569,248.428162 
	C481.752289,264.369476 480.845306,280.310791 479.965698,296.288757 
	C480.193970,298.715118 480.395111,301.104767 480.274841,304.030396 
	C480.977936,315.708557 482.002472,326.850739 482.805969,338.143616 
	C482.952179,338.881622 483.319336,339.468964 483.808685,340.402344 
	C484.284790,342.165863 484.638733,343.583344 484.727631,345.248413 
	C484.905975,347.841705 485.130951,350.255951 485.841309,352.517761 
	C487.061646,356.403229 488.584930,360.193542 489.981018,364.023804 
z"/>
<path fill="#0FB1D9" opacity="1.000000" stroke="none" 
	d="
M469.995453,539.713074 
	C459.451019,539.712769 449.405365,539.712769 439.013855,539.712769 
	C440.379761,533.951904 442.762878,531.600586 448.213837,531.773010 
	C460.786957,532.170898 473.381317,531.899292 485.858643,531.899292 
	C487.403625,538.861816 486.729858,539.771423 480.455750,539.759521 
	C477.135223,539.753235 473.814728,539.729309 469.995453,539.713074 
z"/>
<path fill="#C4CEC8" opacity="1.000000" stroke="none" 
	d="
M491.362671,409.918640 
	C491.958984,411.589996 492.555298,413.261383 493.219421,415.249756 
	C487.168457,413.929199 482.661285,403.562958 486.196320,397.240509 
	C488.951630,392.312683 493.271973,388.262329 496.875793,383.805084 
	C497.986237,382.431671 499.027557,381.002380 500.484924,379.307007 
	C501.899963,380.274811 502.930573,381.534302 503.655792,382.953735 
	C500.480316,385.618317 497.470520,387.981842 494.767944,390.655853 
	C488.293884,397.061462 487.464844,402.188477 491.362671,409.918640 
z"/>
<path fill="#C4CEC8" opacity="1.000000" stroke="none" 
	d="
M479.759064,212.056259 
	C480.462738,212.859360 480.738403,213.644150 480.604492,214.882675 
	C479.598877,216.246552 479.002838,217.156662 478.440033,218.055710 
	C478.473267,218.044647 478.542786,218.035706 478.741455,217.565155 
	C474.494080,214.627487 470.764648,217.128891 466.563293,218.910889 
	C457.958679,223.264572 455.988678,226.481354 456.747253,234.228882 
	C456.320404,235.636276 456.164856,236.811890 456.009308,237.987488 
	C450.346588,233.818573 453.160889,224.640900 459.138489,219.544144 
	C465.009155,214.538544 472.118561,213.236847 479.759064,212.056259 
z"/>
<path fill="#AAB3AE" opacity="1.000000" stroke="none" 
	d="
M503.961151,382.793793 
	C502.930573,381.534302 501.899963,380.274811 500.564514,378.947083 
	C498.594513,376.798920 496.929352,374.719025 495.097107,372.033325 
	C494.360016,370.914185 493.790009,370.400787 493.220001,369.887390 
	C493.220001,369.887360 493.097778,369.448883 493.020355,368.919739 
	C492.376526,367.887146 491.810120,367.383698 491.243713,366.880219 
	C490.863617,366.133820 490.483551,365.387451 490.042236,364.332428 
	C488.584930,360.193542 487.061646,356.403229 485.841309,352.517761 
	C485.130951,350.255951 484.905975,347.841705 484.980957,345.499573 
	C489.428009,359.246216 496.901642,370.851410 506.649689,381.141541 
	C505.602356,381.821259 504.781738,382.307526 503.961151,382.793793 
z"/>
<path fill="#AAB3AE" opacity="1.000000" stroke="none" 
	d="
M456.048584,238.220123 
	C456.164856,236.811890 456.320404,235.636276 457.054810,234.394806 
	C458.159088,235.150803 458.823853,235.915588 459.187805,236.803650 
	C461.875732,243.362350 464.848969,244.840271 471.461884,242.468369 
	C473.587646,241.705887 475.496277,240.338135 477.809509,239.132172 
	C478.232819,238.651001 478.350891,238.284973 478.477783,237.872467 
	C478.486633,237.826004 478.579071,237.800018 479.075745,237.884567 
	C480.585846,237.751526 481.599274,237.533951 482.884064,237.258102 
	C482.884064,239.171402 482.884064,240.597687 482.884064,242.023956 
	C481.275726,242.188889 479.621521,242.168442 478.067627,242.553223 
	C473.226532,243.751953 468.423431,245.104126 463.316223,246.659531 
	C462.128845,246.453751 461.230835,245.985275 460.163605,244.897827 
	C458.709808,242.493118 457.425232,240.707382 456.140686,238.921646 
	C456.140686,238.921646 456.087891,238.452744 456.048584,238.220123 
z"/>
<path fill="#C4CEC8" opacity="1.000000" stroke="none" 
	d="
M456.120544,239.272217 
	C457.425232,240.707382 458.709808,242.493118 459.988281,244.648712 
	C458.688293,243.219986 457.394348,241.421387 456.120544,239.272217 
z"/>
<path fill="#C4CEC8" opacity="1.000000" stroke="none" 
	d="
M507.183960,419.029236 
	C507.673767,418.434601 508.338043,418.120453 509.278442,417.782471 
	C508.822479,418.275696 508.090454,418.792725 507.183960,419.029236 
z"/>
<path fill="#C4CEC8" opacity="1.000000" stroke="none" 
	d="
M513.091797,415.679962 
	C513.268494,415.065430 513.779114,414.527191 514.579834,413.939819 
	C514.388489,414.512543 513.907043,415.134399 513.091797,415.679962 
z"/>
<path fill="#C4CEC8" opacity="1.000000" stroke="none" 
	d="
M510.133545,417.653809 
	C510.314392,417.044006 510.819794,416.519257 511.617371,415.957642 
	C511.425751,416.526764 510.941925,417.132812 510.133545,417.653809 
z"/>
<path fill="#C4CEC8" opacity="1.000000" stroke="none" 
	d="
M493.201782,370.207855 
	C493.790009,370.400787 494.360016,370.914185 494.940338,371.743164 
	C494.361603,371.548584 493.772552,371.038452 493.201782,370.207855 
z"/>
<path fill="#C4CEC8" opacity="1.000000" stroke="none" 
	d="
M491.215698,367.202820 
	C491.810120,367.383698 492.376526,367.887146 492.969482,368.697937 
	C492.393250,368.511963 491.790466,368.018707 491.215698,367.202820 
z"/>
<path fill="#EBF8F2" opacity="1.000000" stroke="none" 
	d="
M745.597412,567.703918 
	C734.408691,573.248230 723.429993,574.206299 712.062744,569.305115 
	C697.399353,562.982727 688.915222,546.794250 692.381470,531.251160 
	C697.375549,508.856720 712.579346,494.911346 735.478271,493.560883 
	C760.949646,492.058746 776.780090,515.939514 769.555786,539.828125 
	C765.722290,552.504272 757.403992,561.366943 745.597412,567.703918 
z"/>
<path fill="#1C2425" opacity="1.000000" stroke="none" 
	d="
M506.876434,380.948120 
	C496.901642,370.851410 489.428009,359.246216 485.245972,345.251953 
	C484.638733,343.583344 484.284790,342.165863 483.854736,340.117371 
	C483.528046,338.988525 483.277527,338.490723 483.026978,337.992920 
	C482.002472,326.850739 480.977936,315.708557 480.816467,304.649231 
	C482.175964,309.858948 482.734650,314.980652 483.159027,320.113525 
	C486.441589,359.816376 506.417511,386.515564 544.649109,398.885712 
	C577.368347,409.472229 610.523682,409.705811 643.752197,401.942169 
	C684.087830,392.517975 709.501038,368.169250 717.922424,326.846039 
	C721.713379,308.244080 722.618591,289.531433 722.062805,270.697968 
	C720.963135,233.425934 719.549866,196.163284 718.361267,158.893707 
	C717.611816,135.393127 716.136780,112.036835 709.908813,89.162529 
	C702.025513,60.208340 684.324158,40.475193 655.713379,31.459192 
	C625.148315,21.827356 594.050049,22.284252 562.874756,28.672020 
	C540.368286,33.283554 519.956970,41.846317 504.039612,59.056049 
	C503.509552,58.469238 503.151642,58.183884 502.916077,57.574966 
	C504.959686,55.065624 506.880920,52.879845 508.864044,50.623688 
	C494.179565,42.263283 477.512268,47.060486 470.213104,61.360580 
	C463.285034,74.933586 468.077179,86.950432 482.800568,93.690941 
	C481.999847,94.337372 481.438538,94.818329 480.877258,95.299294 
	C473.411285,92.797546 468.701569,87.484222 465.471008,80.188690 
	C465.098724,78.903000 464.959381,77.853104 464.798523,76.032326 
	C464.616028,74.491409 464.455048,73.721367 464.294067,72.951332 
	C466.127075,58.274075 473.651855,48.220901 488.283325,44.535847 
	C496.377655,42.497215 504.123901,44.467075 510.125702,48.025784 
	C559.086304,18.479965 609.848755,14.387660 662.796631,31.427189 
	C669.759827,33.668076 675.978699,38.365341 682.338806,42.257561 
	C684.500427,43.580414 685.923889,44.429077 688.496460,42.984543 
	C698.804138,37.196522 709.226990,37.001438 719.052979,43.983246 
	C728.620605,50.781544 732.948730,60.251953 731.822998,72.511627 
	C729.275513,81.383774 724.136597,87.507912 716.092346,91.284958 
	C715.076294,91.762047 714.005371,93.937286 714.254456,95.030823 
	C722.364868,130.632385 720.967590,166.840302 721.313782,202.936142 
	C721.317017,203.269180 721.310608,203.602448 721.320435,203.935257 
	C721.586548,212.946152 721.590698,212.930801 730.367188,215.206207 
	C731.811951,215.580765 733.297180,215.980042 734.606750,216.666962 
	C747.805420,223.590027 749.287964,228.654785 740.728149,240.652695 
	C733.769714,243.831055 728.952332,239.174530 723.159973,237.088806 
	C723.292480,238.615341 723.387512,239.709412 723.482483,240.803497 
	C723.949158,251.371078 724.815308,261.940125 724.776489,272.505829 
	C724.732849,284.400909 723.873474,296.292969 723.065674,308.666687 
	C722.688110,309.248779 722.528931,309.403229 722.553833,309.443390 
	C722.679443,309.645935 722.853088,309.818726 723.009888,310.001953 
	C720.491821,334.421295 714.013977,357.280640 697.119995,376.081543 
	C696.539734,376.727203 696.585938,377.935760 696.372192,379.661621 
	C688.051575,381.348480 683.456177,388.213898 677.275208,392.559204 
	C677.075012,392.699951 677.257935,393.385742 677.262329,393.817444 
	C672.932129,395.237396 668.556702,396.533417 664.278687,398.096344 
	C622.212769,413.464905 580.045837,414.110901 537.709045,399.198395 
	C535.763000,398.512878 533.511658,398.693787 530.698486,398.236694 
	C529.662964,397.663483 529.331482,397.324768 529.192017,396.762421 
	C528.967896,395.970093 528.670288,395.218109 528.117493,394.860931 
	C522.485168,391.221710 516.831787,387.613678 511.127411,384.088959 
	C510.256165,383.550629 509.095520,383.480652 508.023376,382.862000 
	C507.610840,382.002655 507.243652,381.475403 506.876434,380.948120 
M710.628418,42.566002 
	C702.445068,39.870457 695.101501,41.918789 687.747986,46.243694 
	C690.038330,48.676270 692.149719,50.585030 693.844360,52.810982 
	C695.587952,55.101208 697.323120,56.467148 700.475098,55.924278 
	C704.414795,55.245758 707.187988,57.396053 708.964600,60.744167 
	C710.733032,64.076950 710.808533,67.378464 708.364380,70.562950 
	C707.737366,71.379898 707.060669,72.745506 707.324036,73.563797 
	C709.026062,78.851639 710.982361,84.057686 712.851624,89.280563 
	C727.379761,83.825546 733.025635,70.955826 726.973755,57.391628 
	C723.863953,50.421520 718.650513,45.457470 710.628418,42.566002 
M725.060974,216.546356 
	C724.021606,217.308685 722.261780,217.936676 722.089539,218.860657 
	C721.703979,220.928406 722.081238,223.145035 722.196838,225.298386 
	C722.630310,233.372284 726.502258,237.672699 734.495544,239.032745 
	C737.895691,239.611267 740.434998,238.902679 740.966919,235.091644 
	C739.521851,233.561783 738.172974,232.133759 736.886108,230.771408 
	C739.612549,230.771408 741.637756,230.771408 743.663025,230.771393 
	C742.854370,228.560287 742.692261,225.322708 741.116150,224.329971 
	C736.327942,221.313995 730.993286,219.165634 725.060974,216.546356 
z"/>
<path fill="#EECC9C" opacity="1.000000" stroke="none" 
	d="
M677.225098,393.856781 
	C677.257935,393.385742 677.075012,392.699951 677.275208,392.559204 
	C683.456177,388.213898 688.051575,381.348480 696.595215,379.953186 
	C696.786255,379.465057 696.899597,379.507507 696.429077,379.658997 
	C696.828735,381.221588 697.602478,382.704315 698.587219,384.030334 
	C701.539490,388.005188 704.942688,391.699188 707.461548,395.924988 
	C709.522522,399.382690 709.400024,403.192627 705.482544,406.000000 
	C702.946411,402.657776 703.161865,397.369690 697.468506,395.493469 
	C699.675232,400.265625 701.449402,404.102264 703.241394,407.977509 
	C698.795288,411.562927 695.016296,410.594330 691.731384,407.375427 
	C688.175781,403.891296 685.059937,399.960907 681.546753,396.429688 
	C680.387207,395.264191 678.587952,394.734985 677.081238,393.914825 
	C677.081238,393.914825 677.187866,393.896118 677.225098,393.856781 
z"/>
<path fill="#1F2525" opacity="1.000000" stroke="none" 
	d="
M676.739624,394.155334 
	C678.587952,394.734985 680.387207,395.264191 681.546753,396.429688 
	C685.059937,399.960907 688.175781,403.891296 691.731384,407.375427 
	C695.016296,410.594330 698.795288,411.562927 703.241394,407.977509 
	C701.449402,404.102264 699.675232,400.265625 697.468506,395.493469 
	C703.161865,397.369690 702.946411,402.657776 705.482544,406.000000 
	C709.400024,403.192627 709.522522,399.382690 707.461548,395.924988 
	C704.942688,391.699188 701.539490,388.005188 698.587219,384.030334 
	C697.602478,382.704315 696.828735,381.221588 696.466858,379.627441 
	C697.473206,379.816071 697.971252,380.187775 698.763855,380.658020 
	C701.752136,383.817993 704.540833,386.801910 707.115540,389.960266 
	C710.382324,393.967529 711.687439,398.580902 710.634399,404.146118 
	C709.712219,405.583862 708.965515,406.702087 708.034912,407.637207 
	C700.935059,414.771179 694.850586,414.754059 687.934204,407.408142 
	C683.962402,403.189697 680.235229,398.740906 676.739624,394.155334 
z"/>
<path fill="#9CA4A0" opacity="1.000000" stroke="none" 
	d="
M723.919922,240.859894 
	C723.387512,239.709412 723.292480,238.615341 723.159973,237.088806 
	C728.952332,239.174530 733.769714,243.831055 740.548584,240.946365 
	C739.131836,246.469391 735.018494,243.808456 731.709412,243.258850 
	C729.198303,242.841782 726.803711,241.722900 723.919922,240.859894 
z"/>
<path fill="#1F2525" opacity="1.000000" stroke="none" 
	d="
M723.102295,309.754028 
	C722.853088,309.818726 722.679443,309.645935 722.553833,309.443390 
	C722.528931,309.403229 722.688110,309.248779 722.935547,309.065430 
	C723.137390,309.157928 723.166077,309.332001 723.102295,309.754028 
z"/>
<path fill="#B5BEB9" opacity="1.000000" stroke="none" 
	d="
M464.038300,73.062988 
	C464.455048,73.721367 464.616028,74.491409 464.688782,75.649948 
	C464.327881,75.083839 464.055206,74.129234 464.038300,73.062988 
z"/>
<path fill="#1F2525" opacity="1.000000" stroke="none" 
	d="
M506.649689,381.141541 
	C507.243652,381.475403 507.610840,382.002655 507.855225,383.147156 
	C503.489838,387.223267 498.909515,390.349609 495.091919,394.226898 
	C490.521637,398.868622 490.544189,403.300903 494.125824,407.687469 
	C496.361664,404.183472 498.605804,400.666473 500.849915,397.149475 
	C501.446411,397.536865 502.042877,397.924286 502.639343,398.311676 
	C501.373199,400.519379 499.751678,402.606293 498.947968,404.971161 
	C498.243347,407.044525 497.547180,409.943329 498.463013,411.565186 
	C500.121460,414.502167 503.399597,413.973389 505.961884,412.357208 
	C509.322784,410.237244 512.380005,407.641510 515.691895,405.436646 
	C520.065002,402.525269 524.558289,399.794434 529.000000,396.986023 
	C529.331482,397.324768 529.662964,397.663483 530.314819,398.175171 
	C524.748108,402.556213 518.816833,406.704315 512.983887,410.986298 
	C504.116333,417.496063 502.495331,417.532104 493.760010,410.995544 
	C493.237854,410.604828 492.597137,410.372559 491.687103,409.992615 
	C487.464844,402.188477 488.293884,397.061462 494.767944,390.655853 
	C497.470520,387.981842 500.480316,385.618317 503.655792,382.953735 
	C504.781738,382.307526 505.602356,381.821259 506.649689,381.141541 
z"/>
<path fill="#1C2425" opacity="1.000000" stroke="none" 
	d="
M482.924408,242.484131 
	C482.884064,240.597687 482.884064,239.171402 482.884064,237.258102 
	C481.599274,237.533951 480.585846,237.751526 478.835724,237.522308 
	C485.996429,232.493851 483.765686,225.119263 483.798096,218.066803 
	C481.666687,218.066803 480.036743,218.066803 478.406799,218.066788 
	C479.002838,217.156662 479.598877,216.246552 480.604553,215.215225 
	C484.618042,215.807999 483.791992,213.209412 483.664185,211.380203 
	C482.642578,196.758636 481.580872,182.139740 480.485382,167.523483 
	C478.963989,147.224152 478.055450,126.940636 482.094666,106.475693 
	C482.946503,106.464172 483.388672,106.721619 483.870178,107.413177 
	C480.785370,127.720825 481.723297,147.640121 483.009491,167.592758 
	C484.324432,187.991318 486.245972,208.417816 486.135651,228.822525 
	C486.023468,249.572479 483.809540,270.314514 482.340332,291.047607 
	C482.213959,292.830231 480.770325,294.519501 479.938599,296.252136 
	C480.845306,280.310791 481.752289,264.369476 482.658569,248.428162 
	C482.762482,246.600311 482.862762,244.772263 482.924408,242.484131 
z"/>
<path fill="#0D0F0F" opacity="1.000000" stroke="none" 
	d="
M483.830841,106.979050 
	C483.388672,106.721619 482.946503,106.464172 482.270020,106.103821 
	C482.368866,103.714088 482.933716,101.427666 482.937561,99.140297 
	C482.939484,97.996719 481.916992,96.851410 481.117554,95.503082 
	C481.438538,94.818329 481.999847,94.337372 483.198822,93.775452 
	C485.288971,89.897316 486.881653,86.143272 488.074310,82.266159 
	C488.309692,81.500893 487.223785,80.003036 486.374237,79.283226 
	C480.952759,74.689621 479.935883,71.479614 482.574677,66.552963 
	C485.033112,61.963036 488.571075,60.976826 494.978882,62.486675 
	C496.418304,62.825829 498.365967,61.948669 499.789368,61.128014 
	C501.006775,60.426113 501.808289,59.002785 502.793732,57.898537 
	C503.151642,58.183884 503.509552,58.469238 503.907471,59.359955 
	C502.188263,62.369404 500.349884,64.720001 498.683228,67.186646 
	C490.532288,79.250076 486.874237,93.002426 483.830841,106.979050 
z"/>
<path fill="#74CDDC" opacity="1.000000" stroke="none" 
	d="
M483.870178,107.413170 
	C486.874237,93.002426 490.532288,79.250076 498.683228,67.186646 
	C500.349884,64.720001 502.188263,62.369404 504.079651,59.661407 
	C519.956970,41.846317 540.368286,33.283554 562.874756,28.672020 
	C594.050049,22.284252 625.148315,21.827356 655.713379,31.459192 
	C684.324158,40.475193 702.025513,60.208340 709.908813,89.162529 
	C716.136780,112.036835 717.611816,135.393127 718.361267,158.893707 
	C719.549866,196.163284 720.963135,233.425934 722.062805,270.697968 
	C722.618591,289.531433 721.713379,308.244080 717.922424,326.846039 
	C709.501038,368.169250 684.087830,392.517975 643.752197,401.942169 
	C610.523682,409.705811 577.368347,409.472229 544.649109,398.885712 
	C506.417511,386.515564 486.441589,359.816376 483.159027,320.113525 
	C482.734650,314.980652 482.175964,309.858948 481.137878,304.113251 
	C480.395111,301.104767 480.193970,298.715118 479.965729,296.288788 
	C480.770325,294.519501 482.213959,292.830231 482.340332,291.047607 
	C483.809540,270.314514 486.023468,249.572479 486.135651,228.822525 
	C486.245972,208.417816 484.324432,187.991318 483.009491,167.592758 
	C481.723297,147.640121 480.785370,127.720825 483.870178,107.413170 
M616.050171,141.966461 
	C616.866211,141.927872 617.682800,141.848129 618.498291,141.857285 
	C624.158447,141.920792 628.325073,139.431854 630.365967,134.604034 
	C632.452393,129.668396 631.027039,125.322006 627.239441,122.035728 
	C623.780579,119.034744 619.776978,116.661621 615.943542,113.235268 
	C615.106323,106.856659 611.426086,103.265274 604.604431,102.169884 
	C595.159912,100.653320 587.247803,104.036736 583.534363,111.180351 
	C583.441467,111.761200 583.348511,112.342041 583.125488,113.508820 
	C583.093750,113.706360 583.062012,113.903893 582.371643,114.347168 
	C575.832886,116.493744 571.611938,120.764656 570.319458,127.643021 
	C568.985168,134.743698 573.474792,140.543259 580.501038,141.000366 
	C580.501038,141.000366 580.518616,140.930344 580.299316,141.709351 
	C580.506775,145.513062 580.153564,149.450943 581.025757,153.095566 
	C583.754089,164.495972 591.883545,165.400253 597.432251,158.740997 
	C597.687317,158.434875 598.244507,158.380432 598.632812,158.220367 
	C599.108887,158.653336 599.500793,158.965118 599.840637,159.325851 
	C602.769653,162.434723 605.853760,164.247467 610.443481,162.394684 
	C615.225525,160.464233 616.316956,156.944290 616.018555,152.419830 
	C615.799805,149.102264 615.572144,145.785294 616.050171,141.966461 
M605.443420,89.172699 
	C606.919250,92.140038 608.035950,95.362053 609.930176,98.032608 
	C620.729431,113.257713 642.305176,117.551926 661.263733,108.440041 
	C675.248291,101.718758 682.493652,87.859917 679.973938,72.651253 
	C677.224792,56.057747 665.877319,44.899269 649.250244,42.818127 
	C638.800842,41.723785 629.136169,43.907276 620.233704,49.564156 
	C606.945007,58.008099 600.487854,74.744781 605.443420,89.172699 
M574.793823,53.710686 
	C560.442871,43.595810 540.403809,43.951683 525.658508,54.583363 
	C507.914307,67.377289 507.216980,95.113335 524.295105,108.812668 
	C538.126099,119.907288 559.702820,119.846092 574.543213,108.670105 
	C592.469543,95.170189 592.879822,68.199966 574.793823,53.710686 
z"/>
<path fill="#AAB3AE" opacity="1.000000" stroke="none" 
	d="
M482.805969,338.143616 
	C483.277527,338.490723 483.528046,338.988525 483.732544,339.771301 
	C483.319336,339.468964 482.952179,338.881622 482.805969,338.143616 
z"/>
<path fill="#EECC9C" opacity="1.000000" stroke="none" 
	d="
M478.440063,218.055725 
	C480.036743,218.066803 481.666687,218.066803 483.798096,218.066803 
	C483.765686,225.119263 485.996429,232.493851 478.339050,237.437744 
	C478.579071,237.800018 478.486633,237.826004 478.202637,237.394012 
	C477.253174,237.197998 476.587677,237.433960 475.561646,237.765854 
	C473.062927,238.727280 470.980713,239.791550 468.773865,240.413284 
	C465.146698,241.435135 462.728210,240.204437 462.012543,236.228683 
	C463.772125,235.055023 465.361877,233.994644 466.951630,232.934265 
	C466.490906,232.413925 466.030212,231.893585 465.569489,231.373245 
	C465.011353,231.534988 464.462799,231.762344 463.893188,231.845581 
	C462.462494,232.054642 461.022278,232.198563 459.585876,232.368591 
	C459.802826,230.822922 459.466583,228.753021 460.340942,227.830368 
	C462.907623,225.121902 465.955536,222.869446 469.164246,220.393600 
	C472.523254,219.577774 475.533020,218.806732 478.542786,218.035706 
	C478.542786,218.035706 478.473267,218.044647 478.440063,218.055725 
z"/>
<path fill="#212828" opacity="1.000000" stroke="none" 
	d="
M468.814972,220.438385 
	C465.955536,222.869446 462.907623,225.121902 460.340942,227.830368 
	C459.466583,228.753021 459.802826,230.822922 459.585876,232.368591 
	C461.022278,232.198563 462.462494,232.054642 463.893188,231.845581 
	C464.462799,231.762344 465.011353,231.534988 465.569489,231.373245 
	C466.030212,231.893585 466.490906,232.413925 466.951630,232.934265 
	C465.361877,233.994644 463.772125,235.055023 462.012543,236.228683 
	C462.728210,240.204437 465.146698,241.435135 468.773865,240.413284 
	C470.980713,239.791550 473.062927,238.727280 475.743774,238.102051 
	C476.692383,238.643967 477.098297,238.945633 477.504242,239.247284 
	C475.496277,240.338135 473.587646,241.705887 471.461884,242.468369 
	C464.848969,244.840271 461.875732,243.362350 459.187805,236.803650 
	C458.823853,235.915588 458.159088,235.150803 457.326050,234.163025 
	C455.988678,226.481354 457.958679,223.264572 466.807678,219.254791 
	C467.877197,219.823593 468.346069,220.130997 468.814972,220.438385 
z"/>
<path fill="#1C2425" opacity="1.000000" stroke="none" 
	d="
M469.164246,220.393600 
	C468.346069,220.130997 467.877197,219.823593 467.163940,219.172272 
	C470.764648,217.128891 474.494080,214.627487 478.741455,217.565140 
	C475.533020,218.806732 472.523254,219.577774 469.164246,220.393600 
z"/>
<path fill="#1C2425" opacity="1.000000" stroke="none" 
	d="
M477.809509,239.132172 
	C477.098297,238.945633 476.692383,238.643967 476.104309,238.006104 
	C476.587677,237.433960 477.253174,237.197998 478.193787,237.440491 
	C478.350891,238.284973 478.232819,238.651001 477.809509,239.132172 
z"/>
<path fill="#71C9D8" opacity="1.000000" stroke="none" 
	d="
M711.000000,42.698296 
	C718.650513,45.457470 723.863953,50.421520 726.973755,57.391628 
	C733.025635,70.955826 727.379761,83.825546 712.851624,89.280563 
	C710.982361,84.057686 709.026062,78.851639 707.324036,73.563797 
	C707.060669,72.745506 707.737366,71.379898 708.364380,70.562950 
	C710.808533,67.378464 710.733032,64.076950 708.964600,60.744167 
	C707.187988,57.396053 704.414795,55.245758 700.475098,55.924278 
	C697.323120,56.467148 695.587952,55.101208 693.844360,52.810982 
	C692.149719,50.585030 690.038330,48.676270 687.747986,46.243694 
	C695.101501,41.918789 702.445068,39.870457 711.000000,42.698296 
z"/>
<path fill="#70C8D7" opacity="1.000000" stroke="none" 
	d="
M502.916077,57.574974 
	C501.808289,59.002785 501.006775,60.426113 499.789368,61.128014 
	C498.365967,61.948669 496.418304,62.825829 494.978882,62.486675 
	C488.571075,60.976826 485.033112,61.963036 482.574677,66.552963 
	C479.935883,71.479614 480.952759,74.689621 486.374237,79.283226 
	C487.223785,80.003036 488.309692,81.500893 488.074310,82.266159 
	C486.881653,86.143272 485.288971,89.897316 483.438232,93.609978 
	C468.077179,86.950432 463.285034,74.933586 470.213104,61.360580 
	C477.512268,47.060486 494.179565,42.263283 508.864044,50.623688 
	C506.880920,52.879845 504.959686,55.065624 502.916077,57.574974 
z"/>
<path fill="#EECC9C" opacity="1.000000" stroke="none" 
	d="
M529.192017,396.762421 
	C524.558289,399.794434 520.065002,402.525269 515.691895,405.436646 
	C512.380005,407.641510 509.322784,410.237244 505.961884,412.357208 
	C503.399597,413.973389 500.121460,414.502167 498.463013,411.565186 
	C497.547180,409.943329 498.243347,407.044525 498.947968,404.971161 
	C499.751678,402.606293 501.373199,400.519379 502.639343,398.311676 
	C502.042877,397.924286 501.446411,397.536865 500.849915,397.149475 
	C498.605804,400.666473 496.361664,404.183472 494.125824,407.687469 
	C490.544189,403.300903 490.521637,398.868622 495.091919,394.226898 
	C498.909515,390.349609 503.489838,387.223267 507.900574,383.479187 
	C509.095520,383.480652 510.256165,383.550629 511.127411,384.088959 
	C516.831787,387.613678 522.485168,391.221710 528.117493,394.860931 
	C528.670288,395.218109 528.967896,395.970093 529.192017,396.762421 
z"/>
<path fill="#EECC9C" opacity="1.000000" stroke="none" 
	d="
M725.466187,216.612885 
	C730.993286,219.165634 736.327942,221.313995 741.116150,224.329971 
	C742.692261,225.322708 742.854370,228.560287 743.662964,230.771393 
	C741.637756,230.771408 739.612549,230.771408 736.886108,230.771408 
	C738.172974,232.133759 739.521851,233.561783 740.966919,235.091644 
	C740.434998,238.902679 737.895691,239.611267 734.495544,239.032745 
	C726.502258,237.672699 722.630310,233.372284 722.196838,225.298386 
	C722.081238,223.145035 721.703979,220.928406 722.089539,218.860657 
	C722.261780,217.936676 724.021606,217.308685 725.466187,216.612885 
z"/>
<path fill="#F1CE9E" opacity="1.000000" stroke="none" 
	d="
M580.518677,140.930344 
	C580.518616,140.930344 580.501038,141.000366 580.821167,140.603058 
	C580.610779,139.692978 580.169434,138.977219 579.535889,138.698868 
	C573.196655,135.913788 570.683167,130.134583 574.337097,124.349358 
	C576.293518,121.251694 580.080872,119.310394 583.362061,116.988525 
	C587.360840,118.802910 590.890869,121.224358 594.749695,121.991249 
	C602.458313,123.523247 609.347229,120.355713 616.140503,116.837288 
	C619.634827,119.620949 623.278870,121.765228 626.049255,124.726707 
	C630.413879,129.392456 629.167236,135.716568 623.376221,138.221191 
	C621.030090,139.235886 617.944580,138.540863 614.924561,138.431610 
	C612.775940,137.538193 610.898315,136.836990 608.734375,135.921906 
	C607.305664,135.455017 606.163269,135.201996 604.660828,134.813019 
	C601.524658,134.764542 598.748474,134.852051 595.579590,134.906128 
	C590.723816,136.241608 586.260681,137.610535 581.284058,139.062149 
	C580.686584,139.740005 580.602600,140.335175 580.518677,140.930344 
z"/>
<path fill="#232D2F" opacity="1.000000" stroke="none" 
	d="
M575.083374,53.920673 
	C592.879822,68.199966 592.469543,95.170189 574.543213,108.670105 
	C559.702820,119.846092 538.126099,119.907288 524.295105,108.812668 
	C507.216980,95.113335 507.914307,67.377289 525.658508,54.583363 
	C540.403809,43.951683 560.442871,43.595810 575.083374,53.920673 
M514.389160,79.840523 
	C514.856140,83.786194 514.781128,87.890343 515.880615,91.651100 
	C521.781921,111.835930 546.188110,120.817398 566.885132,110.620636 
	C587.621277,100.404602 592.559631,72.885567 576.039429,57.902206 
	C564.661377,47.582558 551.009644,46.673615 537.135559,51.335190 
	C524.127197,55.705883 516.000488,64.843666 514.389160,79.840523 
z"/>
<path fill="#080B0C" opacity="1.000000" stroke="none" 
	d="
M615.898438,116.564384 
	C609.347229,120.355713 602.458313,123.523247 594.749695,121.991249 
	C590.890869,121.224358 587.360840,118.802910 583.341309,116.643982 
	C583.010437,115.472580 583.020386,114.787003 583.030334,114.101418 
	C583.062012,113.903893 583.093750,113.706360 583.417603,113.054153 
	C583.790710,112.066673 583.871765,111.533852 583.952759,111.001038 
	C587.247803,104.036736 595.159912,100.653320 604.604431,102.169884 
	C611.426086,103.265274 615.106323,106.856659 615.940063,113.941177 
	C615.923828,115.286194 615.911133,115.925285 615.898438,116.564384 
z"/>
<path fill="#212828" opacity="1.000000" stroke="none" 
	d="
M649.973511,43.150517 
	C665.877319,44.899269 677.224792,56.057747 679.973938,72.651253 
	C682.493652,87.859917 675.248291,101.718758 661.263733,108.440041 
	C642.305176,117.551926 620.729431,113.257713 609.930176,98.032608 
	C608.035950,95.362053 606.919250,92.140038 605.628174,88.648132 
	C605.956360,88.004990 606.099792,87.886414 606.597839,87.825211 
	C617.292236,106.633102 631.039795,113.771751 649.528687,109.991043 
	C672.404480,105.313309 683.328918,86.479515 675.372498,65.143303 
	C671.000183,53.418251 661.738159,47.578876 650.000244,44.679108 
	C649.990234,43.965721 649.981873,43.558117 649.973511,43.150517 
z"/>
<path fill="#1C2425" opacity="1.000000" stroke="none" 
	d="
M609.020630,136.135788 
	C610.898315,136.836990 612.775940,137.538193 614.898804,138.915131 
	C615.212097,140.549942 615.280273,141.509003 615.348389,142.468063 
	C615.572144,145.785294 615.799805,149.102264 616.018555,152.419830 
	C616.316956,156.944290 615.225525,160.464233 610.443481,162.394684 
	C605.853760,164.247467 602.769653,162.434723 599.840637,159.325851 
	C599.500793,158.965118 599.108887,158.653336 598.632812,158.220367 
	C598.244507,158.380432 597.687317,158.434875 597.432251,158.740997 
	C591.883545,165.400253 583.754089,164.495972 581.025757,153.095566 
	C580.153564,149.450943 580.506775,145.513062 580.408997,141.319855 
	C580.602600,140.335175 580.686584,139.740005 581.390625,139.638138 
	C582.066162,140.517944 582.121582,140.904434 582.150513,141.723633 
	C582.980530,146.743240 583.360718,151.501266 584.917969,155.836487 
	C585.580566,157.680954 589.479980,160.216522 590.558411,159.687256 
	C593.117371,158.431396 596.034790,155.825287 596.687317,153.231522 
	C597.789856,148.849487 597.325989,144.055054 597.338379,139.433517 
	C597.340698,138.573044 596.485474,137.710251 596.024597,136.530121 
	C596.006226,135.787659 595.989258,135.363617 595.972290,134.939560 
	C598.748474,134.852051 601.524658,134.764542 604.658691,135.128601 
	C605.001648,136.000458 604.986877,136.420761 604.529297,136.842712 
	C602.965759,137.503555 600.940491,138.078857 600.870361,138.835510 
	C600.398254,143.924530 599.973572,149.073364 600.268921,154.160126 
	C600.494812,158.052063 603.449890,160.660492 607.257507,160.470627 
	C610.888916,160.289551 613.851746,158.222595 613.611511,153.744110 
	C613.452271,150.776398 613.127991,147.798477 613.246704,144.839935 
	C613.381531,141.478195 612.301819,139.171570 608.948730,137.851715 
	C608.972229,137.050613 608.996399,136.593201 609.020630,136.135788 
z"/>
<path fill="#232D2F" opacity="1.000000" stroke="none" 
	d="
M649.611877,42.984322 
	C649.981873,43.558117 649.990234,43.965721 649.541016,44.729839 
	C638.401978,44.082550 628.446289,46.275826 619.909546,52.849689 
	C608.468933,61.659718 603.804504,73.390999 606.243286,87.767838 
	C606.099792,87.886414 605.956360,88.004990 605.575317,88.272301 
	C600.487854,74.744781 606.945007,58.008099 620.233704,49.564156 
	C629.136169,43.907276 638.800842,41.723785 649.611877,42.984322 
z"/>
<path fill="#3F4240" opacity="1.000000" stroke="none" 
	d="
M615.699280,142.217255 
	C615.280273,141.509003 615.212097,140.549942 615.169739,139.107361 
	C617.944580,138.540863 621.030090,139.235886 623.376221,138.221191 
	C629.167236,135.716568 630.413879,129.392456 626.049255,124.726707 
	C623.278870,121.765228 619.634827,119.620949 616.140503,116.837288 
	C615.911133,115.925285 615.923828,115.286194 615.974976,114.329437 
	C619.776978,116.661621 623.780579,119.034744 627.239441,122.035728 
	C631.027039,125.322006 632.452393,129.668396 630.365967,134.604034 
	C628.325073,139.431854 624.158447,141.920792 618.498291,141.857285 
	C617.682800,141.848129 616.866211,141.927872 615.699280,142.217255 
z"/>
<path fill="#3F4240" opacity="1.000000" stroke="none" 
	d="
M582.700989,114.224289 
	C583.020386,114.787003 583.010437,115.472580 583.021240,116.502708 
	C580.080872,119.310394 576.293518,121.251694 574.337097,124.349358 
	C570.683167,130.134583 573.196655,135.913788 579.535889,138.698868 
	C580.169434,138.977219 580.610779,139.692978 580.849976,140.579163 
	C573.474792,140.543259 568.985168,134.743698 570.319458,127.643021 
	C571.611938,120.764656 575.832886,116.493744 582.700989,114.224289 
z"/>
<path fill="#3F4240" opacity="1.000000" stroke="none" 
	d="
M583.743530,111.090698 
	C583.871765,111.533852 583.790710,112.066673 583.482666,112.761185 
	C583.348511,112.342041 583.441467,111.761200 583.743530,111.090698 
z"/>
<path fill="#3F4240" opacity="1.000000" stroke="none" 
	d="
M595.579590,134.906128 
	C595.989258,135.363617 596.006226,135.787659 595.710571,136.730759 
	C590.990906,138.596848 586.583984,139.943893 582.177002,141.290939 
	C582.121582,140.904434 582.066162,140.517944 581.904175,139.555450 
	C586.260681,137.610535 590.723816,136.241608 595.579590,134.906128 
z"/>
<path fill="#3F4240" opacity="1.000000" stroke="none" 
	d="
M604.972107,136.841080 
	C604.986877,136.420761 605.001648,136.000458 605.018677,135.264557 
	C606.163269,135.201996 607.305664,135.455017 608.734375,135.921906 
	C608.996399,136.593201 608.972229,137.050613 608.593140,137.847351 
	C607.149536,137.738144 606.060852,137.289612 604.972107,136.841080 
z"/>
<path fill="#FBFBFB" opacity="1.000000" stroke="none" 
	d="
M514.445557,79.426514 
	C516.000488,64.843666 524.127197,55.705883 537.135559,51.335190 
	C551.009644,46.673615 564.661377,47.582558 576.039429,57.902206 
	C592.559631,72.885567 587.621277,100.404602 566.885132,110.620636 
	C546.188110,120.817398 521.781921,111.835930 515.880615,91.651100 
	C514.781128,87.890343 514.856140,83.786194 514.445557,79.426514 
M533.126221,95.424416 
	C539.710083,93.812973 543.558716,88.835907 543.055481,82.584099 
	C542.595215,76.866394 538.338074,72.216728 533.154907,71.770683 
	C526.748962,71.219406 521.540039,75.660858 520.963623,82.165733 
	C520.299438,89.661385 524.637817,94.721138 533.126221,95.424416 
z"/>
<path fill="#FBFBFB" opacity="1.000000" stroke="none" 
	d="
M606.597839,87.825211 
	C603.804504,73.390999 608.468933,61.659718 619.909546,52.849689 
	C628.446289,46.275826 638.401978,44.082550 649.542725,45.035622 
	C661.738159,47.578876 671.000183,53.418251 675.372498,65.143303 
	C683.328918,86.479515 672.404480,105.313309 649.528687,109.991043 
	C631.039795,113.771751 617.292236,106.633102 606.597839,87.825211 
M616.159119,89.273888 
	C621.743958,93.464752 626.843384,93.559830 630.937927,89.549370 
	C635.536804,85.044975 635.975525,77.883896 631.965027,72.787262 
	C628.545227,68.441452 623.195618,67.324570 618.652832,70.007988 
	C613.447021,73.083084 611.410522,79.703743 613.892334,85.719437 
	C614.327759,86.774971 615.071289,87.703377 616.159119,89.273888 
z"/>
<path fill="#F5F5F5" opacity="1.000000" stroke="none" 
	d="
M604.529297,136.842712 
	C606.060852,137.289612 607.149536,137.738144 608.593872,138.191055 
	C612.301819,139.171570 613.381531,141.478195 613.246704,144.839935 
	C613.127991,147.798477 613.452271,150.776398 613.611511,153.744110 
	C613.851746,158.222595 610.888916,160.289551 607.257507,160.470627 
	C603.449890,160.660492 600.494812,158.052063 600.268921,154.160126 
	C599.973572,149.073364 600.398254,143.924530 600.870361,138.835510 
	C600.940491,138.078857 602.965759,137.503555 604.529297,136.842712 
z"/>
<path fill="#F5F5F5" opacity="1.000000" stroke="none" 
	d="
M582.150513,141.723633 
	C586.583984,139.943893 590.990906,138.596848 595.711914,137.049164 
	C596.485474,137.710251 597.340698,138.573044 597.338379,139.433517 
	C597.325989,144.055054 597.789856,148.849487 596.687317,153.231522 
	C596.034790,155.825287 593.117371,158.431396 590.558411,159.687256 
	C589.479980,160.216522 585.580566,157.680954 584.917969,155.836487 
	C583.360718,151.501266 582.980530,146.743240 582.150513,141.723633 
z"/>
<path fill="#0D0F0F" opacity="1.000000" stroke="none" 
	d="
M532.747192,95.445457 
	C524.637817,94.721138 520.299438,89.661385 520.963623,82.165733 
	C521.540039,75.660858 526.748962,71.219406 533.154907,71.770683 
	C538.338074,72.216728 542.595215,76.866394 543.055481,82.584099 
	C543.558716,88.835907 539.710083,93.812973 532.747192,95.445457 
M535.270203,88.865181 
	C536.624146,88.498589 538.540283,88.529305 539.164124,87.646667 
	C539.718933,86.861717 539.123230,84.898109 538.468384,83.789650 
	C538.174622,83.292343 535.673828,83.338234 535.584290,83.607147 
	C535.087341,85.099144 535.023987,86.735519 535.270203,88.865181 
z"/>
<path fill="#0D0F0F" opacity="1.000000" stroke="none" 
	d="
M615.915833,88.982193 
	C615.071289,87.703377 614.327759,86.774971 613.892334,85.719437 
	C611.410522,79.703743 613.447021,73.083084 618.652832,70.007988 
	C623.195618,67.324570 628.545227,68.441452 631.965027,72.787262 
	C635.975525,77.883896 635.536804,85.044975 630.937927,89.549370 
	C626.843384,93.559830 621.743958,93.464752 615.915833,88.982193 
M630.100525,85.710236 
	C629.853210,83.889816 629.605896,82.069397 629.358521,80.248993 
	C628.307922,80.834373 626.607117,81.205437 626.330139,82.045799 
	C625.537598,84.450272 626.228943,86.341248 630.100525,85.710236 
z"/>
<path fill="#C4CEC8" opacity="1.000000" stroke="none" 
	d="
M535.041199,88.593826 
	C535.023987,86.735519 535.087341,85.099144 535.584290,83.607147 
	C535.673828,83.338234 538.174622,83.292343 538.468384,83.789650 
	C539.123230,84.898109 539.718933,86.861717 539.164124,87.646667 
	C538.540283,88.529305 536.624146,88.498589 535.041199,88.593826 
z"/>
<path fill="#EBF8F2" opacity="1.000000" stroke="none" 
	d="
M629.735474,85.893700 
	C626.228943,86.341248 625.537598,84.450272 626.330139,82.045799 
	C626.607117,81.205437 628.307922,80.834373 629.358521,80.248985 
	C629.605896,82.069397 629.853210,83.889816 629.735474,85.893700 
z"/>
</svg>