<svg version="1.1" id="Layer_1" xmlns="http://www.w3.org/2000/svg" xmlns:xlink="http://www.w3.org/1999/xlink" x="0px" y="0px"
	 width="100%" viewBox="0 0 779 646" enable-background="new 0 0 779 646" xml:space="preserve">
<path fill="#FEFFFF" opacity="1.000000" stroke="none" 
	d="
M780.000000,457.000000 
	C780.000000,520.314209 780.000000,583.628418 780.000000,646.971313 
	C520.430847,646.971313 260.861725,646.971313 1.000000,646.971313 
	C1.000000,495.310120 1.000000,343.620087 1.364094,191.658478 
	C1.833731,192.039413 1.980330,192.688248 2.038933,193.344910 
	C5.040835,226.981857 16.710953,257.276337 36.968056,284.297699 
	C38.691254,286.596313 39.975853,287.692780 43.008919,285.991638 
	C81.630791,264.330109 122.116806,248.087326 166.757065,244.310837 
	C170.068832,244.030670 170.367874,242.500443 170.348373,239.823074 
	C170.253830,226.836243 170.303421,213.848358 170.302292,200.860855 
	C170.301834,195.750412 170.302216,190.639969 170.302216,185.000000 
	C113.472878,185.000000 57.236439,185.000000 1.000000,185.000000 
	C1.000000,181.638336 1.000000,178.276657 1.462319,174.372330 
	C57.848572,173.829666 113.772507,173.829666 169.882416,173.829666 
	C169.882416,153.534866 169.882416,133.850998 169.882416,113.865906 
	C121.982574,110.573517 79.384048,92.419716 37.903378,69.376846 
	C33.552361,76.051056 29.202761,82.134567 25.459452,88.570709 
	C11.886206,111.908195 3.678019,136.963318 1.763878,164.071899 
	C1.338280,164.077698 1.169140,164.038849 1.000000,164.000000 
	C1.000000,109.738213 1.000000,55.476425 1.000000,1.000000 
	C55.356472,1.000000 109.713226,1.000000 164.236481,1.274516 
	C128.038315,4.450161 95.437393,16.992550 67.106979,40.058235 
	C59.611237,46.161022 52.805340,53.111111 45.064354,60.241714 
	C84.991928,82.357368 125.038788,99.244774 170.302414,102.298553 
	C170.302414,99.416435 170.302414,97.436737 170.302414,95.457039 
	C170.302551,71.796509 170.327301,48.135944 170.288940,24.475477 
	C170.276245,16.650183 170.100952,8.825151 170.000000,1.000000 
	C174.025497,1.000000 178.051010,1.000000 182.393951,1.396763 
	C182.477966,3.228904 182.042740,4.664011 182.040817,6.099700 
	C181.999451,36.899509 182.003616,67.699387 182.014862,98.499237 
	C182.015335,99.782021 182.169785,101.064743 182.289276,102.918289 
	C228.639603,102.734680 269.394501,87.201904 306.986145,61.465645 
	C286.483521,34.543030 241.360123,8.725946 207.312943,4.007955 
	C201.514359,3.204432 195.769623,2.012495 190.000000,1.000000 
	C386.583466,1.000000 583.166931,1.000000 780.000000,1.000000 
	C780.000000,143.023224 780.000000,285.046600 779.602966,427.493011 
	C778.868652,426.824951 778.516418,425.738220 778.196472,424.642059 
	C775.095215,414.017273 772.917542,403.009033 768.692505,392.852203 
	C761.906433,376.538483 751.351196,362.757172 736.162231,352.537048 
	C701.382629,328.044067 658.997498,338.973907 635.446777,368.990479 
	C635.092651,369.320587 635.004761,369.503387 634.564697,369.361084 
	C634.070557,366.554688 633.807861,364.073578 633.804993,361.592102 
	C633.768921,330.607880 633.770508,299.623657 633.762573,268.639404 
	C633.762024,266.690063 633.762451,264.740723 633.762451,262.538330 
	C609.601257,262.538330 586.062317,262.538330 562.412109,262.538330 
	C562.412109,354.548889 562.412109,446.192993 562.412109,537.841797 
	C586.300720,537.841797 609.733093,537.841797 633.788574,537.841797 
	C633.788574,531.222717 633.788574,524.861572 633.788574,518.500488 
	C634.177673,518.323792 634.566833,518.147095 634.955933,517.970398 
	C636.083984,519.337585 637.134094,520.778992 638.352356,522.060486 
	C648.351807,532.578613 659.593872,541.182007 674.141296,545.051025 
	C674.341919,545.154419 674.791199,545.111328 675.062622,545.370361 
	C708.881226,555.433472 741.291504,538.286377 758.310364,512.822388 
	C768.309631,498.929138 774.323669,483.680573 777.545105,467.250702 
	C778.220581,463.805786 779.174438,460.415466 780.000000,457.000000 
M474.412323,580.554504 
	C474.943298,580.311096 475.474274,580.067688 476.911285,579.959412 
	C479.860077,579.959412 482.808868,579.959412 486.084137,579.959412 
	C485.917358,577.807617 485.795898,576.240417 485.673248,574.658142 
	C330.022919,574.658142 174.778091,574.658142 19.128075,574.658142 
	C19.243341,576.559082 19.337690,578.115112 19.463774,580.194458 
	C39.804115,580.194458 59.703999,580.194458 79.499069,580.194458 
	C79.499069,584.990967 79.499069,589.226868 79.499069,593.831299 
	C77.641548,593.831299 76.171822,593.830322 74.702095,593.831421 
	C62.711937,593.840393 50.720936,593.787598 38.732838,593.949829 
	C37.460190,593.967102 36.204609,595.245178 34.941128,595.938354 
	C36.037342,596.674377 37.061428,597.572693 38.249966,598.101074 
	C39.449917,598.634583 40.884277,598.635803 42.092381,599.156738 
	C47.399025,601.445007 52.997719,603.302734 57.836937,606.353394 
	C62.020603,608.990784 61.083988,612.420410 56.487858,614.483032 
	C51.853996,616.562500 48.367683,615.844849 44.539051,612.068726 
	C42.758980,610.313049 38.533997,610.865234 35.410210,610.815125 
	C34.903397,610.806946 33.596764,613.859253 33.958706,614.230469 
	C36.011707,616.335999 38.204910,618.652100 40.830101,619.775269 
	C45.338306,621.704102 50.364944,622.425781 54.862572,624.373291 
	C58.630226,626.004700 62.080498,628.487671 65.432495,630.922302 
	C68.034203,632.811951 69.817627,632.229492 72.080193,629.809082 
	C66.194199,626.325073 60.631863,623.032654 54.446983,619.371765 
	C57.674835,618.570251 60.205513,618.469727 62.124817,617.335022 
	C64.661888,615.835205 68.261612,613.721741 68.543839,611.507507 
	C68.817505,609.360291 65.873177,606.234619 63.612198,604.478333 
	C60.871593,602.349548 57.365265,601.206421 53.421391,599.256653 
	C62.781200,599.256653 71.128456,599.256653 79.878120,599.256653 
	C79.878120,604.812012 79.841309,609.950562 79.886414,615.088379 
	C79.961288,623.616333 80.053200,623.695190 89.322556,625.276733 
	C89.322556,610.294739 89.322556,595.389587 89.322556,580.362793 
	C95.590851,580.362793 101.314468,580.362793 107.184540,580.362793 
	C107.184540,592.227661 107.193550,603.722839 107.181488,615.218018 
	C107.172928,623.369934 108.136505,624.391541 117.040878,625.101257 
	C117.040878,610.155212 117.040878,595.239807 117.040878,580.389038 
	C135.204559,580.389038 152.919754,580.389038 170.626724,580.389038 
	C170.626724,585.532410 170.626724,590.272156 170.626724,595.164246 
	C162.923767,595.164246 155.594513,595.108276 148.266693,595.185425 
	C143.942612,595.230957 139.600708,595.287292 135.304718,595.717285 
	C132.307877,596.017212 130.883835,597.699036 133.466064,600.349060 
	C136.012802,602.962708 138.581848,605.656189 141.547592,607.734680 
	C145.367905,610.412048 147.440826,609.098694 148.097061,604.587646 
	C148.290314,603.259094 149.773514,601.112061 150.747665,601.065674 
	C157.334290,600.752319 163.942963,600.902161 171.001968,600.902161 
	C171.001968,606.166443 171.004852,610.797791 171.001328,615.429138 
	C170.995010,623.727417 171.679428,624.452454 180.683060,625.110229 
	C180.683060,610.169617 180.683060,595.263794 180.683060,580.278503 
	C189.163025,580.278503 197.081375,580.278503 205.014481,580.278503 
	C205.014481,586.763062 205.014481,592.952087 205.014481,598.873596 
	C201.598679,599.438599 198.711273,599.916138 195.823853,600.393738 
	C195.665009,601.129028 195.506165,601.864380 195.347321,602.599731 
	C200.369644,605.625061 205.270432,608.885620 210.468597,611.570496 
	C212.855255,612.803284 215.102982,611.918518 215.016556,608.469238 
	C214.989410,607.385925 215.180252,606.297119 215.262009,605.321716 
	C224.757767,605.321716 233.843018,605.321716 242.906143,605.321716 
	C243.221039,611.746399 243.519699,617.839600 243.828918,624.148376 
	C241.510086,624.785095 238.286346,625.670227 234.697968,626.655457 
	C239.780762,633.000793 241.724045,633.498291 247.464050,630.517944 
	C248.349960,630.057922 249.353882,628.966431 250.047028,629.147583 
	C252.586517,629.811096 255.017838,630.888672 257.489868,631.810425 
	C256.326233,633.605408 255.545334,636.344116 253.920929,637.002930 
	C250.316879,638.464661 246.311890,639.469788 242.430969,639.616150 
	C231.170654,640.041077 220.771500,636.713501 210.952271,631.324646 
	C209.032669,630.271240 206.688431,627.982178 204.753036,632.200317 
	C208.385788,633.994812 211.845306,635.919312 215.469604,637.454895 
	C228.034637,642.778625 240.923981,646.673523 254.758087,643.819153 
	C259.310150,642.880005 264.258514,641.217224 264.831116,635.585815 
	C265.408051,629.911621 260.593079,628.042969 256.418793,626.533386 
	C253.460083,625.463318 252.802475,623.902466 252.834290,621.047668 
	C252.971756,608.717285 252.896194,596.384583 252.932587,584.052917 
	C252.936295,582.795776 253.170685,581.539368 253.296722,580.295532 
	C275.612579,580.295532 297.533478,580.295532 319.515869,580.295532 
	C319.515869,583.656738 319.515869,586.698059 319.515869,590.198730 
	C302.800568,590.198730 286.576691,590.198730 270.193787,590.198730 
	C272.447113,598.310852 279.256470,594.677185 284.505188,596.232300 
	C279.691345,601.466003 281.448730,605.989624 285.664276,609.869690 
	C290.539368,614.356812 295.601532,618.660400 300.797729,622.771606 
	C304.003815,625.308289 304.184143,625.080383 307.245514,622.221436 
	C302.841125,618.865967 297.955566,615.884460 294.095490,611.907593 
	C291.994110,609.742615 289.982849,605.217468 290.898621,602.961609 
	C292.090942,600.024536 296.006012,596.810669 299.147034,596.333496 
	C305.761627,595.328552 312.635162,596.027954 320.018768,596.027954 
	C320.018768,602.637207 320.068451,608.927979 320.006531,615.217712 
	C319.924713,623.528137 320.342773,624.034119 329.448608,625.167725 
	C329.448608,610.214417 329.448608,595.315613 329.448608,580.364258 
	C338.044250,580.364258 346.099274,580.364258 354.074341,580.364258 
	C354.074341,586.833130 354.074341,592.919067 354.074341,598.867065 
	C350.748413,599.401245 347.820770,599.871460 344.893158,600.341675 
	C344.768768,600.960571 344.644409,601.579407 344.520020,602.198303 
	C348.101776,604.706665 351.550659,607.437500 355.294708,609.674133 
	C361.857147,613.594482 363.304199,612.858704 364.509430,605.372375 
	C373.660095,605.372375 382.850800,605.372375 392.227539,605.372375 
	C392.227539,608.916138 392.230316,612.078613 392.227020,615.241089 
	C392.218262,623.578491 392.601318,623.995850 401.857910,625.261353 
	C401.857910,610.296326 401.857910,595.386230 401.857910,580.291504 
	C410.384766,580.291504 418.443420,580.291504 426.724609,580.291504 
	C426.724609,586.688232 426.724609,592.766479 426.724609,598.798462 
	C423.325653,599.361938 420.221283,599.876587 417.116882,600.391235 
	C416.985565,600.952454 416.854279,601.513611 416.722961,602.074829 
	C420.323212,604.602539 423.780426,607.372131 427.555084,609.604980 
	C434.314911,613.603516 435.681244,612.894836 437.159302,605.291077 
	C446.229492,605.291077 455.311951,605.291077 464.876404,605.291077 
	C464.876404,611.178650 464.876404,616.782471 464.876404,622.096741 
	C467.652252,623.183167 469.908020,624.066040 472.147339,625.760376 
	C470.009735,630.540649 470.784119,631.958923 475.461884,632.858521 
	C478.856140,633.511169 482.156403,634.652893 485.602570,635.605286 
	C487.116699,632.518250 485.209473,631.065552 482.542358,629.759949 
	C479.578461,628.309082 476.743805,626.594116 474.153046,624.099304 
	C474.117065,609.738342 474.081085,595.377380 474.412323,580.554504 
M415.499969,537.770691 
	C426.829437,537.767822 438.162292,537.606445 449.486633,537.846130 
	C453.582581,537.932800 454.816467,536.774719 454.805878,532.547058 
	C454.661713,475.066315 454.705475,417.585114 454.717285,360.104004 
	C454.717621,358.516113 454.878265,356.928314 454.996490,354.743073 
	C467.522125,354.743073 479.567444,354.743073 491.511047,354.743073 
	C491.511047,344.856567 491.511047,335.607086 491.511047,325.748108 
	C479.090790,325.748108 467.037262,325.748108 454.560669,325.748108 
	C454.560669,307.035034 454.560669,288.937592 454.560669,270.529480 
	C426.898407,270.529480 399.687164,270.529480 371.914246,270.529480 
	C371.914246,289.092804 371.914246,307.323944 371.914246,326.120911 
	C358.639374,326.120911 345.914246,326.120911 333.123718,326.120911 
	C333.123718,335.956390 333.123718,345.212189 333.123718,355.025879 
	C346.124023,355.025879 358.851135,355.025879 372.102478,355.025879 
	C372.102478,416.129120 372.102478,476.673340 372.102478,537.770569 
	C386.592133,537.770569 400.546021,537.770569 415.499969,537.770691 
M281.371033,89.917419 
	C250.232468,105.758835 217.268066,114.370430 182.396881,114.313232 
	C182.396881,134.485184 182.396881,154.023926 182.396881,173.460098 
	C238.758087,173.460098 294.643951,173.460098 350.480804,173.460098 
	C353.696289,146.774582 332.378845,86.597595 314.506165,71.054832 
	C303.635498,77.250061 292.831238,83.407463 281.371033,89.917419 
M67.500023,387.844513 
	C50.747074,387.844513 33.994125,387.844513 17.284412,387.844513 
	C17.284412,438.271118 17.284412,487.996460 17.284412,537.673706 
	C44.683136,537.673706 71.737221,537.673706 98.761253,537.673706 
	C98.761253,487.576660 98.761253,437.845673 98.761253,387.844482 
	C88.452568,387.844482 78.476303,387.844482 67.500023,387.844513 
M182.017181,228.495819 
	C182.017181,233.429642 182.017181,238.363464 182.017181,243.726288 
	C230.860306,243.412933 273.592865,260.235474 313.373383,286.822662 
	C336.675995,256.560272 348.991211,222.999313 350.806793,185.339630 
	C294.240356,185.339630 238.351944,185.339630 182.017197,185.339630 
	C182.017197,199.586685 182.017197,213.542160 182.017181,228.495819 
M286.097260,283.417908 
	C253.915863,265.442413 219.725616,254.953522 182.389084,255.090073 
	C182.389084,288.333588 182.389084,321.035217 182.389084,353.711517 
	C220.977982,356.144165 289.109619,323.801971 305.402069,295.064270 
	C299.195526,291.318176 292.962952,287.556366 286.097260,283.417908 
M128.819260,262.285889 
	C100.236259,269.911285 73.433578,281.713409 47.103584,296.718292 
	C80.714203,332.463623 121.152946,351.630310 169.862671,354.219208 
	C169.862671,321.007355 169.862671,288.521667 169.862671,254.631134 
	C155.991791,257.211975 142.807907,259.664978 128.819260,262.285889 
M522.481323,477.126740 
	C526.227722,477.126740 529.974060,477.126740 533.566406,477.126740 
	C533.566406,461.617920 533.566406,446.917114 533.566406,432.365295 
	C516.956787,432.365295 500.764801,432.365295 484.674744,432.365295 
	C484.674744,447.473083 484.674744,462.162231 484.674744,477.125458 
	C497.225006,477.125458 509.356537,477.125458 522.481323,477.126740 
M135.908524,515.500000 
	C135.908524,522.923950 135.908524,530.347900 135.908524,537.714233 
	C163.689423,537.714233 190.753784,537.714233 217.740234,537.714233 
	C217.740234,487.617828 217.740234,437.874969 217.740234,388.207092 
	C190.338150,388.207092 163.279007,388.207092 135.907501,388.207092 
	C135.907501,430.558960 135.907501,472.529480 135.908524,515.500000 
M246.939774,468.500000 
	C246.939774,491.570404 246.939774,514.640808 246.939774,537.771973 
	C274.739105,537.771973 301.788879,537.771973 328.941528,537.771973 
	C328.941528,487.742859 328.941528,438.031067 328.941528,388.204926 
	C301.506653,388.204926 274.340790,388.204926 246.939758,388.204926 
	C246.939758,414.908203 246.939758,441.204102 246.939774,468.500000 
z"/>
<path fill="#035199" opacity="1.000000" stroke="none" 
	d="
M674.791199,545.111328 
	C674.791199,545.111328 674.341919,545.154419 673.992676,544.737854 
	C672.785645,543.316833 672.122925,541.937500 671.036621,541.372253 
	C666.138123,538.823364 660.965698,536.771423 656.195129,534.015686 
	C652.671448,531.980164 649.420654,529.349365 646.398804,526.598694 
	C642.399048,522.957825 638.741455,518.941223 635.199890,515.352722 
	C630.859436,516.659119 630.741516,519.613708 631.074463,522.736877 
	C631.337097,525.200500 631.652344,527.660889 632.033691,530.108826 
	C632.664978,534.162476 630.851746,535.158691 626.982788,535.124329 
	C607.485229,534.951294 587.985229,535.054199 568.486084,535.026428 
	C567.085388,535.024414 565.685059,534.751343 564.445557,534.621216 
	C564.445557,444.546204 564.445557,355.043762 564.445557,265.211884 
	C566.075195,265.121002 567.536804,264.969635 568.998535,264.968567 
	C587.830994,264.954742 606.663513,264.953857 625.495972,264.969513 
	C631.535400,264.974518 632.002747,265.426178 632.011719,271.536896 
	C632.037415,289.036102 632.141479,306.536377 631.986816,324.034241 
	C631.863464,337.994263 631.413696,351.951508 631.089355,365.909546 
	C631.021912,368.814911 632.124268,369.942688 634.916931,369.686188 
	C635.004761,369.503387 635.092651,369.320587 635.826538,369.036743 
	C640.210327,366.061829 644.014221,363.268951 647.667236,360.291046 
	C651.298096,357.331177 654.323730,353.176208 658.419373,351.335236 
	C666.442627,347.728790 674.628479,344.526825 683.344238,342.319855 
	C697.621033,338.704712 710.338196,342.479889 723.226257,347.263641 
	C727.683716,348.918152 730.770386,353.809174 736.348511,352.829437 
	C751.351196,362.757172 761.906433,376.538483 768.692505,392.852203 
	C772.917542,403.009033 775.095215,414.017273 778.196472,424.642059 
	C778.516418,425.738220 778.868652,426.824951 779.602966,427.958008 
	C780.000000,437.354218 780.000000,446.708466 780.000000,456.531342 
	C779.174438,460.415466 778.220581,463.805786 777.545105,467.250702 
	C774.323669,483.680573 768.309631,498.929138 757.944275,512.819641 
	C754.104614,515.927368 750.927368,518.870117 747.719055,521.778687 
	C743.541321,525.566223 739.821716,530.189087 735.022339,532.875427 
	C729.326477,536.063477 723.514221,539.253479 717.370667,541.863708 
	C708.625061,545.579407 700.255981,547.219238 691.202820,546.911255 
	C685.718262,546.724670 680.260803,545.738342 674.791199,545.111328 
M693.757935,487.262695 
	C715.532288,464.742279 717.254272,422.185455 697.373291,397.916534 
	C682.012329,379.165100 659.492126,378.942474 643.792480,397.386780 
	C624.714355,419.800201 624.729797,461.117950 643.824707,483.749969 
	C657.996765,500.547180 676.540283,502.050873 693.757935,487.262695 
z"/>
<path fill="#838280" opacity="1.000000" stroke="none" 
	d="
M2.020336,164.027252 
	C3.678019,136.963318 11.886206,111.908195 25.459452,88.570709 
	C29.202761,82.134567 33.552361,76.051056 37.903378,69.376846 
	C79.384048,92.419716 121.982574,110.573517 169.882416,113.865906 
	C169.882416,133.850998 169.882416,153.534866 169.882416,173.829666 
	C113.772507,173.829666 57.848572,173.829666 1.462319,173.914825 
	C1.000000,173.555557 1.000000,173.111099 1.318951,172.086136 
	C1.765380,169.012833 1.892858,166.520035 2.020336,164.027252 
z"/>
<path fill="#838281" opacity="1.000000" stroke="none" 
	d="
M1.000000,185.428467 
	C57.236439,185.000000 113.472878,185.000000 170.302216,185.000000 
	C170.302216,190.639969 170.301834,195.750412 170.302292,200.860855 
	C170.303421,213.848358 170.253830,226.836243 170.348373,239.823074 
	C170.367874,242.500443 170.068832,244.030670 166.757065,244.310837 
	C122.116806,248.087326 81.630791,264.330109 43.008919,285.991638 
	C39.975853,287.692780 38.691254,286.596313 36.968056,284.297699 
	C16.710953,257.276337 5.040835,226.981857 2.038933,193.344910 
	C1.980330,192.688248 1.833731,192.039413 1.364094,191.193466 
	C1.000000,189.285645 1.000000,187.571289 1.000000,185.428467 
z"/>
<path fill="#848381" opacity="1.000000" stroke="none" 
	d="
M189.562500,1.000000 
	C195.769623,2.012495 201.514359,3.204432 207.312943,4.007955 
	C241.360123,8.725946 286.483521,34.543030 306.986145,61.465645 
	C269.394501,87.201904 228.639603,102.734680 182.289276,102.918289 
	C182.169785,101.064743 182.015335,99.782021 182.014862,98.499237 
	C182.003616,67.699387 181.999451,36.899509 182.040817,6.099700 
	C182.042740,4.664011 182.477966,3.228904 182.855682,1.396763 
	C185.041672,1.000000 187.083328,1.000000 189.562500,1.000000 
z"/>
<path fill="#848381" opacity="1.000000" stroke="none" 
	d="
M169.583344,1.000000 
	C170.100952,8.825151 170.276245,16.650183 170.288940,24.475477 
	C170.327301,48.135944 170.302551,71.796509 170.302414,95.457039 
	C170.302414,97.436737 170.302414,99.416435 170.302414,102.298553 
	C125.038788,99.244774 84.991928,82.357368 45.064354,60.241714 
	C52.805340,53.111111 59.611237,46.161022 67.106979,40.058235 
	C95.437393,16.992550 128.038315,4.450161 164.701477,1.274516 
	C166.388885,1.000000 167.777786,1.000000 169.583344,1.000000 
z"/>
<path fill="#AFAEAC" opacity="1.000000" stroke="none" 
	d="
M1.763878,164.071899 
	C1.892858,166.520035 1.765380,169.012833 1.318951,171.752808 
	C1.000000,169.629440 1.000000,167.258896 1.000000,164.444168 
	C1.169140,164.038849 1.338280,164.077698 1.763878,164.071899 
z"/>
<path fill="#045299" opacity="1.000000" stroke="none" 
	d="
M414.999939,537.770630 
	C400.546021,537.770569 386.592133,537.770569 372.102478,537.770569 
	C372.102478,476.673340 372.102478,416.129120 372.102478,355.025879 
	C358.851135,355.025879 346.124023,355.025879 333.123718,355.025879 
	C333.123718,345.212189 333.123718,335.956390 333.123718,326.120911 
	C345.914246,326.120911 358.639374,326.120911 371.914246,326.120911 
	C371.914246,307.323944 371.914246,289.092804 371.914246,270.529480 
	C399.687164,270.529480 426.898407,270.529480 454.560669,270.529480 
	C454.560669,288.937592 454.560669,307.035034 454.560669,325.748108 
	C467.037262,325.748108 479.090790,325.748108 491.511047,325.748108 
	C491.511047,335.607086 491.511047,344.856567 491.511047,354.743073 
	C479.567444,354.743073 467.522125,354.743073 454.996490,354.743073 
	C454.878265,356.928314 454.717621,358.516113 454.717285,360.104004 
	C454.705475,417.585114 454.661713,475.066315 454.805878,532.547058 
	C454.816467,536.774719 453.582581,537.932800 449.486633,537.846130 
	C438.162292,537.606445 426.829437,537.767822 414.999939,537.770630 
z"/>
<path fill="#848381" opacity="1.000000" stroke="none" 
	d="
M281.698975,89.741142 
	C292.831238,83.407463 303.635498,77.250061 314.506165,71.054832 
	C332.378845,86.597595 353.696289,146.774582 350.480804,173.460098 
	C294.643951,173.460098 238.758087,173.460098 182.396881,173.460098 
	C182.396881,154.023926 182.396881,134.485184 182.396881,114.313232 
	C217.268066,114.370430 250.232468,105.758835 281.698975,89.741142 
z"/>
<path fill="#035198" opacity="1.000000" stroke="none" 
	d="
M68.000031,387.844482 
	C78.476303,387.844482 88.452568,387.844482 98.761253,387.844482 
	C98.761253,437.845673 98.761253,487.576660 98.761253,537.673706 
	C71.737221,537.673706 44.683136,537.673706 17.284412,537.673706 
	C17.284412,487.996460 17.284412,438.271118 17.284412,387.844513 
	C33.994125,387.844513 50.747074,387.844513 68.000031,387.844482 
z"/>
<path fill="#838381" opacity="1.000000" stroke="none" 
	d="
M182.017181,227.996735 
	C182.017197,213.542160 182.017197,199.586685 182.017197,185.339630 
	C238.351944,185.339630 294.240356,185.339630 350.806793,185.339630 
	C348.991211,222.999313 336.675995,256.560272 313.373383,286.822662 
	C273.592865,260.235474 230.860306,243.412933 182.017181,243.726288 
	C182.017181,238.363464 182.017181,233.429642 182.017181,227.996735 
z"/>
<path fill="#686666" opacity="1.000000" stroke="none" 
	d="
M472.163818,624.948914 
	C469.908020,624.066040 467.652252,623.183167 464.876404,622.096741 
	C464.876404,616.782471 464.876404,611.178650 464.876404,605.291077 
	C455.311951,605.291077 446.229492,605.291077 437.159302,605.291077 
	C435.681244,612.894836 434.314911,613.603516 427.555084,609.604980 
	C423.780426,607.372131 420.323212,604.602539 416.722961,602.074829 
	C416.854279,601.513611 416.985565,600.952454 417.116882,600.391235 
	C420.221283,599.876587 423.325653,599.361938 426.724609,598.798462 
	C426.724609,592.766479 426.724609,586.688232 426.724609,580.291504 
	C418.443420,580.291504 410.384766,580.291504 401.857910,580.291504 
	C401.857910,595.386230 401.857910,610.296326 401.857910,625.261353 
	C392.601318,623.995850 392.218262,623.578491 392.227020,615.241089 
	C392.230316,612.078613 392.227539,608.916138 392.227539,605.372375 
	C382.850800,605.372375 373.660095,605.372375 364.509430,605.372375 
	C363.304199,612.858704 361.857147,613.594482 355.294708,609.674133 
	C351.550659,607.437500 348.101776,604.706665 344.520020,602.198303 
	C344.644409,601.579407 344.768768,600.960571 344.893158,600.341675 
	C347.820770,599.871460 350.748413,599.401245 354.074341,598.867065 
	C354.074341,592.919067 354.074341,586.833130 354.074341,580.364258 
	C346.099274,580.364258 338.044250,580.364258 329.448608,580.364258 
	C329.448608,595.315613 329.448608,610.214417 329.448608,625.167725 
	C320.342773,624.034119 319.924713,623.528137 320.006531,615.217712 
	C320.068451,608.927979 320.018768,602.637207 320.018768,596.027954 
	C312.635162,596.027954 305.761627,595.328552 299.147034,596.333496 
	C296.006012,596.810669 292.090942,600.024536 290.898621,602.961609 
	C289.982849,605.217468 291.994110,609.742615 294.095490,611.907593 
	C297.955566,615.884460 302.841125,618.865967 307.245514,622.221436 
	C304.184143,625.080383 304.003815,625.308289 300.797729,622.771606 
	C295.601532,618.660400 290.539368,614.356812 285.664276,609.869690 
	C281.448730,605.989624 279.691345,601.466003 284.505188,596.232300 
	C279.256470,594.677185 272.447113,598.310852 270.193787,590.198730 
	C286.576691,590.198730 302.800568,590.198730 319.515869,590.198730 
	C319.515869,586.698059 319.515869,583.656738 319.515869,580.295532 
	C297.533478,580.295532 275.612579,580.295532 253.296722,580.295532 
	C253.170685,581.539368 252.936295,582.795776 252.932587,584.052917 
	C252.896194,596.384583 252.971756,608.717285 252.834290,621.047668 
	C252.802475,623.902466 253.460083,625.463318 256.418793,626.533386 
	C260.593079,628.042969 265.408051,629.911621 264.831116,635.585815 
	C264.258514,641.217224 259.310150,642.880005 254.758087,643.819153 
	C240.923981,646.673523 228.034637,642.778625 215.469604,637.454895 
	C211.845306,635.919312 208.385788,633.994812 204.753036,632.200317 
	C206.688431,627.982178 209.032669,630.271240 210.952271,631.324646 
	C220.771500,636.713501 231.170654,640.041077 242.430969,639.616150 
	C246.311890,639.469788 250.316879,638.464661 253.920929,637.002930 
	C255.545334,636.344116 256.326233,633.605408 257.489868,631.810425 
	C255.017838,630.888672 252.586517,629.811096 250.047028,629.147583 
	C249.353882,628.966431 248.349960,630.057922 247.464050,630.517944 
	C241.724045,633.498291 239.780762,633.000793 234.697968,626.655457 
	C238.286346,625.670227 241.510086,624.785095 243.828918,624.148376 
	C243.519699,617.839600 243.221039,611.746399 242.906143,605.321716 
	C233.843018,605.321716 224.757767,605.321716 215.262009,605.321716 
	C215.180252,606.297119 214.989410,607.385925 215.016556,608.469238 
	C215.102982,611.918518 212.855255,612.803284 210.468597,611.570496 
	C205.270432,608.885620 200.369644,605.625061 195.347321,602.599731 
	C195.506165,601.864380 195.665009,601.129028 195.823853,600.393738 
	C198.711273,599.916138 201.598679,599.438599 205.014481,598.873596 
	C205.014481,592.952087 205.014481,586.763062 205.014481,580.278503 
	C197.081375,580.278503 189.163025,580.278503 180.683060,580.278503 
	C180.683060,595.263794 180.683060,610.169617 180.683060,625.110229 
	C171.679428,624.452454 170.995010,623.727417 171.001328,615.429138 
	C171.004852,610.797791 171.001968,606.166443 171.001968,600.902161 
	C163.942963,600.902161 157.334290,600.752319 150.747665,601.065674 
	C149.773514,601.112061 148.290314,603.259094 148.097061,604.587646 
	C147.440826,609.098694 145.367905,610.412048 141.547592,607.734680 
	C138.581848,605.656189 136.012802,602.962708 133.466064,600.349060 
	C130.883835,597.699036 132.307877,596.017212 135.304718,595.717285 
	C139.600708,595.287292 143.942612,595.230957 148.266693,595.185425 
	C155.594513,595.108276 162.923767,595.164246 170.626724,595.164246 
	C170.626724,590.272156 170.626724,585.532410 170.626724,580.389038 
	C152.919754,580.389038 135.204559,580.389038 117.040878,580.389038 
	C117.040878,595.239807 117.040878,610.155212 117.040878,625.101257 
	C108.136505,624.391541 107.172928,623.369934 107.181488,615.218018 
	C107.193550,603.722839 107.184540,592.227661 107.184540,580.362793 
	C101.314468,580.362793 95.590851,580.362793 89.322556,580.362793 
	C89.322556,595.389587 89.322556,610.294739 89.322556,625.276733 
	C80.053200,623.695190 79.961288,623.616333 79.886414,615.088379 
	C79.841309,609.950562 79.878120,604.812012 79.878120,599.256653 
	C71.128456,599.256653 62.781200,599.256653 53.421391,599.256653 
	C57.365265,601.206421 60.871593,602.349548 63.612198,604.478333 
	C65.873177,606.234619 68.817505,609.360291 68.543839,611.507507 
	C68.261612,613.721741 64.661888,615.835205 62.124817,617.335022 
	C60.205513,618.469727 57.674835,618.570251 54.446983,619.371765 
	C60.631863,623.032654 66.194199,626.325073 72.080193,629.809082 
	C69.817627,632.229492 68.034203,632.811951 65.432495,630.922302 
	C62.080498,628.487671 58.630226,626.004700 54.862572,624.373291 
	C50.364944,622.425781 45.338306,621.704102 40.830101,619.775269 
	C38.204910,618.652100 36.011707,616.335999 33.958706,614.230469 
	C33.596764,613.859253 34.903397,610.806946 35.410210,610.815125 
	C38.533997,610.865234 42.758980,610.313049 44.539051,612.068726 
	C48.367683,615.844849 51.853996,616.562500 56.487858,614.483032 
	C61.083988,612.420410 62.020603,608.990784 57.836937,606.353394 
	C52.997719,603.302734 47.399025,601.445007 42.092381,599.156738 
	C40.884277,598.635803 39.449917,598.634583 38.249966,598.101074 
	C37.061428,597.572693 36.037342,596.674377 34.941116,595.938354 
	C36.204609,595.245178 37.460190,593.967102 38.732838,593.949829 
	C50.720936,593.787598 62.711937,593.840393 74.702095,593.831421 
	C76.171822,593.830322 77.641548,593.831299 79.499069,593.831299 
	C79.499069,589.226868 79.499069,584.990967 79.499069,580.194458 
	C59.703999,580.194458 39.804115,580.194458 19.463774,580.194458 
	C19.337690,578.115112 19.243341,576.559082 19.128075,574.658142 
	C174.778091,574.658142 330.022919,574.658142 485.673248,574.658142 
	C485.795898,576.240417 485.917358,577.807617 486.084137,579.959412 
	C482.808868,579.959412 479.860077,579.959412 476.415131,579.628418 
	C475.259216,579.242615 474.599457,579.187805 473.939697,579.132996 
	C473.974854,579.760803 474.009979,580.388611 474.045105,581.016418 
	C474.081085,595.377380 474.117065,609.738342 473.721527,624.538086 
	C472.914612,624.967529 472.539215,624.958191 472.163818,624.948914 
M460.679779,599.424194 
	C462.056671,599.279175 463.433594,599.134094 464.554504,599.015991 
	C464.554504,592.369568 464.554504,586.318909 464.554504,580.195374 
	C455.134155,580.195374 446.066742,580.195374 436.387360,580.195374 
	C436.387360,585.998474 436.239380,591.601135 436.542084,597.179260 
	C436.589142,598.046082 438.678772,599.468140 439.852356,599.497498 
	C446.479919,599.663635 453.116150,599.483154 460.679779,599.424194 
M243.246231,593.459961 
	C243.246231,589.059387 243.246231,584.658875 243.246231,580.362793 
	C233.447922,580.362793 224.404083,580.362793 215.283691,580.362793 
	C215.283691,586.820984 215.283691,592.893738 215.283691,599.107605 
	C224.636932,599.107605 233.684830,599.107605 243.024536,599.107605 
	C243.119995,597.368958 243.200134,595.909668 243.246231,593.459961 
M392.237396,589.506409 
	C392.237396,586.419861 392.237396,583.333313 392.237396,580.335693 
	C382.475861,580.335693 373.409729,580.335693 364.207123,580.335693 
	C364.207123,586.771118 364.207123,592.849548 364.207123,599.132568 
	C373.554321,599.132568 382.615082,599.132568 392.237427,599.132568 
	C392.237427,596.055725 392.237427,593.274414 392.237396,589.506409 
z"/>
<path fill="#848381" opacity="1.000000" stroke="none" 
	d="
M286.413818,283.606232 
	C292.962952,287.556366 299.195526,291.318176 305.402069,295.064270 
	C289.109619,323.801971 220.977982,356.144165 182.389084,353.711517 
	C182.389084,321.035217 182.389084,288.333588 182.389084,255.090073 
	C219.725616,254.953522 253.915863,265.442413 286.413818,283.606232 
z"/>
<path fill="#848381" opacity="1.000000" stroke="none" 
	d="
M129.221649,262.201965 
	C142.807907,259.664978 155.991791,257.211975 169.862671,254.631134 
	C169.862671,288.521667 169.862671,321.007355 169.862671,354.219208 
	C121.152946,351.630310 80.714203,332.463623 47.103584,296.718292 
	C73.433578,281.713409 100.236259,269.911285 129.221649,262.201965 
z"/>
<path fill="#085395" opacity="1.000000" stroke="none" 
	d="
M521.984680,477.126099 
	C509.356537,477.125458 497.225006,477.125458 484.674744,477.125458 
	C484.674744,462.162231 484.674744,447.473083 484.674744,432.365295 
	C500.764801,432.365295 516.956787,432.365295 533.566406,432.365295 
	C533.566406,446.917114 533.566406,461.617920 533.566406,477.126740 
	C529.974060,477.126740 526.227722,477.126740 521.984680,477.126099 
z"/>
<path fill="#2C618E" opacity="1.000000" stroke="none" 
	d="
M634.564697,369.361084 
	C632.124268,369.942688 631.021912,368.814911 631.089355,365.909546 
	C631.413696,351.951508 631.863464,337.994263 631.986816,324.034241 
	C632.141479,306.536377 632.037415,289.036102 632.011719,271.536896 
	C632.002747,265.426178 631.535400,264.974518 625.495972,264.969513 
	C606.663513,264.953857 587.830994,264.954742 568.998535,264.968567 
	C567.536804,264.969635 566.075195,265.121002 564.445557,265.211884 
	C564.445557,355.043762 564.445557,444.546204 564.445557,534.621216 
	C565.685059,534.751343 567.085388,535.024414 568.486084,535.026428 
	C587.985229,535.054199 607.485229,534.951294 626.982788,535.124329 
	C630.851746,535.158691 632.664978,534.162476 632.033691,530.108826 
	C631.652344,527.660889 631.337097,525.200500 631.074463,522.736877 
	C630.741516,519.613708 630.859436,516.659119 635.199890,515.352722 
	C638.741455,518.941223 642.399048,522.957825 646.398804,526.598694 
	C649.420654,529.349365 652.671448,531.980164 656.195129,534.015686 
	C660.965698,536.771423 666.138123,538.823364 671.036621,541.372253 
	C672.122925,541.937500 672.785645,543.316833 673.792053,544.634521 
	C659.593872,541.182007 648.351807,532.578613 638.352356,522.060486 
	C637.134094,520.778992 636.083984,519.337585 634.955933,517.970398 
	C634.566833,518.147095 634.177673,518.323792 633.788574,518.500488 
	C633.788574,524.861572 633.788574,531.222717 633.788574,537.841797 
	C609.733093,537.841797 586.300720,537.841797 562.412109,537.841797 
	C562.412109,446.192993 562.412109,354.548889 562.412109,262.538330 
	C586.062317,262.538330 609.601257,262.538330 633.762451,262.538330 
	C633.762451,264.740723 633.762024,266.690063 633.762573,268.639404 
	C633.770508,299.623657 633.768921,330.607880 633.804993,361.592102 
	C633.807861,364.073578 634.070557,366.554688 634.564697,369.361084 
z"/>
<path fill="#21527E" opacity="1.000000" stroke="none" 
	d="
M135.908020,515.000000 
	C135.907501,472.529480 135.907501,430.558960 135.907501,388.207092 
	C163.279007,388.207092 190.338150,388.207092 217.740234,388.207092 
	C217.740234,437.874969 217.740234,487.617828 217.740234,537.714233 
	C190.753784,537.714233 163.689423,537.714233 135.908524,537.714233 
	C135.908524,530.347900 135.908524,522.923950 135.908020,515.000000 
M137.990814,415.501007 
	C137.989059,453.651886 137.983490,491.802795 137.989166,529.953674 
	C137.990158,536.718811 138.246750,536.956726 145.049286,536.958252 
	C159.210114,536.961426 173.371429,537.015625 187.531250,536.895081 
	C189.561554,536.877808 191.578400,535.633789 193.612167,535.599854 
	C199.338425,535.504272 205.253311,534.922363 210.734528,536.144165 
	C214.298172,536.938477 215.438416,536.298340 215.893295,533.400574 
	C216.482086,529.649780 216.922562,525.833313 216.941971,522.042664 
	C217.042618,502.384613 217.116699,482.724731 216.955307,463.067474 
	C216.768250,440.283966 216.334656,417.502441 215.985809,394.720398 
	C215.944504,392.023010 216.042725,389.045776 212.124771,389.040588 
	C188.967743,389.009918 165.809784,388.945984 142.655609,389.204163 
	C141.110229,389.221375 138.373444,391.715729 138.270950,393.201416 
	C137.782990,400.274353 138.015182,407.396912 137.990814,415.501007 
z"/>
<path fill="#295983" opacity="1.000000" stroke="none" 
	d="
M246.939758,468.000000 
	C246.939758,441.204102 246.939758,414.908203 246.939758,388.204926 
	C274.340790,388.204926 301.506653,388.204926 328.941528,388.204926 
	C328.941528,438.031067 328.941528,487.742859 328.941528,537.771973 
	C301.788879,537.771973 274.739105,537.771973 246.939774,537.771973 
	C246.939774,514.640808 246.939774,491.570404 246.939758,468.000000 
M328.013306,447.500000 
	C328.005127,430.005554 327.919128,412.510559 328.042877,395.017059 
	C328.074219,390.583160 326.608154,388.879181 321.934631,388.921997 
	C299.776855,389.125000 277.616211,388.997589 255.456573,389.015472 
	C248.036026,389.021454 248.021820,389.064636 248.021133,396.632812 
	C248.017517,436.620209 247.985840,476.607635 248.059769,516.594910 
	C248.068939,521.553528 248.528366,526.522461 248.995422,531.466187 
	C249.501099,536.818970 252.417770,538.075745 257.500214,536.614136 
	C260.623291,535.716003 264.220215,536.473816 267.604370,536.473938 
	C280.207581,536.474304 292.810822,536.469299 305.414032,536.465271 
	C308.798340,536.464172 312.485840,535.582520 315.507568,536.627625 
	C323.213074,539.292603 327.994720,536.515442 328.000610,528.474792 
	C328.020050,501.816528 328.011292,475.158264 328.013306,447.500000 
z"/>
<path fill="#2C618E" opacity="1.000000" stroke="none" 
	d="
M736.162231,352.537048 
	C730.770386,353.809174 727.683716,348.918152 723.226257,347.263641 
	C710.338196,342.479889 697.621033,338.704712 683.344238,342.319855 
	C674.628479,344.526825 666.442627,347.728790 658.419373,351.335236 
	C654.323730,353.176208 651.298096,357.331177 647.667236,360.291046 
	C644.014221,363.268951 640.210327,366.061829 636.092712,368.889465 
	C658.997498,338.973907 701.382629,328.044067 736.162231,352.537048 
z"/>
<path fill="#265F8A" opacity="1.000000" stroke="none" 
	d="
M675.062622,545.370361 
	C680.260803,545.738342 685.718262,546.724670 691.202820,546.911255 
	C700.255981,547.219238 708.625061,545.579407 717.370667,541.863708 
	C723.514221,539.253479 729.326477,536.063477 735.022339,532.875427 
	C739.821716,530.189087 743.541321,525.566223 747.719055,521.778687 
	C750.927368,518.870117 754.104614,515.927368 757.661804,513.002563 
	C741.291504,538.286377 708.881226,555.433472 675.062622,545.370361 
z"/>
<path fill="#6D6B6C" opacity="1.000000" stroke="none" 
	d="
M472.155579,625.354614 
	C472.539215,624.958191 472.914612,624.967529 473.571442,624.985474 
	C476.743805,626.594116 479.578461,628.309082 482.542358,629.759949 
	C485.209473,631.065552 487.116699,632.518250 485.602570,635.605286 
	C482.156403,634.652893 478.856140,633.511169 475.461884,632.858521 
	C470.784119,631.958923 470.009735,630.540649 472.155579,625.354614 
z"/>
<path fill="#6D6B6C" opacity="1.000000" stroke="none" 
	d="
M474.228699,580.785461 
	C474.009979,580.388611 473.974854,579.760803 473.939697,579.132996 
	C474.599457,579.187805 475.259216,579.242615 475.962128,579.560913 
	C475.474274,580.067688 474.943298,580.311096 474.228699,580.785461 
z"/>
<path fill="#FDFEFE" opacity="1.000000" stroke="none" 
	d="
M693.504639,487.510315 
	C676.540283,502.050873 657.996765,500.547180 643.824707,483.749969 
	C624.729797,461.117950 624.714355,419.800201 643.792480,397.386780 
	C659.492126,378.942474 682.012329,379.165100 697.373291,397.916534 
	C717.254272,422.185455 715.532288,464.742279 693.504639,487.510315 
z"/>
<path fill="#F8F8F8" opacity="1.000000" stroke="none" 
	d="
M460.214600,599.422485 
	C453.116150,599.483154 446.479919,599.663635 439.852356,599.497498 
	C438.678772,599.468140 436.589142,598.046082 436.542084,597.179260 
	C436.239380,591.601135 436.387360,585.998474 436.387360,580.195374 
	C446.066742,580.195374 455.134155,580.195374 464.554504,580.195374 
	C464.554504,586.318909 464.554504,592.369568 464.554504,599.015991 
	C463.433594,599.134094 462.056671,599.279175 460.214600,599.422485 
z"/>
<path fill="#FBFBFB" opacity="1.000000" stroke="none" 
	d="
M243.263245,593.955200 
	C243.200134,595.909668 243.119995,597.368958 243.024536,599.107605 
	C233.684830,599.107605 224.636932,599.107605 215.283691,599.107605 
	C215.283691,592.893738 215.283691,586.820984 215.283691,580.362793 
	C224.404083,580.362793 233.447922,580.362793 243.246231,580.362793 
	C243.246231,584.658875 243.246231,589.059387 243.263245,593.955200 
z"/>
<path fill="#FCFCFC" opacity="1.000000" stroke="none" 
	d="
M392.237427,589.999756 
	C392.237427,593.274414 392.237427,596.055725 392.237427,599.132568 
	C382.615082,599.132568 373.554321,599.132568 364.207123,599.132568 
	C364.207123,592.849548 364.207123,586.771118 364.207123,580.335693 
	C373.409729,580.335693 382.475861,580.335693 392.237396,580.335693 
	C392.237396,583.333313 392.237396,586.419861 392.237427,589.999756 
z"/>
<path fill="#025199" opacity="1.000000" stroke="none" 
	d="
M137.990967,415.001404 
	C138.015182,407.396912 137.782990,400.274353 138.270950,393.201416 
	C138.373444,391.715729 141.110229,389.221375 142.655609,389.204163 
	C165.809784,388.945984 188.967743,389.009918 212.124771,389.040588 
	C216.042725,389.045776 215.944504,392.023010 215.985809,394.720398 
	C216.334656,417.502441 216.768250,440.283966 216.955307,463.067474 
	C217.116699,482.724731 217.042618,502.384613 216.941971,522.042664 
	C216.922562,525.833313 216.482086,529.649780 215.893295,533.400574 
	C215.438416,536.298340 214.298172,536.938477 210.734528,536.144165 
	C205.253311,534.922363 199.338425,535.504272 193.612167,535.599854 
	C191.578400,535.633789 189.561554,536.877808 187.531250,536.895081 
	C173.371429,537.015625 159.210114,536.961426 145.049286,536.958252 
	C138.246750,536.956726 137.990158,536.718811 137.989166,529.953674 
	C137.983490,491.802795 137.989059,453.651886 137.990967,415.001404 
z"/>
<path fill="#025199" opacity="1.000000" stroke="none" 
	d="
M328.013306,448.000000 
	C328.011292,475.158264 328.020050,501.816528 328.000610,528.474792 
	C327.994720,536.515442 323.213074,539.292603 315.507568,536.627625 
	C312.485840,535.582520 308.798340,536.464172 305.414032,536.465271 
	C292.810822,536.469299 280.207581,536.474304 267.604370,536.473938 
	C264.220215,536.473816 260.623291,535.716003 257.500214,536.614136 
	C252.417770,538.075745 249.501099,536.818970 248.995422,531.466187 
	C248.528366,526.522461 248.068939,521.553528 248.059769,516.594910 
	C247.985840,476.607635 248.017517,436.620209 248.021133,396.632812 
	C248.021820,389.064636 248.036026,389.021454 255.456573,389.015472 
	C277.616211,388.997589 299.776855,389.125000 321.934631,388.921997 
	C326.608154,388.879181 328.074219,390.583160 328.042877,395.017059 
	C327.919128,412.510559 328.005127,430.005554 328.013306,448.000000 
z"/>
</svg>