<?xml version="1.0" encoding="utf-8"?>
<svg xmlns="http://www.w3.org/2000/svg" x="0px" y="0px" width="250px" height="250px">
<circle fill="#FFFFFF" cx="125" cy="125" r="117.2"/>
<path fill="#990000" d="M153.4,154.8c-1.6,1.8-3.4,3.6-5.2,5.2l-15.3-90.1c0.8,0.1,1.5,0.1,2.3,0.2L153.4,154.8 M167.4,122l-21-50.1
	c-0.8-0.2-1.6-0.3-2.4-0.5l22.3,59.1C166.8,127.7,167.2,124.9,167.4,122 M136.2,168c1.4-0.7,2.7-1.4,4-2.2l-10.4-96.1
	c-0.8,0-1.6,0-2.5-0.1l6.3,99.6C134.5,168.8,135.4,168.5,136.2,168 M162.9,140.4l-22.2-69.5c-0.8-0.1-1.6-0.2-2.3-0.3l21,76.4
	C160.7,144.8,161.8,142.6,162.9,140.4 M167.5,80.3c-5.3-3.2-11.3-5.7-17.7-7.5l17.7,37.1L167.5,80.3z M113.9,111h-7.8l-2.4-7.4
	l-2.4,7.4h-7.8l6.3,4.6l-2.4,7.4l6.3-4.6l6.3,4.6l-2.4-7.4L113.9,111z M80.9,80.3c12.2-6.9,27.7-10.6,43.3-10.7v102.8
	c-4.4-1-8.1-2.4-12.1-4.4c-18.1-8.9-31.5-28.3-31.2-49.1V80.3 M135,27c-0.1,0.9-0.7,1.5-1.8,1.4l-2.4-0.2l0.2-3l2.4,0.2
	C134.5,25.5,135,26.2,135,27 M171.3,46.3c1.7,1,3.2,0.2,4.7-2.3c1.5-2.5,1.5-4.2-0.2-5.2c-1.7-1-3.2-0.2-4.7,2.3
	C169.6,43.6,169.6,45.3,171.3,46.3 M134.8,32.3c0.1-1.2-0.5-1.8-1.8-1.9l-2.4-0.2l-0.3,3.6l2.4,0.2C134.1,34,134.7,33.5,134.8,32.3
	 M159,40.2c1.8,0.7,3.2-0.3,4.3-3c1.1-2.7,0.8-4.4-1-5.1c-1.8-0.7-3.2,0.3-4.3,3C156.8,37.8,157.1,39.5,159,40.2 M149.6,29.9
	c0.3-1.1-0.3-1.9-1.6-2.2l-2.1-0.5l-0.8,3.4l1.7,0.4C148.6,31.5,149.3,31,149.6,29.9 M87,42c1.8-0.8,2-2.5,0.7-5.2
	c-1.2-2.6-2.6-3.6-4.4-2.8c-1.8,0.8-2,2.5-0.7,5.2C83.8,41.8,85.2,42.8,87,42 M221.8,130.4l0.1-2.1l5.2-2.2l0.1-2.7l-5.7,2.6
	c-0.4-1.5-1.6-2.4-3.2-2.4c-2.1-0.1-3.8,1-3.9,3.9l-0.2,5l12.6,0.4l0.1-2.4L221.8,130.4z M225.5,143.7c0.6-3.4-1.4-5.6-5.4-6.4
	c-4-0.7-6.7,0.6-7.3,4c-0.6,3.4,1.4,5.6,5.4,6.4C222.2,148.5,224.9,147.1,225.5,143.7 M222.2,156.2l-4.8-1.6l-6.1-5.7l-0.8,2.4
	l4,3.6l-5.4,0.5l-0.8,2.4l8.3-0.9l4.8,1.6L222.2,156.2z M214.2,174.7l-9.4-8.8l-1.2,1.9l6.3,5.9l0,0l-8.1-3l-1.3,2.1l6.3,6l0,0
	l-8.1-3.1l-1.2,1.9l12.1,4.3l1.3-2.1l-6.7-6.2l0,0l8.6,3.1L214.2,174.7z M205.3,188.1l-1.5-1.3l-4,4.6l-2.7-2.3l2.8-3.3l-1.5-1.3
	l-2.8,3.3l-2.3-2l3.9-4.5l-1.5-1.3l-5.4,6.3l9.5,8.2L205.3,188.1z M195.4,199l-8.2-9.5l-1.7,1.5l5.6,6.5l0,0l-9.4-3.3l-1.9,1.6
	l8.2,9.5l1.7-1.5l-5.9-6.8l0,0l9.8,3.4L195.4,199z M170.1,210.3l3.7-2l-1-1.8l-3.7,2l-1.4-2.6l4.9-2.7l-1-1.8l-7,3.8l6,11.1l2.1-1.1
	L170.1,210.3z M161.4,220.5c3.2-1.2,4.1-4.1,2.6-7.9c-1.5-3.8-4-5.4-7.2-4.2c-3.2,1.2-4.1,4.1-2.6,7.9
	C155.6,220.2,158.2,221.7,161.4,220.5 M141.1,220.7l2.3-8l-2.5,0.4l-1.4,5.3l-2.9-4.6l-2.5,0.4l4.6,6.9l0.8,5l2.4-0.4L141.1,220.7z
	 M128.3,216.4l3.3-0.1l0-2l-9,0.2l0,2l3.3-0.1l0.2,10.6l2.4-0.1L128.3,216.4z M118.8,214.2l-2.4-0.2l-1,12.5l2.4,0.2L118.8,214.2z
	 M110.9,222.4c0.8-4-5.7-4.8-5.3-6.9c0.2-1,1-1.2,2-1c1.1,0.2,1.7,1,1.9,2l2.3-0.3c-0.4-1.9-1.8-3.2-3.8-3.6
	c-2.1-0.4-4.2,0.5-4.6,2.7c-0.7,3.8,5.7,4.5,5.3,7c-0.2,1.2-1.2,1.5-2.4,1.2c-1.4-0.3-2-1.2-2.3-2.4l-2.1,0.5c0.4,1.9,2,3.4,4.1,3.8
	C108.6,225.9,110.4,225,110.9,222.4 M99.3,214.7c0.6-2,0.1-3.9-2.6-4.8l-4.8-1.6l-4,11.9l2.3,0.8l1.6-4.9l2,0.7l0.6,5.6l2.5,0.9
	l-0.8-6.2C97.7,217.1,98.9,216.2,99.3,214.7 M80.8,208.5l1.4-2.7l5.3,2.7l0.9-1.8l-7.4-3.8l-5.7,11.2l7.6,3.9l0.9-1.8l-5.4-2.8
	l1.6-3.1l3.8,2l0.9-1.8L80.8,208.5z M68.2,209.7l9.9-8.5l-1.9-1.3l-7.2,6.3l0,0l3.4-8.9l-1.9-1.3L66,208.2L68.2,209.7z M59.8,203.5
	l8.2-9.6l-1.8-1.6l-8.2,9.6L59.8,203.5z M53.4,197.8l9.2-8.5l-1.5-1.7l-6.3,5.8l0,0l2.9-9.5l-1.7-1.8l-9.2,8.5l1.5,1.7l6.6-6.1l0,0
	l-3.1,9.9L53.4,197.8z M40.5,182.5c1.4,2.1,3.7,3.3,6.7,1.2l6.5-4.4l-1.4-2l-6.6,4.5c-1.7,1.1-2.7,0.9-3.6-0.5
	c-0.9-1.3-0.8-2.4,0.9-3.6l6.6-4.5l-1.4-2l-6.5,4.4C38.8,177.8,39.1,180.4,40.5,182.5 M36.6,158.3l2.8-1.1l2.2,5.5l1.9-0.7l-3.1-7.7
	l-11.7,4.6l3.1,7.9l1.9-0.7l-2.3-5.7l3.3-1.3l1.6,4l1.9-0.7L36.6,158.3z M26.3,150.8l10.3-2.6l0.8,3.2l2-0.5l-2.2-8.7l-2,0.5
	l0.8,3.2l-10.3,2.6L26.3,150.8z M24.4,142.7l12.1-5.1l-0.4-3l-12.9-2.1l0.3,2.4l2.8,0.4l0.5,3.9l-2.6,1L24.4,142.7z M23,126.9
	l10.6-0.2l0.1,3.3l2,0l-0.1-9l-2,0l0.1,3.3L23,124.5L23,126.9z M23.6,112.5c-0.3,2.8,0.7,4.5,3.3,4.8c4,0.5,4.4-6,6.5-5.7
	c1,0.1,1.3,0.9,1.2,1.9c-0.1,1.1-0.9,1.8-1.9,2l0.4,2.3c1.9-0.5,3.1-2.1,3.4-4.1c0.3-2.2-0.8-4.2-3-4.5c-3.8-0.5-4.1,6-6.6,5.7
	c-1.2-0.1-1.5-1.1-1.4-2.3c0.2-1.4,1-2.1,2.3-2.5l-0.6-2.1C25.2,108.7,23.8,110.5,23.6,112.5 M41.4,74.4c-2.3,0-4.1,1.8-4.1,4.1
	c0,2.3,1.9,4.1,4.1,4.1c2.3,0,4.1-1.8,4.1-4.1C45.5,76.2,43.7,74.4,41.4,74.4 M125,39.9C78,39.9,39.9,78,39.9,125
	c0,47,38.1,85.1,85.1,85.1c47,0,85.1-38.1,85.1-85.1C210.1,78,172,39.9,125,39.9 M60,46.3c-1.7,1.4-2.3,3.5-0.9,5.2
	c2.4,2.9,7-1.5,8.6,0.4c0.8,0.9,0.3,1.8-0.6,2.6c-1.1,0.9-2.1,0.8-3.3,0.2l-1,1.9c1.7,0.9,3.9,0.6,5.4-0.7c2.1-1.7,2.5-3.7,0.9-5.7
	c-2.5-3.1-7.2,1.3-8.5-0.4c-0.6-0.7-0.3-1.5,0.5-2.2c0.9-0.7,1.8-0.7,2.7-0.2l1.2-1.9C63.5,44.8,61.6,45.1,60,46.3 M67,41.1l1.1,1.7
	l2.7-1.7l5.6,8.8l2-1.3l-5.6-8.8l2.7-1.7l-1.1-1.7L67,41.1z M82.5,32.2c-3.1,1.4-3.8,4.3-2.1,7.9c1.7,3.7,4.3,5,7.4,3.6
	c3.1-1.4,3.8-4.3,2.1-7.9C88.2,32.2,85.6,30.8,82.5,32.2 M92.9,28.2l3.3,11.9l2.1-0.6L96,31l0,0l7.2,7.1l2.2-0.6l-3.3-11.9l-2.1,0.6
	l2.3,8.1l0,0l-7-6.8L92.9,28.2z M107.4,24.6l4.3,6.9l0.6,4.9l2.3-0.3l-0.6-4.9l2.4-7.8l-2.4,0.3l-1.5,5.1l-2.7-4.6L107.4,24.6z
	 M127.8,35.5l4.5,0.4c3.1,0.3,4.6-1,4.8-2.9c0.2-1.9-0.3-2.7-1.9-3.4c1.4-0.4,2-1.4,2.1-2.7c0-2.2-1.5-3.2-3.9-3.4l-4.6-0.4
	L127.8,35.5z M141.2,36.9l2.3,0.5l1.1-4.9l2,0.5l1.1,5.4l2.6,0.6l-1.4-6c1.6-0.1,2.6-1.1,2.9-2.6c0.4-2-0.3-3.8-3-4.5l-4.8-1.1
	L141.2,36.9z M155.8,34.2c-1.5,3.8-0.7,6.6,2.5,7.8c3.1,1.3,5.7-0.2,7.2-4c1.5-3.8,0.7-6.6-2.5-7.8C159.8,29,157.3,30.5,155.8,34.2
	 M169,39.9c-2.1,3.5-1.7,6.4,1.2,8.1c2.9,1.7,5.7,0.6,7.7-2.8c2.1-3.5,1.7-6.4-1.2-8.1C173.8,35.3,171.1,36.4,169,39.9 M185.8,43.2
	l-7.8,9.6l1.8,1.5l2.3-2.9l2.7-0.6l-1.3,6.5l2,1.7l1.7-8.6L193,49l-2.1-1.7l-6.7,1.7l3.5-4.3L185.8,43.2z M208.6,74.4
	c-2.3,0-4.1,1.8-4.1,4.1c0,2.3,1.8,4.1,4.1,4.1c2.3,0,4.1-1.8,4.1-4.1C212.8,76.2,210.9,74.4,208.6,74.4 M213.3,109.8l0.3,2.8l6,3.5
	l-5.5,0.6l0.3,2.4l12.5-1.4l-0.3-2.4l-3.8,0.4l-2.4-1.5l5.6-3.8l-0.3-2.6l-7.3,5L213.3,109.8z M125,18.4
	c58.9,0,106.6,47.7,106.6,106.6S183.9,231.6,125,231.6S18.4,183.9,18.4,125S66.1,18.4,125,18.4 M218.2,126c-1.2,0-1.8,0.7-1.8,2
	l-0.1,2.2l3.6,0.1l0.1-1.8C219.9,126.6,219.4,126,218.2,126 M28.3,135.6l0.4,2.9l5.3-2.1l0,0L28.3,135.6z M95.7,211.6l-2.1-0.7
	l-1.1,3.4l1.7,0.6c1.8,0.6,2.5,0.2,2.9-0.9C97.4,212.8,97,212,95.7,211.6 M157.5,210.3c-1.8,0.7-2.2,2.4-1.1,5.2
	c1,2.8,2.4,3.8,4.3,3.1c1.8-0.7,2.2-2.4,1.1-5.2C160.7,210.7,159.3,209.6,157.5,210.3 M219.6,139.7c-2.9-0.5-4.5,0.1-4.9,2
	c-0.4,1.9,1,3.1,3.8,3.6c2.9,0.6,4.5-0.1,4.9-2C223.8,141.4,222.5,140.2,219.6,139.7"/>
<path d="M125,235.4C64,235.4,14.6,186,14.6,125C14.6,64,64,14.6,125,14.6S235.4,64,235.4,125C235.4,186,186,235.4,125,235.4 M125,1
	C56.5,1,1,56.5,1,125s55.5,124,124,124s124-55.5,124-124S193.5,1,125,1 M181.8,121.5c2,1.9,4.3,3.4,5.5,6.3c0.8,1.8,0.3,3.5-0.5,5.7
	c-2.2-1.2-3.7-2.1-4.5-4C181.1,126.6,181.6,124.1,181.8,121.5 M179.2,156.8c1.5-1.7,2.4-3,2.3-5c-0.3-3-2-5.1-3.4-7.5
	c-1,2.4-2.3,4.4-2.1,7.4C176.2,153.6,177.3,155,179.2,156.8 M184.1,145.5c1.1-2,1.7-3.6,1.2-5.5c-0.9-3-2.9-4.7-4.7-6.8
	c-0.5,2.6-1.3,4.9-0.5,7.8C180.6,142.9,182,144.1,184.1,145.5 M175.6,161.7c0.1-3-1.3-5.3-2.4-7.8c-1.3,2.2-2.9,3.9-3.1,6.9
	c-0.1,1.9,0.9,3.4,2.5,5.4C174.4,164.8,175.5,163.6,175.6,161.7 M191.1,121.2c2.5-0.6,4.3-1.2,5.2-3c1.5-2.8,1-5.7,0.9-8.7
	c-2.4,1.4-4.9,2.4-6.4,5.2C189.9,116.5,190.3,118.5,191.1,121.2 M191,128.6c-1.3,1.6-1.2,3.5-0.8,6.3c2.6-0.1,4.5-0.4,5.7-1.9
	c1.9-2.4,1.9-5.3,2.4-8.2C195.6,125.7,192.9,126.2,191,128.6 M187.1,114.4c-1.7-2.6-4.1-3.7-6.4-5.2c0.4,2.7,0.3,5.3,2,7.9
	c1.1,1.7,2.7,2.4,5.1,3.1C188.1,117.8,188.2,116.1,187.1,114.4 M170.8,173.7c-2,0.3-3.1,1.8-4.5,4c2.3,1.6,4.1,2.6,6.1,2.2
	c3.1-0.5,4.8-2.6,7-4.4C176.6,174.6,174,173.2,170.8,173.7 M178.9,164.6c-1.9,0.6-2.8,2.2-3.9,4.6c2.5,1.3,4.3,2.1,6.2,1.5
	c3-0.9,4.4-3.2,6.3-5.3C184.7,164.7,181.9,163.7,178.9,164.6 M185,153.8c-1.8,0.9-2.4,2.7-3,5.3c2.6,0.9,4.5,1.3,6.3,0.4
	c2.8-1.5,3.7-4.1,5.2-6.5C190.6,152.9,187.7,152.3,185,153.8 M187.1,147.5c2.7,0.4,4.6,0.5,6.1-0.8c2.4-2,2.8-4.8,3.8-7.5
	c-2.8,0.5-5.6,0.4-8,2.4C187.5,142.9,187.2,144.8,187.1,147.5 M156.2,184.5c2.1,2,3.6,3.2,5.7,3.3c3.2,0.1,5.3-1.7,7.7-3
	c-2.7-1.4-5.1-3.2-8.3-3.3C159.3,181.4,157.9,182.6,156.2,184.5 M149.3,185.5c7.8-3.2,14.7-7.8,20.7-13.8
	c7.4-7.4,12.9-16.4,16.2-26.8c3.4-10.7,4.4-22.3,2.9-34.5c1.3-1.8,2-3.3,1.7-5.3c-0.6-3.4-2.7-5.6-4.4-8.2c-0.9,2.8-2.2,5.2-1.7,8.6
	c0.3,2.1,1.7,3.5,3.8,5.3c2.9,23.9-3.8,45.4-18.9,60.4c-5.8,5.8-12.7,10.3-20.2,13.5V185.5z M168.1,170.8c0.7-2.8-0.4-5.3-1-8
	c-1.7,1.8-3.7,3.2-4.3,6.1c-0.4,1.8,0.3,3.5,1.5,5.7C166.3,173.5,167.6,172.6,168.1,170.8 M159,178.3c1.2-2.6,0.5-5.2,0.4-7.9
	c-2,1.4-4.2,2.4-5.4,5c-0.7,1.7-0.3,3.4,0.6,5.8C156.8,180.6,158.2,180,159,178.3 M112.6,193v-1.2h1.3v-6h-1.5v-1
	c0.8,0,1.5-0.2,1.9-0.6h1.2v7.6h1.3v1.2H112.6z M121.1,188.6c-1,0-1.5-0.6-1.5-1.6c0-0.9,0.6-1.5,1.4-1.5c0.8,0,1.7,0.6,1.7,2.1
	C122.3,188.3,121.8,188.6,121.1,188.6 M118.3,192.5c0.7,0.4,1.3,0.7,2.2,0.7c2.4,0,3.7-2,3.7-5c0-2.7-1.3-4-3.1-4
	c-1.7,0-3.1,1-3.1,2.9c0,1.7,1.1,2.8,2.7,2.8c0.8,0,1.4-0.2,2-0.7c0,1.5-1,2.7-2.2,2.7c-0.6,0-1.1-0.3-1.5-0.6L118.3,192.5z
	 M125.9,189l1.3,0.2c0.2-0.4,0.7-0.7,1.3-0.7c0.9,0,1.5,0.7,1.5,1.6c0,1.1-0.5,1.8-1.6,1.8c-0.6,0-1.3-0.4-1.5-1l-1.3,0.7
	c0.5,1,1.4,1.6,2.8,1.6c2.1,0,3.2-1.2,3.2-3.1c0-1.4-1-2.9-2.6-2.9c-0.9,0-1.3,0.2-1.6,0.5l0.1-2h3.5v-1.3h-4.7L125.9,189z
	 M132.7,185.7h4.2l-3.5,7.4h1.7l3.6-7.8v-0.9h-6V185.7z M86,63.6c0.7-0.3,1.6,0,1.9,0.7c0.3,0.7,0,1.6-0.7,1.9
	c-0.7,0.3-1.6,0-1.9-0.7C84.9,64.8,85.2,63.9,86,63.6 M95.3,64.7l-0.4-1.1l-2.2,0.7L92,62.3l1.6-0.5l-0.4-1.1l-1.6,0.5L91,59.4
	l2-0.7l-0.4-1.1l-3.2,1.1l2.4,7.1L95.3,64.7z M100.1,57.4c-0.4-1-1.2-1.6-2.2-1.3c-1.2,0.3-1.8,1.1-1.5,2.3c0.5,2.1,3.1,1.8,3.5,3.2
	c0.1,0.4-0.1,0.7-0.6,0.8c-0.4,0.1-0.8-0.2-1-0.9L97.3,62c0.3,1.1,1.2,1.8,2.4,1.5c1.2-0.3,1.8-1.2,1.5-2.4c-0.5-2-3.2-1.9-3.5-3.1
	c-0.1-0.5,0-0.8,0.4-0.9c0.3-0.1,0.7,0,0.9,0.6L100.1,57.4z M105.2,62.2l1.3-0.2l-1.1-6.2l1.2-0.2l-0.2-1.1l-3.7,0.7l0.2,1.1L104,56
	L105.2,62.2z M111.1,55.3L111.1,55.3l0.9,3.1l-1,0.1L111.1,55.3z M110.9,59.6l1.4-0.2l0.4,1.6l1.2-0.1l-2.3-7.2l-1.6,0.2l-0.5,7.6
	l1.2-0.1L110.9,59.6z M117.7,57.3l0.4,0c0.8,0,1.1,0.3,1.1,1.1c0,0.8-0.2,1.2-0.9,1.2l-0.5,0L117.7,57.3z M117.6,54.2l0.5,0
	c0.6,0,0.9,0.3,0.9,1c0,0.6-0.3,1-0.8,1l-0.5,0L117.6,54.2z M116.7,60.7l2-0.1c1.5-0.1,1.9-1,1.9-2.3c-0.1-1-0.5-1.5-1.1-1.7
	c0.6-0.3,0.8-1,0.8-1.6c-0.1-1.3-0.7-1.9-2.1-1.9l-1.9,0.1L116.7,60.7z M127,60.4l0-1.1l-2,0L125,53l-1.3,0l-0.1,7.5L127,60.4z
	 M129.9,60.5l1.3,0.1l0.4-7.4l-1.3-0.1L129.9,60.5z M138.7,55.4c0-1.1-0.5-1.9-1.6-2c-1.3-0.1-2,0.5-2.2,1.6
	c-0.2,2.1,2.3,2.8,2.2,4.3c0,0.4-0.4,0.6-0.8,0.6c-0.4,0-0.7-0.4-0.6-1.2l-1.2,0.1c-0.1,1.1,0.5,2.1,1.7,2.3
	c1.2,0.1,2.1-0.5,2.2-1.7c0.2-2-2.3-2.9-2.2-4.2c0-0.5,0.3-0.7,0.7-0.7c0.3,0,0.6,0.2,0.6,0.9L138.7,55.4z M142.3,61.8l0.6-3.3
	l1.3,0.2l-0.6,3.3l1.3,0.2l1.3-7.4l-1.3-0.2l-0.5,3l-1.3-0.2l0.5-3l-1.3-0.2l-1.3,7.4L142.3,61.8z M151.6,63.7l0.3-1.1l-2.2-0.5
	l0.5-2.1l1.6,0.4l0.3-1.1l-1.6-0.4l0.5-1.9l2.1,0.5l0.3-1.1l-3.3-0.8l-1.8,7.2L151.6,63.7z M157.6,58.9l0.4,0.1
	c0.6,0.2,0.8,0.5,0.5,1.3l-1.1,3.1c-0.3,0.7-0.6,0.9-1.2,0.7l-0.4-0.1L157.6,58.9z M154.4,64.5l1.8,0.6c1.3,0.4,2.1,0,2.6-1.5l1-2.8
	c0.5-1.4,0.1-2.4-1.2-2.8l-1.8-0.6L154.4,64.5z M164,63.6c-0.7-0.3-1.6,0-1.9,0.7c-0.3,0.7,0,1.6,0.7,1.9c0.7,0.3,1.6,0,1.9-0.7
	C165.1,64.8,164.8,63.9,164,63.6 M67.7,129.5c-0.8,1.9-2.3,2.8-4.5,4c-0.8-2.2-1.3-3.8-0.5-5.7c1.2-2.9,3.4-4.4,5.5-6.3
	C68.4,124.1,68.9,126.6,67.7,129.5 M65.9,145.5c2.1-1.4,3.5-2.5,4.1-4.5c0.9-3,0-5.3-0.5-7.8c-1.8,2.1-3.9,3.9-4.7,6.8
	C64.2,141.9,64.8,143.4,65.9,145.5 M62.9,114.4c-1.1,1.7-1,3.4-0.6,5.8c2.4-0.7,4-1.4,5.1-3.1c1.7-2.6,1.6-5.2,2-7.9
	C67,110.7,64.6,111.8,62.9,114.4 M70.8,156.8c1.8-1.8,3-3.2,3.2-5.1c0.3-3-1.1-5-2.1-7.4c-1.4,2.4-3.1,4.5-3.4,7.5
	C68.4,153.7,69.3,155,70.8,156.8 M77.4,166.2c1.6-2,2.6-3.5,2.5-5.4c-0.1-3-1.8-4.8-3.1-6.9c-1.1,2.6-2.5,4.9-2.4,7.8
	C74.5,163.6,75.6,164.8,77.4,166.2 M95.5,181.2c0.9-2.4,1.3-4.1,0.6-5.8c-1.2-2.6-3.4-3.6-5.4-5c-0.2,2.7-0.8,5.3,0.4,7.9
	C91.8,180,93.2,180.6,95.5,181.2 M85.7,174.6c1.2-2.2,2-3.9,1.5-5.7c-0.7-2.8-2.6-4.2-4.3-6.1c-0.6,2.7-1.7,5.1-1,8
	C82.4,172.6,83.7,173.5,85.7,174.6 M88.7,181.5c-3.2,0.1-5.6,1.9-8.3,3.3c2.4,1.3,4.5,3.1,7.7,3c2.1,0,3.7-1.3,5.7-3.3
	C92.1,182.6,90.8,181.5,88.7,181.5 M68,159.1c-0.6-2.6-1.2-4.3-3-5.3c-2.7-1.5-5.6-0.9-8.5-0.8c1.5,2.4,2.4,5,5.2,6.5
	C63.5,160.4,65.4,160,68,159.1 M71.1,164.6c-3-0.9-5.7,0.2-8.6,0.8c1.9,2.1,3.3,4.4,6.3,5.3c1.9,0.6,3.7-0.2,6.2-1.5
	C73.9,166.7,73,165.2,71.1,164.6 M79.2,173.7c-3.1-0.5-5.8,0.9-8.6,1.8c2.1,1.8,3.8,3.9,7,4.4c2,0.3,3.7-0.6,6.1-2.2
	C82.3,175.5,81.2,174.1,79.2,173.7 M58.9,121.2c0.8-2.7,1.2-4.6,0.2-6.4c-1.5-2.8-4-3.7-6.4-5.2c0,3-0.5,5.9,0.9,8.7
	C54.7,120,56.4,120.6,58.9,121.2 M62.9,147.5c-0.1-2.7-0.4-4.6-1.9-5.9c-2.4-2-5.2-2-8-2.4c1,2.7,1.4,5.5,3.8,7.5
	C58.3,148,60.2,147.9,62.9,147.5 M63.9,145c3.3,10.4,8.7,19.4,16.2,26.8c6,5.9,12.9,10.6,20.7,13.8v-0.8
	c-7.5-3.2-14.4-7.7-20.2-13.5c-15.1-15-21.8-36.5-18.9-60.4c2.1-1.8,3.4-3.2,3.8-5.3c0.6-3.4-0.8-5.8-1.7-8.6
	c-1.8,2.6-3.9,4.8-4.4,8.2c-0.3,2,0.4,3.5,1.7,5.3C59.5,122.7,60.5,134.3,63.9,145 M59.8,134.9c0.4-2.8,0.4-4.7-0.8-6.3
	c-1.9-2.4-4.7-2.9-7.3-3.9c0.5,2.9,0.4,5.8,2.4,8.2C55.4,134.5,57.2,134.8,59.8,134.9"/>
</svg>
