<svg version="1.1" id="Layer_1" xmlns="http://www.w3.org/2000/svg" xmlns:xlink="http://www.w3.org/1999/xlink" x="0px" y="0px"
	 width="100%" viewBox="0 0 400 400" enable-background="new 0 0 400 400" xml:space="preserve">
<path fill="#FFFEFE" opacity="1.000000" stroke="none" 
	d="
M180.000000,401.000000 
	C120.018593,401.000000 60.537182,401.000000 1.027886,401.000000 
	C1.027886,267.726929 1.027886,134.453842 1.027886,1.090375 
	C134.231369,1.090375 267.462830,1.090375 400.847137,1.090375 
	C400.847137,134.333206 400.847137,267.666565 400.847137,401.000000 
	C327.453918,401.000000 253.976959,401.000000 180.000000,401.000000 
M371.382355,113.383255 
	C370.711029,115.849487 369.257141,118.407898 369.534454,120.762398 
	C370.079041,125.385841 374.580658,127.953712 379.217896,127.058807 
	C383.567474,126.219421 385.663666,122.926949 385.203583,117.657074 
	C384.795074,112.978073 381.897491,110.919563 375.329956,111.049431 
	C374.229431,111.731415 373.128937,112.413406 371.382355,113.383255 
M133.119125,228.419693 
	C169.396210,235.036880 204.409622,230.377304 238.090881,215.898285 
	C244.366577,213.200470 250.199585,208.801559 255.274002,204.139618 
	C262.683075,197.332794 261.623810,188.760254 252.819672,183.952698 
	C247.080322,180.818695 240.638947,178.075806 234.238510,177.231598 
	C220.568283,175.428452 206.713181,175.059723 192.947662,173.934235 
	C184.253647,173.223389 175.490677,172.548599 167.392593,167.125198 
	C168.535370,166.645813 169.088638,166.283783 169.686340,166.181564 
	C210.628647,159.178101 251.725403,155.905991 292.936707,163.235214 
	C302.765839,164.983276 312.710297,168.156021 321.585663,172.670853 
	C332.766724,178.358566 333.924622,188.746429 325.144562,197.807861 
	C320.348450,202.757645 314.379089,206.662720 308.604523,210.541214 
	C304.474274,213.315323 299.788696,215.262650 295.350891,217.578873 
	C296.991364,217.975281 298.521332,218.023209 299.877747,217.561478 
	C321.241394,210.289139 341.561035,200.842361 360.042145,187.787918 
	C368.670898,181.692856 376.360046,174.533569 381.346375,164.987289 
	C387.303284,153.582962 385.563782,142.966751 376.213501,134.140457 
	C367.653870,126.060493 357.064789,121.656464 346.072754,118.088821 
	C345.313293,117.842323 344.404236,118.056595 342.651031,118.056595 
	C344.559387,119.164444 345.566742,119.679207 346.501617,120.302612 
	C357.946167,127.934097 358.078735,139.449234 346.018555,145.906296 
	C336.025299,151.256744 325.544434,156.260498 313.396606,153.977844 
	C305.635681,152.519501 297.797607,151.471863 289.005341,150.084000 
	C292.407867,147.849594 295.020752,146.403656 297.320740,144.566086 
	C301.851807,140.945999 302.652893,136.458740 298.397156,132.634583 
	C294.713776,129.324814 290.027008,126.339073 285.291718,125.117455 
	C245.835037,114.938354 208.032013,119.930191 172.183456,139.059464 
	C166.557709,142.061447 161.250580,146.227676 156.870483,150.869400 
	C149.545670,158.631729 151.221756,167.821564 160.660202,172.789902 
	C165.889740,175.542694 171.672485,178.142700 177.436554,178.805511 
	C191.965225,180.476166 206.642868,180.803268 221.223999,182.086716 
	C228.338867,182.712952 235.371613,184.272034 242.441513,185.408890 
	C242.399368,185.996658 242.357208,186.584442 242.315048,187.172226 
	C241.606339,187.430588 240.917542,187.801559 240.186020,187.931061 
	C211.887772,192.940002 183.369324,195.136337 154.638611,194.531921 
	C136.607925,194.152618 118.644089,192.933578 101.478004,186.910065 
	C95.922958,184.960831 90.433716,182.147354 85.717262,178.647308 
	C79.037285,173.690109 78.269218,166.485001 83.100143,159.689636 
	C85.481110,156.340469 88.194672,152.687637 91.642685,150.734436 
	C103.893349,143.794724 116.316803,137.077850 129.087280,131.167816 
	C137.157043,127.433220 145.960114,125.283165 155.160721,122.177147 
	C153.350403,122.033394 152.356720,121.900543 151.362289,121.894547 
	C150.703659,121.890579 150.030869,122.014946 149.386581,122.172539 
	C116.956833,130.105331 85.459579,140.567886 56.311329,157.175156 
	C43.222027,164.632797 30.750677,172.992233 22.450329,186.080414 
	C14.460779,198.678528 15.919580,210.670975 26.961227,220.682831 
	C40.787872,233.219925 58.318317,236.912567 75.975739,240.299072 
	C75.099335,239.097733 73.920677,238.482361 72.744041,237.863174 
	C69.513115,236.162903 66.049858,234.789703 63.098190,232.695587 
	C55.510323,227.312241 55.101589,220.761856 62.554829,215.207321 
	C69.994835,209.662643 78.082878,204.976715 85.988228,200.077957 
	C87.294350,199.268585 89.240852,198.728683 90.687042,199.033600 
	C99.878479,200.971558 109.012543,203.181641 118.925148,205.478012 
	C117.377174,206.870056 116.491005,207.765274 115.507088,208.535645 
	C109.529465,213.216034 109.160721,216.889893 115.539948,220.914810 
	C120.635101,224.129532 126.691147,225.821335 133.119125,228.419693 
M218.532364,252.257401 
	C216.777863,251.797943 215.023361,251.338486 212.525330,250.684311 
	C212.525330,259.086395 212.525330,266.581360 212.525330,274.076324 
	C208.624588,268.041229 205.561539,261.882080 203.115524,255.486938 
	C201.529083,251.339111 199.231766,250.290436 195.316208,251.703766 
	C195.316208,265.174011 195.316208,278.416626 195.316208,291.803223 
	C197.288025,291.803223 199.021118,291.803223 201.169250,291.803223 
	C201.169250,283.921783 201.169250,276.250580 201.169250,268.579346 
	C204.903671,274.817200 208.087891,281.127686 210.569855,287.703247 
	C212.143295,291.871857 214.403366,292.965729 218.647278,291.460144 
	C218.647278,278.699921 218.647278,265.913788 218.532364,252.257401 
M329.187408,277.493744 
	C329.187408,282.260071 329.187408,287.026367 329.187408,292.025696 
	C335.300720,292.025696 340.784973,291.998352 346.268799,292.034607 
	C350.397003,292.061890 352.516388,289.714539 352.724792,285.946747 
	C353.010803,280.775513 354.089722,275.238190 348.584869,271.820618 
	C352.553802,267.493011 354.346893,260.657013 352.345093,255.912811 
	C351.556702,254.044388 349.325714,251.680664 347.573669,251.523224 
	C341.544922,250.981476 335.437561,251.314957 329.187408,251.314957 
	C329.187408,260.180878 329.187408,268.338135 329.187408,277.493744 
M183.103958,288.303040 
	C183.315659,281.022522 183.665726,273.742889 183.710388,266.461334 
	C183.804642,251.096344 183.274750,250.653671 167.708862,251.192551 
	C162.425217,251.375473 160.170929,253.565735 160.105591,258.867554 
	C160.023712,265.511047 160.085648,272.156311 160.085617,278.800812 
	C160.085556,292.024048 160.085617,292.037903 173.408279,292.013977 
	C176.820282,292.007874 180.533463,292.840729 183.103958,288.303040 
M361.276917,263.872345 
	C362.114166,270.064178 367.687347,270.965179 371.927948,273.197815 
	C379.509460,277.189423 379.568726,277.076874 378.419128,285.926147 
	C374.855408,285.926147 371.264557,285.926147 367.532837,285.926147 
	C367.291992,284.040039 367.070862,282.308655 366.853851,280.609192 
	C364.940826,280.609192 363.343475,280.609192 361.791046,280.609192 
	C360.380829,289.780090 362.259369,292.026703 371.072662,292.027710 
	C373.568817,292.028015 376.065002,292.029938 378.561157,292.025482 
	C382.415466,292.018555 384.321411,289.780029 384.823273,286.248932 
	C386.445923,274.832336 385.399384,272.951599 374.837189,267.668457 
	C373.799225,267.149292 372.823425,266.458954 371.736328,266.093048 
	C367.341644,264.613892 366.456299,261.540833 367.617432,257.374573 
	C371.240997,257.374573 374.845978,257.374573 378.720612,257.374573 
	C378.843384,258.972107 378.950714,260.368622 379.051086,261.674927 
	C381.164612,261.674927 382.900391,261.674927 384.869843,261.674927 
	C384.869843,260.379089 384.886047,259.397278 384.867096,258.416107 
	C384.763214,253.034943 383.285767,251.430130 378.230560,251.189636 
	C365.332397,250.575989 361.941772,251.822739 361.314423,257.545898 
	C361.116058,259.355469 361.265900,261.203217 361.276917,263.872345 
M18.370502,254.073624 
	C16.138865,266.489227 16.716850,267.674500 27.658066,273.128754 
	C27.955069,273.276794 28.239264,273.450500 28.535976,273.599152 
	C35.674393,277.176086 35.979656,277.831635 34.273811,285.833252 
	C30.676247,285.833252 27.098274,285.833252 23.414530,285.833252 
	C23.244795,283.940125 23.100733,282.333344 22.951965,280.674103 
	C21.176895,280.674103 19.626284,280.674103 17.804829,280.674103 
	C17.804829,281.982239 17.807896,282.964233 17.804337,283.946259 
	C17.778883,290.971680 18.817621,292.009521 25.904808,292.022644 
	C28.570148,292.027557 31.236938,291.967377 33.900539,292.035583 
	C38.497746,292.153351 40.543747,289.672516 40.856941,285.368744 
	C41.726120,273.424957 41.486034,273.008423 30.894079,267.703979 
	C29.855270,267.183746 28.880573,266.487396 27.792397,266.122345 
	C23.444588,264.663788 22.302551,261.711243 23.643671,257.339417 
	C27.186310,257.339417 30.782335,257.339417 34.510960,257.339417 
	C34.845119,259.002655 35.147045,260.505463 35.465820,262.092133 
	C37.418427,261.950745 39.020916,261.834747 42.151806,261.608093 
	C40.599529,257.912354 39.916069,252.867813 37.995762,252.342239 
	C31.781374,250.641357 25.013496,249.327667 18.370502,254.073624 
M317.428406,285.962860 
	C314.151611,274.390564 310.874817,262.818237 307.226074,249.932419 
	C304.647339,251.453461 301.658142,252.161087 301.185089,253.661804 
	C297.225159,266.224457 293.727539,278.932770 290.016846,291.853882 
	C292.200287,291.853882 293.991089,291.853882 295.741119,291.853882 
	C299.315582,283.241302 299.340942,283.656311 306.497925,283.218872 
	C313.526520,282.789307 310.572266,289.188171 313.284515,291.783081 
	C315.028351,291.783081 316.959747,291.783081 319.042480,291.783081 
	C318.564819,289.924957 318.153595,288.325378 317.428406,285.962860 
M136.531906,292.025421 
	C147.947998,292.025360 149.909195,290.128662 148.136139,280.706421 
	C146.444717,280.706421 144.742767,280.706421 143.050491,280.706421 
	C142.834457,282.677246 142.657700,284.289612 142.484314,285.871429 
	C138.648331,285.871429 135.051987,285.871429 131.413116,285.871429 
	C131.413116,276.220367 131.413116,266.833099 131.413116,257.437927 
	C135.298843,257.437927 138.864899,257.437927 142.543854,257.437927 
	C142.734985,259.097351 142.896240,260.497406 143.075150,262.050690 
	C145.102432,261.947235 146.700089,261.865723 148.244614,261.786896 
	C149.149643,253.418335 147.194305,251.205093 139.197723,251.189880 
	C137.032425,251.185760 134.865570,251.136505 132.702148,251.200348 
	C127.399277,251.356857 125.198311,253.553833 125.149231,258.922791 
	C125.080734,266.417419 125.131187,273.913147 125.132050,281.408386 
	C125.133148,290.978394 126.164719,292.024048 136.531906,292.025421 
M81.667542,258.638336 
	C81.667542,256.231476 81.667542,253.824600 81.667542,251.432312 
	C79.262810,251.432312 77.662880,251.432312 76.041367,251.432312 
	C76.041367,265.066895 76.041367,278.449829 76.041367,291.846497 
	C82.808289,291.846497 89.259544,291.846497 95.841827,291.846497 
	C95.841827,289.941101 95.841827,288.222656 95.841827,286.013092 
	C91.017311,286.013092 86.444824,286.013092 81.667526,286.013092 
	C81.667526,276.881165 81.667526,268.241425 81.667542,258.638336 
M262.131683,267.503052 
	C262.131683,275.594452 262.131683,283.685852 262.131683,291.780914 
	C269.343872,291.780914 275.940552,291.780914 282.885773,291.780914 
	C282.795532,289.807190 282.717682,288.104126 282.621307,285.995514 
	C277.573242,285.995514 272.989899,285.995514 267.937927,285.995514 
	C267.937927,274.175507 267.937927,262.776855 267.937927,251.428040 
	C265.842926,251.428040 264.242065,251.428040 262.131683,251.428040 
	C262.131683,256.602722 262.131683,261.554077 262.131683,267.503052 
M61.098301,259.564209 
	C61.098301,256.809418 61.098301,254.054626 61.098301,251.100464 
	C58.761341,251.236008 57.160126,251.328873 55.430519,251.429184 
	C55.430519,265.097687 55.430519,278.449615 55.430519,292.070007 
	C57.471024,291.976593 59.200413,291.897430 61.098301,291.810516 
	C61.098301,281.110840 61.098301,270.830322 61.098301,259.564209 
M110.815506,256.721405 
	C110.815506,254.961426 110.815506,253.201447 110.815506,251.405945 
	C108.511604,251.405945 106.914726,251.405945 105.085846,251.405945 
	C105.085846,264.987091 105.085846,278.348846 105.085846,291.740112 
	C107.035995,291.740112 108.757530,291.740112 110.815506,291.740112 
	C110.815506,280.193420 110.815506,268.931213 110.815506,256.721405 
z"/>
<path fill="#D9202C" opacity="1.000000" stroke="none" 
	d="
M132.719910,228.304398 
	C126.691147,225.821335 120.635101,224.129532 115.539948,220.914810 
	C109.160721,216.889893 109.529465,213.216034 115.507088,208.535645 
	C116.491005,207.765274 117.377174,206.870056 118.925148,205.478012 
	C109.012543,203.181641 99.878479,200.971558 90.687042,199.033600 
	C89.240852,198.728683 87.294350,199.268585 85.988228,200.077957 
	C78.082878,204.976715 69.994835,209.662643 62.554829,215.207321 
	C55.101589,220.761856 55.510323,227.312241 63.098190,232.695587 
	C66.049858,234.789703 69.513115,236.162903 72.744041,237.863174 
	C73.920677,238.482361 75.099335,239.097733 75.975739,240.299072 
	C58.318317,236.912567 40.787872,233.219925 26.961227,220.682831 
	C15.919580,210.670975 14.460779,198.678528 22.450329,186.080414 
	C30.750677,172.992233 43.222027,164.632797 56.311329,157.175156 
	C85.459579,140.567886 116.956833,130.105331 149.386581,122.172539 
	C150.030869,122.014946 150.703659,121.890579 151.362289,121.894547 
	C152.356720,121.900543 153.350403,122.033394 155.160721,122.177147 
	C145.960114,125.283165 137.157043,127.433220 129.087280,131.167816 
	C116.316803,137.077850 103.893349,143.794724 91.642685,150.734436 
	C88.194672,152.687637 85.481110,156.340469 83.100143,159.689636 
	C78.269218,166.485001 79.037285,173.690109 85.717262,178.647308 
	C90.433716,182.147354 95.922958,184.960831 101.478004,186.910065 
	C118.644089,192.933578 136.607925,194.152618 154.638611,194.531921 
	C183.369324,195.136337 211.887772,192.940002 240.186020,187.931061 
	C240.917542,187.801559 241.606339,187.430588 242.315048,187.172226 
	C242.357208,186.584442 242.399368,185.996658 242.441513,185.408890 
	C235.371613,184.272034 228.338867,182.712952 221.223999,182.086716 
	C206.642868,180.803268 191.965225,180.476166 177.436554,178.805511 
	C171.672485,178.142700 165.889740,175.542694 160.660202,172.789902 
	C151.221756,167.821564 149.545670,158.631729 156.870483,150.869400 
	C161.250580,146.227676 166.557709,142.061447 172.183456,139.059464 
	C208.032013,119.930191 245.835037,114.938354 285.291718,125.117455 
	C290.027008,126.339073 294.713776,129.324814 298.397156,132.634583 
	C302.652893,136.458740 301.851807,140.945999 297.320740,144.566086 
	C295.020752,146.403656 292.407867,147.849594 289.005341,150.084000 
	C297.797607,151.471863 305.635681,152.519501 313.396606,153.977844 
	C325.544434,156.260498 336.025299,151.256744 346.018555,145.906296 
	C358.078735,139.449234 357.946167,127.934097 346.501617,120.302612 
	C345.566742,119.679207 344.559387,119.164444 342.651031,118.056595 
	C344.404236,118.056595 345.313293,117.842323 346.072754,118.088821 
	C357.064789,121.656464 367.653870,126.060493 376.213501,134.140457 
	C385.563782,142.966751 387.303284,153.582962 381.346375,164.987289 
	C376.360046,174.533569 368.670898,181.692856 360.042145,187.787918 
	C341.561035,200.842361 321.241394,210.289139 299.877747,217.561478 
	C298.521332,218.023209 296.991364,217.975281 295.350891,217.578873 
	C299.788696,215.262650 304.474274,213.315323 308.604523,210.541214 
	C314.379089,206.662720 320.348450,202.757645 325.144562,197.807861 
	C333.924622,188.746429 332.766724,178.358566 321.585663,172.670853 
	C312.710297,168.156021 302.765839,164.983276 292.936707,163.235214 
	C251.725403,155.905991 210.628647,159.178101 169.686340,166.181564 
	C169.088638,166.283783 168.535370,166.645813 167.392593,167.125198 
	C175.490677,172.548599 184.253647,173.223389 192.947662,173.934235 
	C206.713181,175.059723 220.568283,175.428452 234.238510,177.231598 
	C240.638947,178.075806 247.080322,180.818695 252.819672,183.952698 
	C261.623810,188.760254 262.683075,197.332794 255.274002,204.139618 
	C250.199585,208.801559 244.366577,213.200470 238.090881,215.898285 
	C204.409622,230.377304 169.396210,235.036880 132.719910,228.304398 
z"/>
<path fill="#0D0D0D" opacity="1.000000" stroke="none" 
	d="
M218.589813,252.692535 
	C218.647278,265.913788 218.647278,278.699921 218.647278,291.460144 
	C214.403366,292.965729 212.143295,291.871857 210.569855,287.703247 
	C208.087891,281.127686 204.903671,274.817200 201.169250,268.579346 
	C201.169250,276.250580 201.169250,283.921783 201.169250,291.803223 
	C199.021118,291.803223 197.288025,291.803223 195.316208,291.803223 
	C195.316208,278.416626 195.316208,265.174011 195.316208,251.703766 
	C199.231766,250.290436 201.529083,251.339111 203.115524,255.486938 
	C205.561539,261.882080 208.624588,268.041229 212.525330,274.076324 
	C212.525330,266.581360 212.525330,259.086395 212.525330,250.684311 
	C215.023361,251.338486 216.777863,251.797943 218.589813,252.692535 
z"/>
<path fill="#0D0D0D" opacity="1.000000" stroke="none" 
	d="
M329.187408,276.994568 
	C329.187408,268.338135 329.187408,260.180878 329.187408,251.314957 
	C335.437561,251.314957 341.544922,250.981476 347.573669,251.523224 
	C349.325714,251.680664 351.556702,254.044388 352.345093,255.912811 
	C354.346893,260.657013 352.553802,267.493011 348.584869,271.820618 
	C354.089722,275.238190 353.010803,280.775513 352.724792,285.946747 
	C352.516388,289.714539 350.397003,292.061890 346.268799,292.034607 
	C340.784973,291.998352 335.300720,292.025696 329.187408,292.025696 
	C329.187408,287.026367 329.187408,282.260071 329.187408,276.994568 
M340.537598,257.107300 
	C338.790558,257.107300 337.043518,257.107300 335.462250,257.107300 
	C335.462250,261.438171 335.462250,265.011169 335.462250,268.532532 
	C339.402832,268.532532 342.980286,268.532532 346.616150,268.532532 
	C346.616150,264.645813 346.616150,261.072174 346.616150,257.107300 
	C344.716278,257.107300 343.088684,257.107300 340.537598,257.107300 
M338.633026,286.149567 
	C341.235870,286.149567 343.838745,286.149567 346.573242,286.149567 
	C346.573242,282.139252 346.573242,278.603973 346.573242,275.039795 
	C342.698029,275.039795 339.122742,275.039795 335.134094,275.039795 
	C335.134094,278.214935 334.963043,281.175629 335.250641,284.091064 
	C335.325409,284.849243 336.832184,285.466156 338.633026,286.149567 
z"/>
<path fill="#0C0C0C" opacity="1.000000" stroke="none" 
	d="
M182.941864,288.687134 
	C180.533463,292.840729 176.820282,292.007874 173.408279,292.013977 
	C160.085617,292.037903 160.085556,292.024048 160.085617,278.800812 
	C160.085648,272.156311 160.023712,265.511047 160.105591,258.867554 
	C160.170929,253.565735 162.425217,251.375473 167.708862,251.192551 
	C183.274750,250.653671 183.804642,251.096344 183.710388,266.461334 
	C183.665726,273.742889 183.315659,281.022522 182.941864,288.687134 
M166.132935,285.236267 
	C169.890213,285.636993 173.647491,286.037750 177.380646,286.435913 
	C177.380646,276.061646 177.380646,266.682098 177.380646,257.479797 
	C173.413300,257.479797 169.839966,257.479797 166.078766,257.479797 
	C166.078766,266.650787 166.078766,275.461548 166.132935,285.236267 
z"/>
<path fill="#0E0E0E" opacity="1.000000" stroke="none" 
	d="
M361.266663,263.452911 
	C361.265900,261.203217 361.116058,259.355469 361.314423,257.545898 
	C361.941772,251.822739 365.332397,250.575989 378.230560,251.189636 
	C383.285767,251.430130 384.763214,253.034943 384.867096,258.416107 
	C384.886047,259.397278 384.869843,260.379089 384.869843,261.674927 
	C382.900391,261.674927 381.164612,261.674927 379.051086,261.674927 
	C378.950714,260.368622 378.843384,258.972107 378.720612,257.374573 
	C374.845978,257.374573 371.240997,257.374573 367.617432,257.374573 
	C366.456299,261.540833 367.341644,264.613892 371.736328,266.093048 
	C372.823425,266.458954 373.799225,267.149292 374.837189,267.668457 
	C385.399384,272.951599 386.445923,274.832336 384.823273,286.248932 
	C384.321411,289.780029 382.415466,292.018555 378.561157,292.025482 
	C376.065002,292.029938 373.568817,292.028015 371.072662,292.027710 
	C362.259369,292.026703 360.380829,289.780090 361.791046,280.609192 
	C363.343475,280.609192 364.940826,280.609192 366.853851,280.609192 
	C367.070862,282.308655 367.291992,284.040039 367.532837,285.926147 
	C371.264557,285.926147 374.855408,285.926147 378.419128,285.926147 
	C379.568726,277.076874 379.509460,277.189423 371.927948,273.197815 
	C367.687347,270.965179 362.114166,270.064178 361.266663,263.452911 
z"/>
<path fill="#0C0C0C" opacity="1.000000" stroke="none" 
	d="
M18.632938,253.766678 
	C25.013496,249.327667 31.781374,250.641357 37.995762,252.342239 
	C39.916069,252.867813 40.599529,257.912354 42.151806,261.608093 
	C39.020916,261.834747 37.418427,261.950745 35.465820,262.092133 
	C35.147045,260.505463 34.845119,259.002655 34.510960,257.339417 
	C30.782335,257.339417 27.186310,257.339417 23.643671,257.339417 
	C22.302551,261.711243 23.444588,264.663788 27.792397,266.122345 
	C28.880573,266.487396 29.855270,267.183746 30.894079,267.703979 
	C41.486034,273.008423 41.726120,273.424957 40.856941,285.368744 
	C40.543747,289.672516 38.497746,292.153351 33.900539,292.035583 
	C31.236938,291.967377 28.570148,292.027557 25.904808,292.022644 
	C18.817621,292.009521 17.778883,290.971680 17.804337,283.946259 
	C17.807896,282.964233 17.804829,281.982239 17.804829,280.674103 
	C19.626284,280.674103 21.176895,280.674103 22.951965,280.674103 
	C23.100733,282.333344 23.244795,283.940125 23.414530,285.833252 
	C27.098274,285.833252 30.676247,285.833252 34.273811,285.833252 
	C35.979656,277.831635 35.674393,277.176086 28.535976,273.599152 
	C28.239264,273.450500 27.955069,273.276794 27.658066,273.128754 
	C16.716850,267.674500 16.138865,266.489227 18.632938,253.766678 
z"/>
<path fill="#0B0B0B" opacity="1.000000" stroke="none" 
	d="
M317.585388,286.344360 
	C318.153595,288.325378 318.564819,289.924957 319.042480,291.783081 
	C316.959747,291.783081 315.028351,291.783081 313.284515,291.783081 
	C310.572266,289.188171 313.526520,282.789307 306.497925,283.218872 
	C299.340942,283.656311 299.315582,283.241302 295.741119,291.853882 
	C293.991089,291.853882 292.200287,291.853882 290.016846,291.853882 
	C293.727539,278.932770 297.225159,266.224457 301.185089,253.661804 
	C301.658142,252.161087 304.647339,251.453461 307.226074,249.932419 
	C310.874817,262.818237 314.151611,274.390564 317.585388,286.344360 
M305.957336,265.773865 
	C305.526672,264.654510 305.095978,263.535156 304.417816,261.772552 
	C302.944977,267.244629 301.669586,271.983154 300.337250,276.933197 
	C303.343872,276.933197 305.990387,276.933197 308.884949,276.933197 
	C307.876556,273.192566 306.980652,269.869232 305.957336,265.773865 
z"/>
<path fill="#0D0D0D" opacity="1.000000" stroke="none" 
	d="
M136.066010,292.025421 
	C126.164719,292.024048 125.133148,290.978394 125.132050,281.408386 
	C125.131187,273.913147 125.080734,266.417419 125.149231,258.922791 
	C125.198311,253.553833 127.399277,251.356857 132.702148,251.200348 
	C134.865570,251.136505 137.032425,251.185760 139.197723,251.189880 
	C147.194305,251.205093 149.149643,253.418335 148.244614,261.786896 
	C146.700089,261.865723 145.102432,261.947235 143.075150,262.050690 
	C142.896240,260.497406 142.734985,259.097351 142.543854,257.437927 
	C138.864899,257.437927 135.298843,257.437927 131.413116,257.437927 
	C131.413116,266.833099 131.413116,276.220367 131.413116,285.871429 
	C135.051987,285.871429 138.648331,285.871429 142.484314,285.871429 
	C142.657700,284.289612 142.834457,282.677246 143.050491,280.706421 
	C144.742767,280.706421 146.444717,280.706421 148.136139,280.706421 
	C149.909195,290.128662 147.947998,292.025360 136.066010,292.025421 
z"/>
<path fill="#0F0F0F" opacity="1.000000" stroke="none" 
	d="
M81.667534,259.119995 
	C81.667526,268.241425 81.667526,276.881165 81.667526,286.013092 
	C86.444824,286.013092 91.017311,286.013092 95.841827,286.013092 
	C95.841827,288.222656 95.841827,289.941101 95.841827,291.846497 
	C89.259544,291.846497 82.808289,291.846497 76.041367,291.846497 
	C76.041367,278.449829 76.041367,265.066895 76.041367,251.432312 
	C77.662880,251.432312 79.262810,251.432312 81.667542,251.432312 
	C81.667542,253.824600 81.667542,256.231476 81.667534,259.119995 
z"/>
<path fill="#0D0D0D" opacity="1.000000" stroke="none" 
	d="
M262.131683,267.004242 
	C262.131683,261.554077 262.131683,256.602722 262.131683,251.428040 
	C264.242065,251.428040 265.842926,251.428040 267.937927,251.428040 
	C267.937927,262.776855 267.937927,274.175507 267.937927,285.995514 
	C272.989899,285.995514 277.573242,285.995514 282.621307,285.995514 
	C282.717682,288.104126 282.795532,289.807190 282.885773,291.780914 
	C275.940552,291.780914 269.343872,291.780914 262.131683,291.780914 
	C262.131683,283.685852 262.131683,275.594452 262.131683,267.004242 
z"/>
<path fill="#0C0C0C" opacity="1.000000" stroke="none" 
	d="
M61.098301,260.057007 
	C61.098301,270.830322 61.098301,281.110840 61.098301,291.810516 
	C59.200413,291.897430 57.471024,291.976593 55.430519,292.070007 
	C55.430519,278.449615 55.430519,265.097687 55.430519,251.429184 
	C57.160126,251.328873 58.761341,251.236008 61.098301,251.100464 
	C61.098301,254.054626 61.098301,256.809418 61.098301,260.057007 
z"/>
<path fill="#0F0F0F" opacity="1.000000" stroke="none" 
	d="
M110.815506,257.195190 
	C110.815506,268.931213 110.815506,280.193420 110.815506,291.740112 
	C108.757530,291.740112 107.035995,291.740112 105.085846,291.740112 
	C105.085846,278.348846 105.085846,264.987091 105.085846,251.405945 
	C106.914726,251.405945 108.511604,251.405945 110.815506,251.405945 
	C110.815506,253.201447 110.815506,254.961426 110.815506,257.195190 
z"/>
<path fill="#242424" opacity="1.000000" stroke="none" 
	d="
M375.993469,111.114014 
	C381.897491,110.919563 384.795074,112.978073 385.203583,117.657074 
	C385.663666,122.926949 383.567474,126.219421 379.217896,127.058807 
	C374.580658,127.953712 370.079041,125.385841 369.534454,120.762398 
	C369.257141,118.407898 370.711029,115.849487 371.703125,113.602020 
	C372.410034,117.209503 372.796112,120.598206 373.169312,123.873726 
	C376.379120,122.864799 378.533691,122.187561 380.684570,121.546677 
	C380.680939,121.583023 380.665680,121.654465 380.542236,121.906860 
	C380.647186,122.430443 380.875580,122.701637 381.467957,122.943878 
	C384.766449,118.927399 384.545288,116.948021 380.974670,115.010361 
	C380.999329,114.999344 380.974976,115.047539 381.222717,114.804764 
	C380.362823,114.387077 379.255219,114.212166 377.795013,113.996361 
	C376.959473,113.008324 376.476471,112.061165 375.993469,111.114014 
M379.409790,124.485977 
	C379.409790,124.485977 379.526520,124.411102 379.409790,124.485977 
z"/>
<path fill="#1A1A1A" opacity="1.000000" stroke="none" 
	d="
M375.661713,111.081718 
	C376.476471,112.061165 376.959473,113.008324 377.931366,114.297546 
	C379.271851,114.775589 380.123413,114.911560 380.974976,115.047539 
	C380.974976,115.047539 380.999329,114.999344 380.901337,115.394814 
	C380.764984,117.696968 380.726593,119.603645 380.688232,121.510330 
	C378.533691,122.187561 376.379120,122.864799 373.169312,123.873726 
	C372.796112,120.598206 372.410034,117.209503 372.026184,113.458099 
	C373.128937,112.413406 374.229431,111.731415 375.661713,111.081718 
z"/>
<path fill="#EEEEEE" opacity="1.000000" stroke="none" 
	d="
M340.999329,257.107300 
	C343.088684,257.107300 344.716278,257.107300 346.616150,257.107300 
	C346.616150,261.072174 346.616150,264.645813 346.616150,268.532532 
	C342.980286,268.532532 339.402832,268.532532 335.462250,268.532532 
	C335.462250,265.011169 335.462250,261.438171 335.462250,257.107300 
	C337.043518,257.107300 338.790558,257.107300 340.999329,257.107300 
z"/>
<path fill="#F7F7F7" opacity="1.000000" stroke="none" 
	d="
M338.157135,286.148743 
	C336.832184,285.466156 335.325409,284.849243 335.250641,284.091064 
	C334.963043,281.175629 335.134094,278.214935 335.134094,275.039795 
	C339.122742,275.039795 342.698029,275.039795 346.573242,275.039795 
	C346.573242,278.603973 346.573242,282.139252 346.573242,286.149567 
	C343.838745,286.149567 341.235870,286.149567 338.157135,286.148743 
z"/>
<path fill="#F4F4F4" opacity="1.000000" stroke="none" 
	d="
M166.105850,284.754272 
	C166.078766,275.461548 166.078766,266.650787 166.078766,257.479797 
	C169.839966,257.479797 173.413300,257.479797 177.380646,257.479797 
	C177.380646,266.682098 177.380646,276.061646 177.380646,286.435913 
	C173.647491,286.037750 169.890213,285.636993 166.105850,284.754272 
z"/>
<path fill="#EFEFEF" opacity="1.000000" stroke="none" 
	d="
M306.021057,266.159912 
	C306.980652,269.869232 307.876556,273.192566 308.884949,276.933197 
	C305.990387,276.933197 303.343872,276.933197 300.337250,276.933197 
	C301.669586,271.983154 302.944977,267.244629 304.417816,261.772552 
	C305.095978,263.535156 305.526672,264.654510 306.021057,266.159912 
z"/>
<path fill="#DCDCDC" opacity="1.000000" stroke="none" 
	d="
M380.684570,121.546677 
	C380.726593,119.603645 380.764984,117.696968 380.876648,115.405823 
	C384.545288,116.948021 384.766449,118.927399 381.499207,122.699829 
	C381.092224,122.152077 380.925293,121.875320 380.665680,121.654465 
	C380.665680,121.654465 380.680939,121.583023 380.684570,121.546677 
z"/>
<path fill="#DCDCDC" opacity="1.000000" stroke="none" 
	d="
M381.222717,114.804764 
	C380.123413,114.911560 379.271851,114.775589 378.283936,114.338432 
	C379.255219,114.212166 380.362823,114.387077 381.222717,114.804764 
z"/>
<path fill="#1A1A1A" opacity="1.000000" stroke="none" 
	d="
M379.468140,124.448540 
	C379.526520,124.411102 379.409790,124.485977 379.468140,124.448540 
z"/>
<path fill="#1A1A1A" opacity="1.000000" stroke="none" 
	d="
M380.542236,121.906860 
	C380.925293,121.875320 381.092224,122.152077 381.135254,122.728775 
	C380.875580,122.701637 380.647186,122.430443 380.542236,121.906860 
z"/>
</svg>